M48
;GenerationSoftware,Autodesk,EAGLE,9.2.2*%
;CreationDate,2019-03-08T21:12:30Z*%
FMAT,2
ICI,OFF
METRIC,TZ,000.000
T14C0.500
T13C0.600
T12C0.700
T11C0.800
T10C0.813
T9C0.900
T8C0.914
T7C1.000
T6C1.016
T5C1.500
T4C2.000
T3C2.500
T2C3.000
T1C6.000
%
G90
M71
T1
X26352Y91757
T2
X55880Y80645
X2857Y74613
X54134Y74613
X2857Y49212
X54134Y49212
X2857Y42863
X54134Y42863
X2857Y17463
X54134Y17463
X60484Y42863
X97155Y42863
X60484Y17463
X97155Y17463
X2540Y80645
X14605Y80645
X20320Y80645
X32385Y80645
X38100Y80645
X50165Y80645
X87471Y75089
X97949Y75089
X87471Y50641
X97949Y50641
X73501Y80645
X73501Y97790
X40640Y10478
X67945Y80645
T3
X36989Y10478
T4
X33814Y10478
T5
X31274Y10478
T6
X60642Y83344
X58102Y83344
X3334Y34608
X3334Y32067
X3334Y29527
X3334Y26987
X42863Y80328
X45402Y80328
X45402Y98107
X42863Y98107
X9843Y98107
X7302Y98107
X7302Y80328
X9843Y80328
X27622Y98107
X25082Y98107
X25082Y80328
X27622Y80328
X29527Y67786
X63182Y83344
X65723Y83344
X68421Y90011
X68421Y92551
X55404Y92710
X55404Y90170
X75724Y82868
X75724Y85408
X75724Y90487
X75724Y87947
X75724Y93027
X75724Y95567
X95250Y48101
X82391Y65405
X82391Y62865
X82391Y60325
X82391Y57785
X59690Y65246
X59690Y62706
X59690Y60166
X59690Y57626
X97949Y36195
X97949Y24924
X97949Y22384
X70961Y18574
X73501Y18574
X76041Y18574
X78581Y18574
X90170Y48101
X92710Y48101
X29527Y24765
X2857Y69533
X2857Y66993
X2857Y64452
X2857Y61912
X2857Y59372
X2857Y56832
X30480Y37941
X30480Y35401
X97949Y33655
X29527Y22225
X13176Y65087
X13176Y67628
X29527Y65246
T7
X51426Y40175
X42536Y71925
X42536Y63035
X51426Y63035
X51426Y71925
X29051Y10478
X51426Y31285
X3960Y96165
X48520Y87165
X48520Y96165
X39520Y96165
X42536Y31285
X42536Y40175
X39520Y87165
X57300Y96165
X57300Y87165
X66300Y96165
X30740Y87165
X66300Y87165
X30740Y96165
X21740Y87165
X21740Y96165
X3960Y87165
X12960Y96165
X12960Y87165
T8
X26829Y71120
X10319Y24447
X7779Y24447
X21114Y71120
X23654Y71120
X15716Y71120
X13176Y71120
X29369Y71120
X26352Y17621
X23812Y17621
T9
X27146Y10478
T10
X81598Y85408
X86678Y85408
X84138Y82868
X81598Y93345
X86678Y93345
X84138Y90805
X35560Y25241
X33020Y22701
X80316Y73501
X78116Y74771
X78275Y48419
X80475Y49689
X38100Y22701
X32067Y58261
X29527Y60801
X29527Y55721
X15716Y58102
X13176Y60642
X13176Y55562
X11747Y40323
X62389Y50959
X67469Y50959
X64929Y48419
X70009Y50959
X75089Y50959
X72549Y48419
X9525Y16669
X12065Y19209
X6985Y19209
X18256Y16669
X91281Y19844
X91281Y24924
X93821Y22384
X91281Y30797
X91281Y35878
X93821Y33338
X62865Y27940
X62865Y22860
X60325Y25400
X62865Y30639
X62865Y35719
X65405Y33179
X20796Y19209
X15716Y19209
X35560Y38259
X33020Y35719
X38100Y35719
X6667Y40323
X9208Y37783
T11
X8890Y77788
X4921Y77788
X794Y77788
X57309Y50482
X57309Y54610
X57309Y58737
X57309Y62706
X57309Y66834
X57309Y71438
X57309Y74930
X57309Y41275
X57309Y36989
X57309Y31909
X57309Y27622
X57309Y22860
X57309Y19209
X57309Y14287
X52864Y14287
X47942Y14287
X42863Y14287
X37783Y14287
X32067Y14287
X26352Y14287
X20955Y14287
X14605Y14287
X8731Y14287
X3016Y14287
X62547Y14287
X68104Y14287
X74454Y14287
X81439Y14287
X87313Y14287
X93027Y14287
X98584Y14287
X25400Y10478
X2857Y46037
X8890Y46037
X15081Y46037
X21431Y46037
X27146Y46037
X32861Y46037
X38894Y46037
X44926Y46037
X50800Y46037
X57309Y46037
X63024Y46037
X68739Y46037
X74771Y46037
X80169Y46037
X84773Y46037
X92551Y46037
X98901Y46037
X84773Y51911
X84773Y57785
X84773Y63182
X84773Y68263
X84773Y73184
X84773Y77788
X79693Y77788
X90964Y77788
X96361Y77788
X74295Y77788
X70803Y77788
X70803Y83026
X70803Y88265
X70803Y93662
X70803Y98901
X53022Y98742
X53022Y93345
X53022Y88106
X53022Y83026
X53022Y77788
X57309Y77788
X62389Y77788
X66516Y77788
X47942Y77788
X43815Y77788
X39529Y77788
X35243Y77788
X35243Y81915
X35243Y86201
X35243Y91122
X35243Y95091
X35243Y98901
X31432Y77788
X27305Y77788
X22542Y77788
X17463Y77788
X17463Y82233
X17463Y86519
X17463Y91281
X17463Y96044
X13176Y77788
T12
X23812Y10478
T13
X36989Y20479
X20796Y24130
X15399Y29527
X11589Y33338
X11271Y30639
X21114Y30321
X16510Y31591
X14287Y37465
X17621Y22384
X19050Y25400
X21590Y31591
X25241Y59372
X41751Y54292
X15716Y53022
X18891Y49530
X29527Y52546
X23495Y52546
X26829Y53499
X65087Y86043
X41751Y55880
X25241Y62865
X26670Y29527
X22384Y10478
X36830Y32861
X45720Y94932
X44132Y95250
X42545Y94932
X41275Y93980
X42545Y93345
X44132Y93345
X45720Y93345
X46990Y93980
X64611Y75724
X47625Y92710
X46355Y91757
X47625Y90805
X46990Y89535
X45720Y88582
X45720Y90170
X44132Y90170
X44132Y88265
X42545Y88582
X42545Y90170
X41275Y89535
X40640Y90805
X41910Y91757
X40640Y92710
X82391Y26670
X82709Y20161
X72708Y30162
X79851Y40005
X82550Y38894
X97949Y27781
X75724Y31909
X83503Y30797
X83979Y18256
X79375Y23812
X72866Y31591
X80486Y24765
X74136Y31909
X31274Y23495
X25559Y31432
X61436Y55086
X62389Y65246
X75089Y69215
X68898Y73184
X74136Y70644
X68739Y53340
X64770Y72390
X65087Y57944
X58737Y86043
T14
X99060Y85408
X98901Y94139
X98901Y93345
X21114Y10478
X99060Y86201
M30