G04 EAGLE Gerber RS-274X export*
G75*
%MOMM*%
%FSLAX34Y34*%
%LPD*%
%INVias*%
%IPPOS*%
%AMOC8*
5,1,8,0,0,1.08239X$1,22.5*%
G01*
%ADD10C,1.006400*%
%ADD11C,4.016000*%


D10*
X268288Y534988D03*
X234950Y525463D03*
X295275Y525463D03*
D11*
X28575Y746125D03*
X541338Y746125D03*
X28575Y492125D03*
X541338Y492125D03*
X28575Y428625D03*
X541338Y428625D03*
X28575Y174625D03*
X541338Y174625D03*
X604838Y428625D03*
X971550Y428625D03*
X604838Y174625D03*
X971550Y174625D03*
D10*
X188913Y495300D03*
X157163Y530225D03*
X417513Y542925D03*
X252413Y593725D03*
X215900Y315913D03*
X190500Y254000D03*
X176213Y223838D03*
X142875Y374650D03*
X165100Y315913D03*
X211138Y303213D03*
X112713Y306388D03*
X115888Y333375D03*
X153988Y295275D03*
X207963Y241300D03*
X369888Y204788D03*
X368300Y328613D03*
X266700Y295275D03*
X252413Y628650D03*
X417513Y558800D03*
X650875Y860425D03*
X587375Y860425D03*
X650875Y579438D03*
X647700Y723900D03*
X687388Y533400D03*
X741363Y706438D03*
X688975Y731838D03*
X750888Y692150D03*
X623888Y652463D03*
X646113Y757238D03*
X614363Y550863D03*
X255588Y314325D03*
X312738Y234950D03*
X741363Y319088D03*
X804863Y247650D03*
X728663Y315913D03*
X793750Y238125D03*
X839788Y182563D03*
X835025Y307975D03*
X757238Y319088D03*
X979488Y277813D03*
X825500Y388938D03*
X798513Y400050D03*
X727075Y301625D03*
X827088Y201613D03*
X823913Y266700D03*
M02*
