G04 EAGLE Gerber RS-274X export*
G75*
%MOMM*%
%FSLAX34Y34*%
%LPD*%
%IN*%
%IPPOS*%
%AMOC8*
5,1,8,0,0,1.08239X$1,22.5*%
G01*
%ADD10C,0.254000*%


D10*
X0Y0D02*
X1000000Y0D01*
X1000000Y1000000D01*
X0Y1000000D01*
X0Y0D01*
X893763Y793750D02*
X1009650Y793750D01*
X1009650Y838200D01*
X893763Y838200D01*
X893763Y793750D01*
X574675Y898525D02*
X590550Y882650D01*
X590550Y931863D01*
X611188Y931863D01*
X611188Y874713D01*
X627063Y874713D01*
X627063Y931863D01*
X647700Y931863D01*
X647700Y884238D01*
X661988Y898525D01*
X661988Y938213D01*
X642938Y957263D01*
X595313Y957263D01*
X574675Y936625D01*
X574675Y898525D01*
X44600Y929825D02*
X44619Y929389D01*
X44676Y928957D01*
X44770Y928531D01*
X44902Y928115D01*
X45068Y927712D01*
X45270Y927325D01*
X45504Y926957D01*
X45770Y926611D01*
X46064Y926289D01*
X46386Y925995D01*
X46732Y925729D01*
X47100Y925495D01*
X47487Y925293D01*
X47890Y925127D01*
X48306Y924995D01*
X48732Y924901D01*
X49164Y924844D01*
X49600Y924825D01*
X119600Y924825D01*
X120036Y924844D01*
X120468Y924901D01*
X120894Y924995D01*
X121310Y925127D01*
X121713Y925293D01*
X122100Y925495D01*
X122468Y925729D01*
X122814Y925995D01*
X123136Y926289D01*
X123430Y926611D01*
X123696Y926957D01*
X123930Y927325D01*
X124132Y927712D01*
X124298Y928115D01*
X124430Y928531D01*
X124524Y928957D01*
X124581Y929389D01*
X124600Y929825D01*
X124385Y931583D01*
X124017Y933315D01*
X123500Y935009D01*
X122837Y936651D01*
X122033Y938229D01*
X121095Y939731D01*
X120030Y941146D01*
X119600Y941650D01*
X117130Y944661D01*
X114406Y947445D01*
X111450Y949981D01*
X108285Y952250D01*
X104934Y954234D01*
X101422Y955919D01*
X99600Y956650D01*
X96067Y957806D01*
X92446Y958649D01*
X88766Y959173D01*
X85053Y959375D01*
X81338Y959252D01*
X77647Y958806D01*
X74009Y958040D01*
X70452Y956960D01*
X69600Y956650D01*
X66018Y955121D01*
X62583Y953286D01*
X59321Y951159D01*
X56256Y948755D01*
X53413Y946094D01*
X50812Y943195D01*
X49600Y941650D01*
X48489Y940271D01*
X47502Y938800D01*
X46648Y937249D01*
X45932Y935630D01*
X45359Y933954D01*
X44935Y932234D01*
X44663Y930485D01*
X44600Y929825D01*
X480325Y640813D02*
X480344Y640377D01*
X480401Y639944D01*
X480495Y639518D01*
X480627Y639102D01*
X480793Y638699D01*
X480995Y638313D01*
X481229Y637945D01*
X481495Y637599D01*
X481789Y637277D01*
X482111Y636982D01*
X482457Y636717D01*
X482825Y636482D01*
X483212Y636281D01*
X483615Y636114D01*
X484031Y635983D01*
X484457Y635888D01*
X484889Y635832D01*
X485325Y635813D01*
X485985Y635875D01*
X487734Y636148D01*
X489454Y636572D01*
X491130Y637144D01*
X492749Y637860D01*
X494300Y638715D01*
X495771Y639702D01*
X497150Y640813D01*
X498695Y642025D01*
X501594Y644625D01*
X504255Y647469D01*
X506659Y650533D01*
X508786Y653795D01*
X510621Y657230D01*
X512150Y660813D01*
X512460Y661665D01*
X513540Y665222D01*
X514306Y668860D01*
X514752Y672550D01*
X514875Y676266D01*
X514673Y679978D01*
X514149Y683658D01*
X513306Y687279D01*
X512150Y690813D01*
X511419Y692635D01*
X509734Y696146D01*
X507750Y699497D01*
X505481Y702663D01*
X502945Y705619D01*
X500161Y708342D01*
X497150Y710813D01*
X496646Y711242D01*
X495231Y712307D01*
X493729Y713246D01*
X492151Y714049D01*
X490509Y714712D01*
X488815Y715229D01*
X487083Y715597D01*
X485325Y715813D01*
X484889Y715793D01*
X484457Y715737D01*
X484031Y715642D01*
X483615Y715511D01*
X483212Y715344D01*
X482825Y715143D01*
X482457Y714908D01*
X482111Y714643D01*
X481789Y714348D01*
X481495Y714026D01*
X481229Y713680D01*
X480995Y713313D01*
X480793Y712926D01*
X480627Y712523D01*
X480495Y712107D01*
X480401Y711681D01*
X480344Y711248D01*
X480325Y710813D01*
X480325Y640813D01*
X893763Y877888D02*
X1009650Y877888D01*
X1009650Y917575D01*
X893763Y917575D01*
X893763Y877888D01*
X430825Y660813D02*
X431556Y658990D01*
X433241Y655479D01*
X435225Y652128D01*
X437494Y648962D01*
X440030Y646006D01*
X442814Y643283D01*
X445825Y640813D01*
X446329Y640383D01*
X447744Y639318D01*
X449246Y638380D01*
X450824Y637576D01*
X452466Y636913D01*
X454160Y636396D01*
X455892Y636028D01*
X457650Y635813D01*
X458086Y635832D01*
X458518Y635888D01*
X458944Y635983D01*
X459360Y636114D01*
X459763Y636281D01*
X460150Y636482D01*
X460518Y636717D01*
X460864Y636982D01*
X461186Y637277D01*
X461480Y637599D01*
X461746Y637945D01*
X461980Y638313D01*
X462182Y638699D01*
X462348Y639102D01*
X462480Y639518D01*
X462574Y639944D01*
X462631Y640377D01*
X462650Y640813D01*
X462650Y710813D01*
X462631Y711248D01*
X462574Y711681D01*
X462480Y712107D01*
X462348Y712523D01*
X462182Y712926D01*
X461980Y713313D01*
X461746Y713680D01*
X461480Y714026D01*
X461186Y714348D01*
X460864Y714643D01*
X460518Y714908D01*
X460150Y715143D01*
X459763Y715344D01*
X459360Y715511D01*
X458944Y715642D01*
X458518Y715737D01*
X458086Y715793D01*
X457650Y715813D01*
X456991Y715750D01*
X455241Y715477D01*
X453521Y715053D01*
X451845Y714481D01*
X450226Y713765D01*
X448675Y712910D01*
X447204Y711924D01*
X445825Y710813D01*
X444280Y709600D01*
X441381Y707000D01*
X438720Y704156D01*
X436316Y701092D01*
X434189Y697830D01*
X432354Y694395D01*
X430825Y690813D01*
X430515Y689960D01*
X429435Y686403D01*
X428669Y682765D01*
X428223Y679075D01*
X428100Y675359D01*
X428302Y671647D01*
X428826Y667967D01*
X429669Y664346D01*
X430825Y660813D01*
X893763Y957263D02*
X1009650Y957263D01*
X1009650Y1009650D01*
X893763Y1009650D01*
X893763Y957263D01*
X44600Y903738D02*
X44815Y901980D01*
X45183Y900247D01*
X45700Y898554D01*
X46363Y896912D01*
X47167Y895334D01*
X48105Y893831D01*
X49170Y892417D01*
X49600Y891913D01*
X52070Y888902D01*
X54794Y886118D01*
X57750Y883582D01*
X60915Y881313D01*
X64266Y879329D01*
X67778Y877644D01*
X69600Y876913D01*
X73133Y875757D01*
X76754Y874914D01*
X80434Y874389D01*
X84147Y874188D01*
X87862Y874310D01*
X91553Y874756D01*
X95191Y875522D01*
X98748Y876602D01*
X99600Y876913D01*
X103182Y878441D01*
X106617Y880276D01*
X109879Y882403D01*
X112944Y884807D01*
X115787Y887469D01*
X118388Y890368D01*
X119600Y891913D01*
X120711Y893292D01*
X121698Y894762D01*
X122552Y896313D01*
X123268Y897933D01*
X123841Y899609D01*
X124265Y901328D01*
X124537Y903078D01*
X124600Y903738D01*
X124581Y904173D01*
X124524Y904606D01*
X124430Y905032D01*
X124298Y905448D01*
X124132Y905851D01*
X123930Y906238D01*
X123696Y906605D01*
X123430Y906951D01*
X123136Y907273D01*
X122814Y907568D01*
X122468Y907833D01*
X122100Y908068D01*
X121713Y908269D01*
X121310Y908436D01*
X120894Y908567D01*
X120468Y908662D01*
X120036Y908718D01*
X119600Y908738D01*
X49600Y908738D01*
X49164Y908718D01*
X48732Y908662D01*
X48306Y908567D01*
X47890Y908436D01*
X47487Y908269D01*
X47100Y908068D01*
X46732Y907833D01*
X46386Y907568D01*
X46064Y907273D01*
X45770Y906951D01*
X45504Y906605D01*
X45270Y906238D01*
X45068Y905851D01*
X44902Y905448D01*
X44770Y905032D01*
X44676Y904606D01*
X44619Y904173D01*
X44600Y903738D01*
X429238Y341725D02*
X429969Y339903D01*
X431654Y336391D01*
X433638Y333040D01*
X435907Y329875D01*
X438443Y326919D01*
X441227Y324195D01*
X444238Y321725D01*
X444742Y321295D01*
X446156Y320230D01*
X447659Y319292D01*
X449237Y318488D01*
X450879Y317825D01*
X452572Y317308D01*
X454305Y316940D01*
X456063Y316725D01*
X456498Y316744D01*
X456931Y316801D01*
X457357Y316895D01*
X457773Y317027D01*
X458176Y317193D01*
X458563Y317395D01*
X458930Y317629D01*
X459276Y317895D01*
X459598Y318189D01*
X459893Y318511D01*
X460158Y318857D01*
X460393Y319225D01*
X460594Y319612D01*
X460761Y320015D01*
X460892Y320431D01*
X460987Y320857D01*
X461043Y321289D01*
X461063Y321725D01*
X461063Y391725D01*
X461043Y392161D01*
X460987Y392593D01*
X460892Y393019D01*
X460761Y393435D01*
X460594Y393838D01*
X460393Y394225D01*
X460158Y394593D01*
X459893Y394939D01*
X459598Y395261D01*
X459276Y395555D01*
X458930Y395821D01*
X458563Y396055D01*
X458176Y396257D01*
X457773Y396423D01*
X457357Y396555D01*
X456931Y396649D01*
X456498Y396706D01*
X456063Y396725D01*
X455403Y396662D01*
X453653Y396390D01*
X451934Y395966D01*
X450258Y395393D01*
X448638Y394677D01*
X447087Y393823D01*
X445617Y392836D01*
X444238Y391725D01*
X442693Y390513D01*
X439794Y387912D01*
X437132Y385069D01*
X434728Y382004D01*
X432601Y378742D01*
X430766Y375307D01*
X429238Y371725D01*
X428927Y370873D01*
X427847Y367316D01*
X427081Y363678D01*
X426635Y359987D01*
X426513Y356272D01*
X426714Y352559D01*
X427239Y348879D01*
X428082Y345258D01*
X429238Y341725D01*
X478738Y321725D02*
X478757Y321289D01*
X478813Y320857D01*
X478908Y320431D01*
X479039Y320015D01*
X479206Y319612D01*
X479407Y319225D01*
X479642Y318857D01*
X479907Y318511D01*
X480202Y318189D01*
X480524Y317895D01*
X480870Y317629D01*
X481238Y317395D01*
X481624Y317193D01*
X482027Y317027D01*
X482443Y316895D01*
X482869Y316801D01*
X483302Y316744D01*
X483738Y316725D01*
X484397Y316788D01*
X486147Y317060D01*
X487866Y317484D01*
X489542Y318057D01*
X491162Y318773D01*
X492713Y319627D01*
X494183Y320614D01*
X495563Y321725D01*
X497107Y322937D01*
X500006Y325538D01*
X502668Y328381D01*
X505072Y331446D01*
X507199Y334708D01*
X509034Y338143D01*
X510563Y341725D01*
X510873Y342577D01*
X511953Y346134D01*
X512719Y349772D01*
X513165Y353463D01*
X513287Y357178D01*
X513086Y360891D01*
X512561Y364571D01*
X511718Y368192D01*
X510563Y371725D01*
X509831Y373547D01*
X508146Y377059D01*
X506162Y380410D01*
X503893Y383575D01*
X501357Y386531D01*
X498573Y389255D01*
X495563Y391725D01*
X495058Y392155D01*
X493644Y393220D01*
X492142Y394158D01*
X490563Y394962D01*
X488921Y395625D01*
X487228Y396142D01*
X485495Y396510D01*
X483738Y396725D01*
X483302Y396706D01*
X482869Y396649D01*
X482443Y396555D01*
X482027Y396423D01*
X481624Y396257D01*
X481238Y396055D01*
X480870Y395821D01*
X480524Y395555D01*
X480202Y395261D01*
X479907Y394939D01*
X479642Y394593D01*
X479407Y394225D01*
X479206Y393838D01*
X479039Y393435D01*
X478908Y393019D01*
X478813Y392593D01*
X478757Y392161D01*
X478738Y391725D01*
X478738Y321725D01*
X762313Y615077D02*
X762313Y616823D01*
X762236Y618567D01*
X762084Y620306D01*
X761856Y622036D01*
X761553Y623755D01*
X761175Y625460D01*
X760724Y627146D01*
X760199Y628811D01*
X759602Y630451D01*
X758934Y632064D01*
X758196Y633646D01*
X757390Y635194D01*
X756517Y636706D01*
X755579Y638178D01*
X754578Y639608D01*
X753515Y640993D01*
X752393Y642330D01*
X751214Y643617D01*
X749980Y644851D01*
X748693Y646031D01*
X747355Y647153D01*
X745971Y648215D01*
X744541Y649217D01*
X743068Y650155D01*
X741557Y651027D01*
X740008Y651833D01*
X738426Y652571D01*
X736813Y653239D01*
X735173Y653836D01*
X733508Y654361D01*
X731822Y654813D01*
X730118Y655191D01*
X728399Y655494D01*
X726668Y655722D01*
X724929Y655874D01*
X723185Y655950D01*
X721440Y655950D01*
X719696Y655874D01*
X717957Y655722D01*
X716226Y655494D01*
X714507Y655191D01*
X712803Y654813D01*
X711117Y654361D01*
X709452Y653836D01*
X707812Y653239D01*
X706199Y652571D01*
X704617Y651833D01*
X703068Y651027D01*
X701557Y650155D01*
X700084Y649217D01*
X698654Y648215D01*
X697270Y647153D01*
X695932Y646031D01*
X694645Y644851D01*
X693411Y643617D01*
X692232Y642330D01*
X691110Y640993D01*
X690047Y639608D01*
X689046Y638178D01*
X688108Y636706D01*
X687235Y635194D01*
X686429Y633646D01*
X685691Y632064D01*
X685023Y630451D01*
X684426Y628811D01*
X683901Y627146D01*
X683450Y625460D01*
X683072Y623755D01*
X682769Y622036D01*
X682541Y620306D01*
X682389Y618567D01*
X682313Y616823D01*
X682313Y615077D01*
X682389Y613333D01*
X682541Y611594D01*
X682769Y609864D01*
X683072Y608145D01*
X683450Y606440D01*
X683901Y604754D01*
X684426Y603089D01*
X685023Y601449D01*
X685691Y599836D01*
X686429Y598254D01*
X687235Y596706D01*
X688108Y595194D01*
X689046Y593722D01*
X690047Y592292D01*
X691110Y590907D01*
X692232Y589570D01*
X693411Y588283D01*
X694645Y587049D01*
X695932Y585869D01*
X697270Y584747D01*
X698654Y583685D01*
X700084Y582683D01*
X701557Y581745D01*
X703068Y580873D01*
X704617Y580067D01*
X706199Y579329D01*
X707812Y578661D01*
X709452Y578064D01*
X711117Y577539D01*
X712803Y577087D01*
X714507Y576709D01*
X716226Y576406D01*
X717957Y576178D01*
X719696Y576026D01*
X721440Y575950D01*
X723185Y575950D01*
X724929Y576026D01*
X726668Y576178D01*
X728399Y576406D01*
X730118Y576709D01*
X731822Y577087D01*
X733508Y577539D01*
X735173Y578064D01*
X736813Y578661D01*
X738426Y579329D01*
X740008Y580067D01*
X741557Y580873D01*
X743068Y581745D01*
X744541Y582683D01*
X745971Y583685D01*
X747355Y584747D01*
X748693Y585869D01*
X749980Y587049D01*
X751214Y588283D01*
X752393Y589570D01*
X753515Y590907D01*
X754578Y592292D01*
X755579Y593722D01*
X756517Y595194D01*
X757390Y596706D01*
X758196Y598254D01*
X758934Y599836D01*
X759602Y601449D01*
X760199Y603089D01*
X760724Y604754D01*
X761175Y606440D01*
X761553Y608145D01*
X761856Y609864D01*
X762084Y611594D01*
X762236Y613333D01*
X762313Y615077D01*
X968688Y621427D02*
X968688Y623173D01*
X968611Y624917D01*
X968459Y626656D01*
X968231Y628386D01*
X967928Y630105D01*
X967550Y631810D01*
X967099Y633496D01*
X966574Y635161D01*
X965977Y636801D01*
X965309Y638414D01*
X964571Y639996D01*
X963765Y641544D01*
X962892Y643056D01*
X961954Y644528D01*
X960953Y645958D01*
X959890Y647343D01*
X958768Y648680D01*
X957589Y649967D01*
X956355Y651201D01*
X955068Y652381D01*
X953730Y653503D01*
X952346Y654565D01*
X950916Y655567D01*
X949443Y656505D01*
X947932Y657377D01*
X946383Y658183D01*
X944801Y658921D01*
X943188Y659589D01*
X941548Y660186D01*
X939883Y660711D01*
X938197Y661163D01*
X936493Y661541D01*
X934774Y661844D01*
X933043Y662072D01*
X931304Y662224D01*
X929560Y662300D01*
X927815Y662300D01*
X926071Y662224D01*
X924332Y662072D01*
X922601Y661844D01*
X920882Y661541D01*
X919178Y661163D01*
X917492Y660711D01*
X915827Y660186D01*
X914187Y659589D01*
X912574Y658921D01*
X910992Y658183D01*
X909443Y657377D01*
X907932Y656505D01*
X906459Y655567D01*
X905029Y654565D01*
X903645Y653503D01*
X902307Y652381D01*
X901020Y651201D01*
X899786Y649967D01*
X898607Y648680D01*
X897485Y647343D01*
X896422Y645958D01*
X895421Y644528D01*
X894483Y643056D01*
X893610Y641544D01*
X892804Y639996D01*
X892066Y638414D01*
X891398Y636801D01*
X890801Y635161D01*
X890276Y633496D01*
X889825Y631810D01*
X889447Y630105D01*
X889144Y628386D01*
X888916Y626656D01*
X888764Y624917D01*
X888688Y623173D01*
X888688Y621427D01*
X888764Y619683D01*
X888916Y617944D01*
X889144Y616214D01*
X889447Y614495D01*
X889825Y612790D01*
X890276Y611104D01*
X890801Y609439D01*
X891398Y607799D01*
X892066Y606186D01*
X892804Y604604D01*
X893610Y603056D01*
X894483Y601544D01*
X895421Y600072D01*
X896422Y598642D01*
X897485Y597257D01*
X898607Y595920D01*
X899786Y594633D01*
X901020Y593399D01*
X902307Y592219D01*
X903645Y591097D01*
X905029Y590035D01*
X906459Y589033D01*
X907932Y588095D01*
X909443Y587223D01*
X910992Y586417D01*
X912574Y585679D01*
X914187Y585011D01*
X915827Y584414D01*
X917492Y583889D01*
X919178Y583437D01*
X920882Y583059D01*
X922601Y582756D01*
X924332Y582528D01*
X926071Y582376D01*
X927815Y582300D01*
X929560Y582300D01*
X931304Y582376D01*
X933043Y582528D01*
X934774Y582756D01*
X936493Y583059D01*
X938197Y583437D01*
X939883Y583889D01*
X941548Y584414D01*
X943188Y585011D01*
X944801Y585679D01*
X946383Y586417D01*
X947932Y587223D01*
X949443Y588095D01*
X950916Y589033D01*
X952346Y590035D01*
X953730Y591097D01*
X955068Y592219D01*
X956355Y593399D01*
X957589Y594633D01*
X958768Y595920D01*
X959890Y597257D01*
X960953Y598642D01*
X961954Y600072D01*
X962892Y601544D01*
X963765Y603056D01*
X964571Y604604D01*
X965309Y606186D01*
X965977Y607799D01*
X966574Y609439D01*
X967099Y611104D01*
X967550Y612790D01*
X967928Y614495D01*
X968231Y616214D01*
X968459Y617944D01*
X968611Y619683D01*
X968688Y621427D01*
X44600Y961369D02*
X44537Y960811D01*
X44412Y960264D01*
X44227Y959734D01*
X43983Y959228D01*
X43684Y958752D01*
X43334Y958313D01*
X42937Y957916D01*
X42498Y957566D01*
X42022Y957267D01*
X41516Y957023D01*
X40986Y956838D01*
X40439Y956713D01*
X39881Y956650D01*
X39319Y956650D01*
X38761Y956713D01*
X38214Y956838D01*
X37684Y957023D01*
X37178Y957267D01*
X36702Y957566D01*
X36263Y957916D01*
X35866Y958313D01*
X35516Y958752D01*
X35217Y959228D01*
X34973Y959734D01*
X34788Y960264D01*
X34663Y960811D01*
X34600Y961369D01*
X34600Y961931D01*
X34663Y962489D01*
X34788Y963036D01*
X34973Y963566D01*
X35217Y964072D01*
X35516Y964548D01*
X35866Y964987D01*
X36263Y965384D01*
X36702Y965734D01*
X37178Y966033D01*
X37684Y966277D01*
X38214Y966462D01*
X38761Y966587D01*
X39319Y966650D01*
X39881Y966650D01*
X40439Y966587D01*
X40986Y966462D01*
X41516Y966277D01*
X42022Y966033D01*
X42498Y965734D01*
X42937Y965384D01*
X43334Y964987D01*
X43684Y964548D01*
X43983Y964072D01*
X44227Y963566D01*
X44412Y963036D01*
X44537Y962489D01*
X44600Y961931D01*
X44600Y961369D01*
X134600Y871369D02*
X134537Y870811D01*
X134412Y870264D01*
X134227Y869734D01*
X133983Y869228D01*
X133684Y868752D01*
X133334Y868313D01*
X132937Y867916D01*
X132498Y867566D01*
X132022Y867267D01*
X131516Y867023D01*
X130986Y866838D01*
X130439Y866713D01*
X129881Y866650D01*
X129319Y866650D01*
X128761Y866713D01*
X128214Y866838D01*
X127684Y867023D01*
X127178Y867267D01*
X126702Y867566D01*
X126263Y867916D01*
X125866Y868313D01*
X125516Y868752D01*
X125217Y869228D01*
X124973Y869734D01*
X124788Y870264D01*
X124663Y870811D01*
X124600Y871369D01*
X124600Y871931D01*
X124663Y872489D01*
X124788Y873036D01*
X124973Y873566D01*
X125217Y874072D01*
X125516Y874548D01*
X125866Y874987D01*
X126263Y875384D01*
X126702Y875734D01*
X127178Y876033D01*
X127684Y876277D01*
X128214Y876462D01*
X128761Y876587D01*
X129319Y876650D01*
X129881Y876650D01*
X130439Y876587D01*
X130986Y876462D01*
X131516Y876277D01*
X132022Y876033D01*
X132498Y875734D01*
X132937Y875384D01*
X133334Y874987D01*
X133684Y874548D01*
X133983Y874072D01*
X134227Y873566D01*
X134412Y873036D01*
X134537Y872489D01*
X134600Y871931D01*
X134600Y871369D01*
X134600Y961369D02*
X134537Y960811D01*
X134412Y960264D01*
X134227Y959734D01*
X133983Y959228D01*
X133684Y958752D01*
X133334Y958313D01*
X132937Y957916D01*
X132498Y957566D01*
X132022Y957267D01*
X131516Y957023D01*
X130986Y956838D01*
X130439Y956713D01*
X129881Y956650D01*
X129319Y956650D01*
X128761Y956713D01*
X128214Y956838D01*
X127684Y957023D01*
X127178Y957267D01*
X126702Y957566D01*
X126263Y957916D01*
X125866Y958313D01*
X125516Y958752D01*
X125217Y959228D01*
X124973Y959734D01*
X124788Y960264D01*
X124663Y960811D01*
X124600Y961369D01*
X124600Y961931D01*
X124663Y962489D01*
X124788Y963036D01*
X124973Y963566D01*
X125217Y964072D01*
X125516Y964548D01*
X125866Y964987D01*
X126263Y965384D01*
X126702Y965734D01*
X127178Y966033D01*
X127684Y966277D01*
X128214Y966462D01*
X128761Y966587D01*
X129319Y966650D01*
X129881Y966650D01*
X130439Y966587D01*
X130986Y966462D01*
X131516Y966277D01*
X132022Y966033D01*
X132498Y965734D01*
X132937Y965384D01*
X133334Y964987D01*
X133684Y964548D01*
X133983Y964072D01*
X134227Y963566D01*
X134412Y963036D01*
X134537Y962489D01*
X134600Y961931D01*
X134600Y961369D01*
X44600Y871369D02*
X44537Y870811D01*
X44412Y870264D01*
X44227Y869734D01*
X43983Y869228D01*
X43684Y868752D01*
X43334Y868313D01*
X42937Y867916D01*
X42498Y867566D01*
X42022Y867267D01*
X41516Y867023D01*
X40986Y866838D01*
X40439Y866713D01*
X39881Y866650D01*
X39319Y866650D01*
X38761Y866713D01*
X38214Y866838D01*
X37684Y867023D01*
X37178Y867267D01*
X36702Y867566D01*
X36263Y867916D01*
X35866Y868313D01*
X35516Y868752D01*
X35217Y869228D01*
X34973Y869734D01*
X34788Y870264D01*
X34663Y870811D01*
X34600Y871369D01*
X34600Y871931D01*
X34663Y872489D01*
X34788Y873036D01*
X34973Y873566D01*
X35217Y874072D01*
X35516Y874548D01*
X35866Y874987D01*
X36263Y875384D01*
X36702Y875734D01*
X37178Y876033D01*
X37684Y876277D01*
X38214Y876462D01*
X38761Y876587D01*
X39319Y876650D01*
X39881Y876650D01*
X40439Y876587D01*
X40986Y876462D01*
X41516Y876277D01*
X42022Y876033D01*
X42498Y875734D01*
X42937Y875384D01*
X43334Y874987D01*
X43684Y874548D01*
X43983Y874072D01*
X44227Y873566D01*
X44412Y873036D01*
X44537Y872489D01*
X44600Y871931D01*
X44600Y871369D01*
X222400Y961369D02*
X222337Y960811D01*
X222212Y960264D01*
X222027Y959734D01*
X221783Y959228D01*
X221484Y958752D01*
X221134Y958313D01*
X220737Y957916D01*
X220298Y957566D01*
X219822Y957267D01*
X219316Y957023D01*
X218786Y956838D01*
X218239Y956713D01*
X217681Y956650D01*
X217119Y956650D01*
X216561Y956713D01*
X216014Y956838D01*
X215484Y957023D01*
X214978Y957267D01*
X214502Y957566D01*
X214063Y957916D01*
X213666Y958313D01*
X213316Y958752D01*
X213017Y959228D01*
X212773Y959734D01*
X212588Y960264D01*
X212463Y960811D01*
X212400Y961369D01*
X212400Y961931D01*
X212463Y962489D01*
X212588Y963036D01*
X212773Y963566D01*
X213017Y964072D01*
X213316Y964548D01*
X213666Y964987D01*
X214063Y965384D01*
X214502Y965734D01*
X214978Y966033D01*
X215484Y966277D01*
X216014Y966462D01*
X216561Y966587D01*
X217119Y966650D01*
X217681Y966650D01*
X218239Y966587D01*
X218786Y966462D01*
X219316Y966277D01*
X219822Y966033D01*
X220298Y965734D01*
X220737Y965384D01*
X221134Y964987D01*
X221484Y964548D01*
X221783Y964072D01*
X222027Y963566D01*
X222212Y963036D01*
X222337Y962489D01*
X222400Y961931D01*
X222400Y961369D01*
X222400Y871369D02*
X222337Y870811D01*
X222212Y870264D01*
X222027Y869734D01*
X221783Y869228D01*
X221484Y868752D01*
X221134Y868313D01*
X220737Y867916D01*
X220298Y867566D01*
X219822Y867267D01*
X219316Y867023D01*
X218786Y866838D01*
X218239Y866713D01*
X217681Y866650D01*
X217119Y866650D01*
X216561Y866713D01*
X216014Y866838D01*
X215484Y867023D01*
X214978Y867267D01*
X214502Y867566D01*
X214063Y867916D01*
X213666Y868313D01*
X213316Y868752D01*
X213017Y869228D01*
X212773Y869734D01*
X212588Y870264D01*
X212463Y870811D01*
X212400Y871369D01*
X212400Y871931D01*
X212463Y872489D01*
X212588Y873036D01*
X212773Y873566D01*
X213017Y874072D01*
X213316Y874548D01*
X213666Y874987D01*
X214063Y875384D01*
X214502Y875734D01*
X214978Y876033D01*
X215484Y876277D01*
X216014Y876462D01*
X216561Y876587D01*
X217119Y876650D01*
X217681Y876650D01*
X218239Y876587D01*
X218786Y876462D01*
X219316Y876277D01*
X219822Y876033D01*
X220298Y875734D01*
X220737Y875384D01*
X221134Y874987D01*
X221484Y874548D01*
X221783Y874072D01*
X222027Y873566D01*
X222212Y873036D01*
X222337Y872489D01*
X222400Y871931D01*
X222400Y871369D01*
X312400Y961369D02*
X312337Y960811D01*
X312212Y960264D01*
X312027Y959734D01*
X311783Y959228D01*
X311484Y958752D01*
X311134Y958313D01*
X310737Y957916D01*
X310298Y957566D01*
X309822Y957267D01*
X309316Y957023D01*
X308786Y956838D01*
X308239Y956713D01*
X307681Y956650D01*
X307119Y956650D01*
X306561Y956713D01*
X306014Y956838D01*
X305484Y957023D01*
X304978Y957267D01*
X304502Y957566D01*
X304063Y957916D01*
X303666Y958313D01*
X303316Y958752D01*
X303017Y959228D01*
X302773Y959734D01*
X302588Y960264D01*
X302463Y960811D01*
X302400Y961369D01*
X302400Y961931D01*
X302463Y962489D01*
X302588Y963036D01*
X302773Y963566D01*
X303017Y964072D01*
X303316Y964548D01*
X303666Y964987D01*
X304063Y965384D01*
X304502Y965734D01*
X304978Y966033D01*
X305484Y966277D01*
X306014Y966462D01*
X306561Y966587D01*
X307119Y966650D01*
X307681Y966650D01*
X308239Y966587D01*
X308786Y966462D01*
X309316Y966277D01*
X309822Y966033D01*
X310298Y965734D01*
X310737Y965384D01*
X311134Y964987D01*
X311484Y964548D01*
X311783Y964072D01*
X312027Y963566D01*
X312212Y963036D01*
X312337Y962489D01*
X312400Y961931D01*
X312400Y961369D01*
X312400Y871369D02*
X312337Y870811D01*
X312212Y870264D01*
X312027Y869734D01*
X311783Y869228D01*
X311484Y868752D01*
X311134Y868313D01*
X310737Y867916D01*
X310298Y867566D01*
X309822Y867267D01*
X309316Y867023D01*
X308786Y866838D01*
X308239Y866713D01*
X307681Y866650D01*
X307119Y866650D01*
X306561Y866713D01*
X306014Y866838D01*
X305484Y867023D01*
X304978Y867267D01*
X304502Y867566D01*
X304063Y867916D01*
X303666Y868313D01*
X303316Y868752D01*
X303017Y869228D01*
X302773Y869734D01*
X302588Y870264D01*
X302463Y870811D01*
X302400Y871369D01*
X302400Y871931D01*
X302463Y872489D01*
X302588Y873036D01*
X302773Y873566D01*
X303017Y874072D01*
X303316Y874548D01*
X303666Y874987D01*
X304063Y875384D01*
X304502Y875734D01*
X304978Y876033D01*
X305484Y876277D01*
X306014Y876462D01*
X306561Y876587D01*
X307119Y876650D01*
X307681Y876650D01*
X308239Y876587D01*
X308786Y876462D01*
X309316Y876277D01*
X309822Y876033D01*
X310298Y875734D01*
X310737Y875384D01*
X311134Y874987D01*
X311484Y874548D01*
X311783Y874072D01*
X312027Y873566D01*
X312212Y873036D01*
X312337Y872489D01*
X312400Y871931D01*
X312400Y871369D01*
X400200Y961369D02*
X400137Y960811D01*
X400012Y960264D01*
X399827Y959734D01*
X399583Y959228D01*
X399284Y958752D01*
X398934Y958313D01*
X398537Y957916D01*
X398098Y957566D01*
X397622Y957267D01*
X397116Y957023D01*
X396586Y956838D01*
X396039Y956713D01*
X395481Y956650D01*
X394919Y956650D01*
X394361Y956713D01*
X393814Y956838D01*
X393284Y957023D01*
X392778Y957267D01*
X392302Y957566D01*
X391863Y957916D01*
X391466Y958313D01*
X391116Y958752D01*
X390817Y959228D01*
X390573Y959734D01*
X390388Y960264D01*
X390263Y960811D01*
X390200Y961369D01*
X390200Y961931D01*
X390263Y962489D01*
X390388Y963036D01*
X390573Y963566D01*
X390817Y964072D01*
X391116Y964548D01*
X391466Y964987D01*
X391863Y965384D01*
X392302Y965734D01*
X392778Y966033D01*
X393284Y966277D01*
X393814Y966462D01*
X394361Y966587D01*
X394919Y966650D01*
X395481Y966650D01*
X396039Y966587D01*
X396586Y966462D01*
X397116Y966277D01*
X397622Y966033D01*
X398098Y965734D01*
X398537Y965384D01*
X398934Y964987D01*
X399284Y964548D01*
X399583Y964072D01*
X399827Y963566D01*
X400012Y963036D01*
X400137Y962489D01*
X400200Y961931D01*
X400200Y961369D01*
X400200Y871369D02*
X400137Y870811D01*
X400012Y870264D01*
X399827Y869734D01*
X399583Y869228D01*
X399284Y868752D01*
X398934Y868313D01*
X398537Y867916D01*
X398098Y867566D01*
X397622Y867267D01*
X397116Y867023D01*
X396586Y866838D01*
X396039Y866713D01*
X395481Y866650D01*
X394919Y866650D01*
X394361Y866713D01*
X393814Y866838D01*
X393284Y867023D01*
X392778Y867267D01*
X392302Y867566D01*
X391863Y867916D01*
X391466Y868313D01*
X391116Y868752D01*
X390817Y869228D01*
X390573Y869734D01*
X390388Y870264D01*
X390263Y870811D01*
X390200Y871369D01*
X390200Y871931D01*
X390263Y872489D01*
X390388Y873036D01*
X390573Y873566D01*
X390817Y874072D01*
X391116Y874548D01*
X391466Y874987D01*
X391863Y875384D01*
X392302Y875734D01*
X392778Y876033D01*
X393284Y876277D01*
X393814Y876462D01*
X394361Y876587D01*
X394919Y876650D01*
X395481Y876650D01*
X396039Y876587D01*
X396586Y876462D01*
X397116Y876277D01*
X397622Y876033D01*
X398098Y875734D01*
X398537Y875384D01*
X398934Y874987D01*
X399284Y874548D01*
X399583Y874072D01*
X399827Y873566D01*
X400012Y873036D01*
X400137Y872489D01*
X400200Y871931D01*
X400200Y871369D01*
X490200Y961369D02*
X490137Y960811D01*
X490012Y960264D01*
X489827Y959734D01*
X489583Y959228D01*
X489284Y958752D01*
X488934Y958313D01*
X488537Y957916D01*
X488098Y957566D01*
X487622Y957267D01*
X487116Y957023D01*
X486586Y956838D01*
X486039Y956713D01*
X485481Y956650D01*
X484919Y956650D01*
X484361Y956713D01*
X483814Y956838D01*
X483284Y957023D01*
X482778Y957267D01*
X482302Y957566D01*
X481863Y957916D01*
X481466Y958313D01*
X481116Y958752D01*
X480817Y959228D01*
X480573Y959734D01*
X480388Y960264D01*
X480263Y960811D01*
X480200Y961369D01*
X480200Y961931D01*
X480263Y962489D01*
X480388Y963036D01*
X480573Y963566D01*
X480817Y964072D01*
X481116Y964548D01*
X481466Y964987D01*
X481863Y965384D01*
X482302Y965734D01*
X482778Y966033D01*
X483284Y966277D01*
X483814Y966462D01*
X484361Y966587D01*
X484919Y966650D01*
X485481Y966650D01*
X486039Y966587D01*
X486586Y966462D01*
X487116Y966277D01*
X487622Y966033D01*
X488098Y965734D01*
X488537Y965384D01*
X488934Y964987D01*
X489284Y964548D01*
X489583Y964072D01*
X489827Y963566D01*
X490012Y963036D01*
X490137Y962489D01*
X490200Y961931D01*
X490200Y961369D01*
X490200Y871369D02*
X490137Y870811D01*
X490012Y870264D01*
X489827Y869734D01*
X489583Y869228D01*
X489284Y868752D01*
X488934Y868313D01*
X488537Y867916D01*
X488098Y867566D01*
X487622Y867267D01*
X487116Y867023D01*
X486586Y866838D01*
X486039Y866713D01*
X485481Y866650D01*
X484919Y866650D01*
X484361Y866713D01*
X483814Y866838D01*
X483284Y867023D01*
X482778Y867267D01*
X482302Y867566D01*
X481863Y867916D01*
X481466Y868313D01*
X481116Y868752D01*
X480817Y869228D01*
X480573Y869734D01*
X480388Y870264D01*
X480263Y870811D01*
X480200Y871369D01*
X480200Y871931D01*
X480263Y872489D01*
X480388Y873036D01*
X480573Y873566D01*
X480817Y874072D01*
X481116Y874548D01*
X481466Y874987D01*
X481863Y875384D01*
X482302Y875734D01*
X482778Y876033D01*
X483284Y876277D01*
X483814Y876462D01*
X484361Y876587D01*
X484919Y876650D01*
X485481Y876650D01*
X486039Y876587D01*
X486586Y876462D01*
X487116Y876277D01*
X487622Y876033D01*
X488098Y875734D01*
X488537Y875384D01*
X488934Y874987D01*
X489284Y874548D01*
X489583Y874072D01*
X489827Y873566D01*
X490012Y873036D01*
X490137Y872489D01*
X490200Y871931D01*
X490200Y871369D01*
X40400Y805914D02*
X40324Y804846D01*
X40171Y803785D01*
X39943Y802738D01*
X39641Y801710D01*
X39267Y800706D01*
X38822Y799731D01*
X38308Y798791D01*
X37729Y797890D01*
X37087Y797032D01*
X36385Y796222D01*
X35628Y795465D01*
X34818Y794763D01*
X33960Y794121D01*
X33059Y793542D01*
X32119Y793028D01*
X31144Y792583D01*
X30140Y792209D01*
X29112Y791907D01*
X28065Y791679D01*
X27004Y791526D01*
X25936Y791450D01*
X24864Y791450D01*
X23796Y791526D01*
X22735Y791679D01*
X21688Y791907D01*
X20660Y792209D01*
X19656Y792583D01*
X18681Y793028D01*
X17741Y793542D01*
X16840Y794121D01*
X15982Y794763D01*
X15172Y795465D01*
X14415Y796222D01*
X13713Y797032D01*
X13071Y797890D01*
X12492Y798791D01*
X11978Y799731D01*
X11533Y800706D01*
X11159Y801710D01*
X10857Y802738D01*
X10629Y803785D01*
X10476Y804846D01*
X10400Y805914D01*
X10400Y806986D01*
X10476Y808054D01*
X10629Y809115D01*
X10857Y810162D01*
X11159Y811190D01*
X11533Y812194D01*
X11978Y813169D01*
X12492Y814109D01*
X13071Y815010D01*
X13713Y815868D01*
X14415Y816678D01*
X15172Y817435D01*
X15982Y818137D01*
X16840Y818779D01*
X17741Y819358D01*
X18681Y819872D01*
X19656Y820317D01*
X20660Y820691D01*
X21688Y820993D01*
X22735Y821221D01*
X23796Y821374D01*
X24864Y821450D01*
X25936Y821450D01*
X27004Y821374D01*
X28065Y821221D01*
X29112Y820993D01*
X30140Y820691D01*
X31144Y820317D01*
X32119Y819872D01*
X33059Y819358D01*
X33960Y818779D01*
X34818Y818137D01*
X35628Y817435D01*
X36385Y816678D01*
X37087Y815868D01*
X37729Y815010D01*
X38308Y814109D01*
X38822Y813169D01*
X39267Y812194D01*
X39641Y811190D01*
X39943Y810162D01*
X40171Y809115D01*
X40324Y808054D01*
X40400Y806986D01*
X40400Y805914D01*
X161050Y805914D02*
X160974Y804846D01*
X160821Y803785D01*
X160593Y802738D01*
X160291Y801710D01*
X159917Y800706D01*
X159472Y799731D01*
X158958Y798791D01*
X158379Y797890D01*
X157737Y797032D01*
X157035Y796222D01*
X156278Y795465D01*
X155468Y794763D01*
X154610Y794121D01*
X153709Y793542D01*
X152769Y793028D01*
X151794Y792583D01*
X150790Y792209D01*
X149762Y791907D01*
X148715Y791679D01*
X147654Y791526D01*
X146586Y791450D01*
X145514Y791450D01*
X144446Y791526D01*
X143385Y791679D01*
X142338Y791907D01*
X141310Y792209D01*
X140306Y792583D01*
X139331Y793028D01*
X138391Y793542D01*
X137490Y794121D01*
X136632Y794763D01*
X135822Y795465D01*
X135065Y796222D01*
X134363Y797032D01*
X133721Y797890D01*
X133142Y798791D01*
X132628Y799731D01*
X132183Y800706D01*
X131809Y801710D01*
X131507Y802738D01*
X131279Y803785D01*
X131126Y804846D01*
X131050Y805914D01*
X131050Y806986D01*
X131126Y808054D01*
X131279Y809115D01*
X131507Y810162D01*
X131809Y811190D01*
X132183Y812194D01*
X132628Y813169D01*
X133142Y814109D01*
X133721Y815010D01*
X134363Y815868D01*
X135065Y816678D01*
X135822Y817435D01*
X136632Y818137D01*
X137490Y818779D01*
X138391Y819358D01*
X139331Y819872D01*
X140306Y820317D01*
X141310Y820691D01*
X142338Y820993D01*
X143385Y821221D01*
X144446Y821374D01*
X145514Y821450D01*
X146586Y821450D01*
X147654Y821374D01*
X148715Y821221D01*
X149762Y820993D01*
X150790Y820691D01*
X151794Y820317D01*
X152769Y819872D01*
X153709Y819358D01*
X154610Y818779D01*
X155468Y818137D01*
X156278Y817435D01*
X157035Y816678D01*
X157737Y815868D01*
X158379Y815010D01*
X158958Y814109D01*
X159472Y813169D01*
X159917Y812194D01*
X160291Y811190D01*
X160593Y810162D01*
X160821Y809115D01*
X160974Y808054D01*
X161050Y806986D01*
X161050Y805914D01*
X218200Y805914D02*
X218124Y804846D01*
X217971Y803785D01*
X217743Y802738D01*
X217441Y801710D01*
X217067Y800706D01*
X216622Y799731D01*
X216108Y798791D01*
X215529Y797890D01*
X214887Y797032D01*
X214185Y796222D01*
X213428Y795465D01*
X212618Y794763D01*
X211760Y794121D01*
X210859Y793542D01*
X209919Y793028D01*
X208944Y792583D01*
X207940Y792209D01*
X206912Y791907D01*
X205865Y791679D01*
X204804Y791526D01*
X203736Y791450D01*
X202664Y791450D01*
X201596Y791526D01*
X200535Y791679D01*
X199488Y791907D01*
X198460Y792209D01*
X197456Y792583D01*
X196481Y793028D01*
X195541Y793542D01*
X194640Y794121D01*
X193782Y794763D01*
X192972Y795465D01*
X192215Y796222D01*
X191513Y797032D01*
X190871Y797890D01*
X190292Y798791D01*
X189778Y799731D01*
X189333Y800706D01*
X188959Y801710D01*
X188657Y802738D01*
X188429Y803785D01*
X188276Y804846D01*
X188200Y805914D01*
X188200Y806986D01*
X188276Y808054D01*
X188429Y809115D01*
X188657Y810162D01*
X188959Y811190D01*
X189333Y812194D01*
X189778Y813169D01*
X190292Y814109D01*
X190871Y815010D01*
X191513Y815868D01*
X192215Y816678D01*
X192972Y817435D01*
X193782Y818137D01*
X194640Y818779D01*
X195541Y819358D01*
X196481Y819872D01*
X197456Y820317D01*
X198460Y820691D01*
X199488Y820993D01*
X200535Y821221D01*
X201596Y821374D01*
X202664Y821450D01*
X203736Y821450D01*
X204804Y821374D01*
X205865Y821221D01*
X206912Y820993D01*
X207940Y820691D01*
X208944Y820317D01*
X209919Y819872D01*
X210859Y819358D01*
X211760Y818779D01*
X212618Y818137D01*
X213428Y817435D01*
X214185Y816678D01*
X214887Y815868D01*
X215529Y815010D01*
X216108Y814109D01*
X216622Y813169D01*
X217067Y812194D01*
X217441Y811190D01*
X217743Y810162D01*
X217971Y809115D01*
X218124Y808054D01*
X218200Y806986D01*
X218200Y805914D01*
X338850Y805914D02*
X338774Y804846D01*
X338621Y803785D01*
X338393Y802738D01*
X338091Y801710D01*
X337717Y800706D01*
X337272Y799731D01*
X336758Y798791D01*
X336179Y797890D01*
X335537Y797032D01*
X334835Y796222D01*
X334078Y795465D01*
X333268Y794763D01*
X332410Y794121D01*
X331509Y793542D01*
X330569Y793028D01*
X329594Y792583D01*
X328590Y792209D01*
X327562Y791907D01*
X326515Y791679D01*
X325454Y791526D01*
X324386Y791450D01*
X323314Y791450D01*
X322246Y791526D01*
X321185Y791679D01*
X320138Y791907D01*
X319110Y792209D01*
X318106Y792583D01*
X317131Y793028D01*
X316191Y793542D01*
X315290Y794121D01*
X314432Y794763D01*
X313622Y795465D01*
X312865Y796222D01*
X312163Y797032D01*
X311521Y797890D01*
X310942Y798791D01*
X310428Y799731D01*
X309983Y800706D01*
X309609Y801710D01*
X309307Y802738D01*
X309079Y803785D01*
X308926Y804846D01*
X308850Y805914D01*
X308850Y806986D01*
X308926Y808054D01*
X309079Y809115D01*
X309307Y810162D01*
X309609Y811190D01*
X309983Y812194D01*
X310428Y813169D01*
X310942Y814109D01*
X311521Y815010D01*
X312163Y815868D01*
X312865Y816678D01*
X313622Y817435D01*
X314432Y818137D01*
X315290Y818779D01*
X316191Y819358D01*
X317131Y819872D01*
X318106Y820317D01*
X319110Y820691D01*
X320138Y820993D01*
X321185Y821221D01*
X322246Y821374D01*
X323314Y821450D01*
X324386Y821450D01*
X325454Y821374D01*
X326515Y821221D01*
X327562Y820993D01*
X328590Y820691D01*
X329594Y820317D01*
X330569Y819872D01*
X331509Y819358D01*
X332410Y818779D01*
X333268Y818137D01*
X334078Y817435D01*
X334835Y816678D01*
X335537Y815868D01*
X336179Y815010D01*
X336758Y814109D01*
X337272Y813169D01*
X337717Y812194D01*
X338091Y811190D01*
X338393Y810162D01*
X338621Y809115D01*
X338774Y808054D01*
X338850Y806986D01*
X338850Y805914D01*
X396000Y805914D02*
X395924Y804846D01*
X395771Y803785D01*
X395543Y802738D01*
X395241Y801710D01*
X394867Y800706D01*
X394422Y799731D01*
X393908Y798791D01*
X393329Y797890D01*
X392687Y797032D01*
X391985Y796222D01*
X391228Y795465D01*
X390418Y794763D01*
X389560Y794121D01*
X388659Y793542D01*
X387719Y793028D01*
X386744Y792583D01*
X385740Y792209D01*
X384712Y791907D01*
X383665Y791679D01*
X382604Y791526D01*
X381536Y791450D01*
X380464Y791450D01*
X379396Y791526D01*
X378335Y791679D01*
X377288Y791907D01*
X376260Y792209D01*
X375256Y792583D01*
X374281Y793028D01*
X373341Y793542D01*
X372440Y794121D01*
X371582Y794763D01*
X370772Y795465D01*
X370015Y796222D01*
X369313Y797032D01*
X368671Y797890D01*
X368092Y798791D01*
X367578Y799731D01*
X367133Y800706D01*
X366759Y801710D01*
X366457Y802738D01*
X366229Y803785D01*
X366076Y804846D01*
X366000Y805914D01*
X366000Y806986D01*
X366076Y808054D01*
X366229Y809115D01*
X366457Y810162D01*
X366759Y811190D01*
X367133Y812194D01*
X367578Y813169D01*
X368092Y814109D01*
X368671Y815010D01*
X369313Y815868D01*
X370015Y816678D01*
X370772Y817435D01*
X371582Y818137D01*
X372440Y818779D01*
X373341Y819358D01*
X374281Y819872D01*
X375256Y820317D01*
X376260Y820691D01*
X377288Y820993D01*
X378335Y821221D01*
X379396Y821374D01*
X380464Y821450D01*
X381536Y821450D01*
X382604Y821374D01*
X383665Y821221D01*
X384712Y820993D01*
X385740Y820691D01*
X386744Y820317D01*
X387719Y819872D01*
X388659Y819358D01*
X389560Y818779D01*
X390418Y818137D01*
X391228Y817435D01*
X391985Y816678D01*
X392687Y815868D01*
X393329Y815010D01*
X393908Y814109D01*
X394422Y813169D01*
X394867Y812194D01*
X395241Y811190D01*
X395543Y810162D01*
X395771Y809115D01*
X395924Y808054D01*
X396000Y806986D01*
X396000Y805914D01*
X516650Y805914D02*
X516574Y804846D01*
X516421Y803785D01*
X516193Y802738D01*
X515891Y801710D01*
X515517Y800706D01*
X515072Y799731D01*
X514558Y798791D01*
X513979Y797890D01*
X513337Y797032D01*
X512635Y796222D01*
X511878Y795465D01*
X511068Y794763D01*
X510210Y794121D01*
X509309Y793542D01*
X508369Y793028D01*
X507394Y792583D01*
X506390Y792209D01*
X505362Y791907D01*
X504315Y791679D01*
X503254Y791526D01*
X502186Y791450D01*
X501114Y791450D01*
X500046Y791526D01*
X498985Y791679D01*
X497938Y791907D01*
X496910Y792209D01*
X495906Y792583D01*
X494931Y793028D01*
X493991Y793542D01*
X493090Y794121D01*
X492232Y794763D01*
X491422Y795465D01*
X490665Y796222D01*
X489963Y797032D01*
X489321Y797890D01*
X488742Y798791D01*
X488228Y799731D01*
X487783Y800706D01*
X487409Y801710D01*
X487107Y802738D01*
X486879Y803785D01*
X486726Y804846D01*
X486650Y805914D01*
X486650Y806986D01*
X486726Y808054D01*
X486879Y809115D01*
X487107Y810162D01*
X487409Y811190D01*
X487783Y812194D01*
X488228Y813169D01*
X488742Y814109D01*
X489321Y815010D01*
X489963Y815868D01*
X490665Y816678D01*
X491422Y817435D01*
X492232Y818137D01*
X493090Y818779D01*
X493991Y819358D01*
X494931Y819872D01*
X495906Y820317D01*
X496910Y820691D01*
X497938Y820993D01*
X498985Y821221D01*
X500046Y821374D01*
X501114Y821450D01*
X502186Y821450D01*
X503254Y821374D01*
X504315Y821221D01*
X505362Y820993D01*
X506390Y820691D01*
X507394Y820317D01*
X508369Y819872D01*
X509309Y819358D01*
X510210Y818779D01*
X511068Y818137D01*
X511878Y817435D01*
X512635Y816678D01*
X513337Y815868D01*
X513979Y815010D01*
X514558Y814109D01*
X515072Y813169D01*
X515517Y812194D01*
X515891Y811190D01*
X516193Y810162D01*
X516421Y809115D01*
X516574Y808054D01*
X516650Y806986D01*
X516650Y805914D01*
X293525Y916839D02*
X293453Y915367D01*
X293308Y913902D01*
X293092Y912445D01*
X292805Y911000D01*
X292447Y909571D01*
X292019Y908162D01*
X291523Y906775D01*
X290960Y905414D01*
X290330Y904083D01*
X289635Y902784D01*
X288878Y901520D01*
X288060Y900296D01*
X287183Y899113D01*
X286248Y897974D01*
X285259Y896883D01*
X284217Y895841D01*
X283126Y894852D01*
X281988Y893917D01*
X280804Y893040D01*
X279580Y892222D01*
X278316Y891465D01*
X277017Y890770D01*
X275686Y890140D01*
X274325Y889577D01*
X272938Y889081D01*
X271529Y888653D01*
X270100Y888295D01*
X268655Y888008D01*
X267198Y887792D01*
X265733Y887647D01*
X264261Y887575D01*
X262789Y887575D01*
X261317Y887647D01*
X259852Y887792D01*
X258395Y888008D01*
X256950Y888295D01*
X255521Y888653D01*
X254112Y889081D01*
X252725Y889577D01*
X251364Y890140D01*
X250033Y890770D01*
X248734Y891465D01*
X247470Y892222D01*
X246246Y893040D01*
X245063Y893917D01*
X243924Y894852D01*
X242833Y895841D01*
X241791Y896883D01*
X240802Y897974D01*
X239867Y899113D01*
X238990Y900296D01*
X238172Y901520D01*
X237415Y902784D01*
X236720Y904083D01*
X236090Y905414D01*
X235527Y906775D01*
X235031Y908162D01*
X234603Y909571D01*
X234245Y911000D01*
X233958Y912445D01*
X233742Y913902D01*
X233597Y915367D01*
X233525Y916839D01*
X233525Y918311D01*
X233597Y919783D01*
X233742Y921248D01*
X233958Y922705D01*
X234245Y924150D01*
X234603Y925579D01*
X235031Y926988D01*
X235527Y928375D01*
X236090Y929736D01*
X236720Y931067D01*
X237415Y932366D01*
X238172Y933630D01*
X238990Y934854D01*
X239867Y936038D01*
X240802Y937176D01*
X241791Y938267D01*
X242833Y939309D01*
X243924Y940298D01*
X245063Y941233D01*
X246246Y942110D01*
X247470Y942928D01*
X248734Y943685D01*
X250033Y944380D01*
X251364Y945010D01*
X252725Y945573D01*
X254112Y946069D01*
X255521Y946497D01*
X256950Y946855D01*
X258395Y947142D01*
X259852Y947358D01*
X261317Y947503D01*
X262789Y947575D01*
X264261Y947575D01*
X265733Y947503D01*
X267198Y947358D01*
X268655Y947142D01*
X270100Y946855D01*
X271529Y946497D01*
X272938Y946069D01*
X274325Y945573D01*
X275686Y945010D01*
X277017Y944380D01*
X278316Y943685D01*
X279580Y942928D01*
X280804Y942110D01*
X281988Y941233D01*
X283126Y940298D01*
X284217Y939309D01*
X285259Y938267D01*
X286248Y937176D01*
X287183Y936038D01*
X288060Y934854D01*
X288878Y933630D01*
X289635Y932366D01*
X290330Y931067D01*
X290960Y929736D01*
X291523Y928375D01*
X292019Y926988D01*
X292447Y925579D01*
X292805Y924150D01*
X293092Y922705D01*
X293308Y921248D01*
X293453Y919783D01*
X293525Y918311D01*
X293525Y916839D01*
X409400Y926864D02*
X409326Y926398D01*
X409180Y925948D01*
X408966Y925528D01*
X408688Y925146D01*
X408354Y924812D01*
X407972Y924534D01*
X407552Y924320D01*
X407103Y924174D01*
X406636Y924100D01*
X406164Y924100D01*
X405698Y924174D01*
X405248Y924320D01*
X404828Y924534D01*
X404446Y924812D01*
X404112Y925146D01*
X403834Y925528D01*
X403620Y925948D01*
X403474Y926398D01*
X403400Y926864D01*
X403400Y927336D01*
X403474Y927803D01*
X403620Y928252D01*
X403834Y928672D01*
X404112Y929054D01*
X404446Y929388D01*
X404828Y929666D01*
X405248Y929880D01*
X405698Y930026D01*
X406164Y930100D01*
X406636Y930100D01*
X407103Y930026D01*
X407552Y929880D01*
X407972Y929666D01*
X408354Y929388D01*
X408688Y929054D01*
X408966Y928672D01*
X409180Y928252D01*
X409326Y927803D01*
X409400Y927336D01*
X409400Y926864D01*
X422100Y917339D02*
X422026Y916873D01*
X421880Y916423D01*
X421666Y916003D01*
X421388Y915621D01*
X421054Y915287D01*
X420672Y915009D01*
X420252Y914795D01*
X419803Y914649D01*
X419336Y914575D01*
X418864Y914575D01*
X418398Y914649D01*
X417948Y914795D01*
X417528Y915009D01*
X417146Y915287D01*
X416812Y915621D01*
X416534Y916003D01*
X416320Y916423D01*
X416174Y916873D01*
X416100Y917339D01*
X416100Y917811D01*
X416174Y918278D01*
X416320Y918727D01*
X416534Y919147D01*
X416812Y919529D01*
X417146Y919863D01*
X417528Y920141D01*
X417948Y920355D01*
X418398Y920501D01*
X418864Y920575D01*
X419336Y920575D01*
X419803Y920501D01*
X420252Y920355D01*
X420672Y920141D01*
X421054Y919863D01*
X421388Y919529D01*
X421666Y919147D01*
X421880Y918727D01*
X422026Y918278D01*
X422100Y917811D01*
X422100Y917339D01*
X409400Y907814D02*
X409326Y907348D01*
X409180Y906898D01*
X408966Y906478D01*
X408688Y906096D01*
X408354Y905762D01*
X407972Y905484D01*
X407552Y905270D01*
X407103Y905124D01*
X406636Y905050D01*
X406164Y905050D01*
X405698Y905124D01*
X405248Y905270D01*
X404828Y905484D01*
X404446Y905762D01*
X404112Y906096D01*
X403834Y906478D01*
X403620Y906898D01*
X403474Y907348D01*
X403400Y907814D01*
X403400Y908286D01*
X403474Y908753D01*
X403620Y909202D01*
X403834Y909622D01*
X404112Y910004D01*
X404446Y910338D01*
X404828Y910616D01*
X405248Y910830D01*
X405698Y910976D01*
X406164Y911050D01*
X406636Y911050D01*
X407103Y910976D01*
X407552Y910830D01*
X407972Y910616D01*
X408354Y910338D01*
X408688Y910004D01*
X408966Y909622D01*
X409180Y909202D01*
X409326Y908753D01*
X409400Y908286D01*
X409400Y907814D01*
X415750Y895114D02*
X415676Y894648D01*
X415530Y894198D01*
X415316Y893778D01*
X415038Y893396D01*
X414704Y893062D01*
X414322Y892784D01*
X413902Y892570D01*
X413453Y892424D01*
X412986Y892350D01*
X412514Y892350D01*
X412048Y892424D01*
X411598Y892570D01*
X411178Y892784D01*
X410796Y893062D01*
X410462Y893396D01*
X410184Y893778D01*
X409970Y894198D01*
X409824Y894648D01*
X409750Y895114D01*
X409750Y895586D01*
X409824Y896053D01*
X409970Y896502D01*
X410184Y896922D01*
X410462Y897304D01*
X410796Y897638D01*
X411178Y897916D01*
X411598Y898130D01*
X412048Y898276D01*
X412514Y898350D01*
X412986Y898350D01*
X413453Y898276D01*
X413902Y898130D01*
X414322Y897916D01*
X414704Y897638D01*
X415038Y897304D01*
X415316Y896922D01*
X415530Y896502D01*
X415676Y896053D01*
X415750Y895586D01*
X415750Y895114D01*
X428450Y901464D02*
X428376Y900998D01*
X428230Y900548D01*
X428016Y900128D01*
X427738Y899746D01*
X427404Y899412D01*
X427022Y899134D01*
X426602Y898920D01*
X426153Y898774D01*
X425686Y898700D01*
X425214Y898700D01*
X424748Y898774D01*
X424298Y898920D01*
X423878Y899134D01*
X423496Y899412D01*
X423162Y899746D01*
X422884Y900128D01*
X422670Y900548D01*
X422524Y900998D01*
X422450Y901464D01*
X422450Y901936D01*
X422524Y902403D01*
X422670Y902852D01*
X422884Y903272D01*
X423162Y903654D01*
X423496Y903988D01*
X423878Y904266D01*
X424298Y904480D01*
X424748Y904626D01*
X425214Y904700D01*
X425686Y904700D01*
X426153Y904626D01*
X426602Y904480D01*
X427022Y904266D01*
X427404Y903988D01*
X427738Y903654D01*
X428016Y903272D01*
X428230Y902852D01*
X428376Y902403D01*
X428450Y901936D01*
X428450Y901464D01*
X428450Y885589D02*
X428376Y885123D01*
X428230Y884673D01*
X428016Y884253D01*
X427738Y883871D01*
X427404Y883537D01*
X427022Y883259D01*
X426602Y883045D01*
X426153Y882899D01*
X425686Y882825D01*
X425214Y882825D01*
X424748Y882899D01*
X424298Y883045D01*
X423878Y883259D01*
X423496Y883537D01*
X423162Y883871D01*
X422884Y884253D01*
X422670Y884673D01*
X422524Y885123D01*
X422450Y885589D01*
X422450Y886061D01*
X422524Y886528D01*
X422670Y886977D01*
X422884Y887397D01*
X423162Y887779D01*
X423496Y888113D01*
X423878Y888391D01*
X424298Y888605D01*
X424748Y888751D01*
X425214Y888825D01*
X425686Y888825D01*
X426153Y888751D01*
X426602Y888605D01*
X427022Y888391D01*
X427404Y888113D01*
X427738Y887779D01*
X428016Y887397D01*
X428230Y886977D01*
X428376Y886528D01*
X428450Y886061D01*
X428450Y885589D01*
X444325Y882414D02*
X444251Y881948D01*
X444105Y881498D01*
X443891Y881078D01*
X443613Y880696D01*
X443279Y880362D01*
X442897Y880084D01*
X442477Y879870D01*
X442028Y879724D01*
X441561Y879650D01*
X441089Y879650D01*
X440623Y879724D01*
X440173Y879870D01*
X439753Y880084D01*
X439371Y880362D01*
X439037Y880696D01*
X438759Y881078D01*
X438545Y881498D01*
X438399Y881948D01*
X438325Y882414D01*
X438325Y882886D01*
X438399Y883353D01*
X438545Y883802D01*
X438759Y884222D01*
X439037Y884604D01*
X439371Y884938D01*
X439753Y885216D01*
X440173Y885430D01*
X440623Y885576D01*
X441089Y885650D01*
X441561Y885650D01*
X442028Y885576D01*
X442477Y885430D01*
X442897Y885216D01*
X443279Y884938D01*
X443613Y884604D01*
X443891Y884222D01*
X444105Y883802D01*
X444251Y883353D01*
X444325Y882886D01*
X444325Y882414D01*
X444325Y901464D02*
X444251Y900998D01*
X444105Y900548D01*
X443891Y900128D01*
X443613Y899746D01*
X443279Y899412D01*
X442897Y899134D01*
X442477Y898920D01*
X442028Y898774D01*
X441561Y898700D01*
X441089Y898700D01*
X440623Y898774D01*
X440173Y898920D01*
X439753Y899134D01*
X439371Y899412D01*
X439037Y899746D01*
X438759Y900128D01*
X438545Y900548D01*
X438399Y900998D01*
X438325Y901464D01*
X438325Y901936D01*
X438399Y902403D01*
X438545Y902852D01*
X438759Y903272D01*
X439037Y903654D01*
X439371Y903988D01*
X439753Y904266D01*
X440173Y904480D01*
X440623Y904626D01*
X441089Y904700D01*
X441561Y904700D01*
X442028Y904626D01*
X442477Y904480D01*
X442897Y904266D01*
X443279Y903988D01*
X443613Y903654D01*
X443891Y903272D01*
X444105Y902852D01*
X444251Y902403D01*
X444325Y901936D01*
X444325Y901464D01*
X460200Y901464D02*
X460126Y900998D01*
X459980Y900548D01*
X459766Y900128D01*
X459488Y899746D01*
X459154Y899412D01*
X458772Y899134D01*
X458352Y898920D01*
X457903Y898774D01*
X457436Y898700D01*
X456964Y898700D01*
X456498Y898774D01*
X456048Y898920D01*
X455628Y899134D01*
X455246Y899412D01*
X454912Y899746D01*
X454634Y900128D01*
X454420Y900548D01*
X454274Y900998D01*
X454200Y901464D01*
X454200Y901936D01*
X454274Y902403D01*
X454420Y902852D01*
X454634Y903272D01*
X454912Y903654D01*
X455246Y903988D01*
X455628Y904266D01*
X456048Y904480D01*
X456498Y904626D01*
X456964Y904700D01*
X457436Y904700D01*
X457903Y904626D01*
X458352Y904480D01*
X458772Y904266D01*
X459154Y903988D01*
X459488Y903654D01*
X459766Y903272D01*
X459980Y902852D01*
X460126Y902403D01*
X460200Y901936D01*
X460200Y901464D01*
X460200Y885589D02*
X460126Y885123D01*
X459980Y884673D01*
X459766Y884253D01*
X459488Y883871D01*
X459154Y883537D01*
X458772Y883259D01*
X458352Y883045D01*
X457903Y882899D01*
X457436Y882825D01*
X456964Y882825D01*
X456498Y882899D01*
X456048Y883045D01*
X455628Y883259D01*
X455246Y883537D01*
X454912Y883871D01*
X454634Y884253D01*
X454420Y884673D01*
X454274Y885123D01*
X454200Y885589D01*
X454200Y886061D01*
X454274Y886528D01*
X454420Y886977D01*
X454634Y887397D01*
X454912Y887779D01*
X455246Y888113D01*
X455628Y888391D01*
X456048Y888605D01*
X456498Y888751D01*
X456964Y888825D01*
X457436Y888825D01*
X457903Y888751D01*
X458352Y888605D01*
X458772Y888391D01*
X459154Y888113D01*
X459488Y887779D01*
X459766Y887397D01*
X459980Y886977D01*
X460126Y886528D01*
X460200Y886061D01*
X460200Y885589D01*
X472900Y895114D02*
X472826Y894648D01*
X472680Y894198D01*
X472466Y893778D01*
X472188Y893396D01*
X471854Y893062D01*
X471472Y892784D01*
X471052Y892570D01*
X470603Y892424D01*
X470136Y892350D01*
X469664Y892350D01*
X469198Y892424D01*
X468748Y892570D01*
X468328Y892784D01*
X467946Y893062D01*
X467612Y893396D01*
X467334Y893778D01*
X467120Y894198D01*
X466974Y894648D01*
X466900Y895114D01*
X466900Y895586D01*
X466974Y896053D01*
X467120Y896502D01*
X467334Y896922D01*
X467612Y897304D01*
X467946Y897638D01*
X468328Y897916D01*
X468748Y898130D01*
X469198Y898276D01*
X469664Y898350D01*
X470136Y898350D01*
X470603Y898276D01*
X471052Y898130D01*
X471472Y897916D01*
X471854Y897638D01*
X472188Y897304D01*
X472466Y896922D01*
X472680Y896502D01*
X472826Y896053D01*
X472900Y895586D01*
X472900Y895114D01*
X479250Y907814D02*
X479176Y907348D01*
X479030Y906898D01*
X478816Y906478D01*
X478538Y906096D01*
X478204Y905762D01*
X477822Y905484D01*
X477402Y905270D01*
X476953Y905124D01*
X476486Y905050D01*
X476014Y905050D01*
X475548Y905124D01*
X475098Y905270D01*
X474678Y905484D01*
X474296Y905762D01*
X473962Y906096D01*
X473684Y906478D01*
X473470Y906898D01*
X473324Y907348D01*
X473250Y907814D01*
X473250Y908286D01*
X473324Y908753D01*
X473470Y909202D01*
X473684Y909622D01*
X473962Y910004D01*
X474296Y910338D01*
X474678Y910616D01*
X475098Y910830D01*
X475548Y910976D01*
X476014Y911050D01*
X476486Y911050D01*
X476953Y910976D01*
X477402Y910830D01*
X477822Y910616D01*
X478204Y910338D01*
X478538Y910004D01*
X478816Y909622D01*
X479030Y909202D01*
X479176Y908753D01*
X479250Y908286D01*
X479250Y907814D01*
X466550Y917339D02*
X466476Y916873D01*
X466330Y916423D01*
X466116Y916003D01*
X465838Y915621D01*
X465504Y915287D01*
X465122Y915009D01*
X464702Y914795D01*
X464253Y914649D01*
X463786Y914575D01*
X463314Y914575D01*
X462848Y914649D01*
X462398Y914795D01*
X461978Y915009D01*
X461596Y915287D01*
X461262Y915621D01*
X460984Y916003D01*
X460770Y916423D01*
X460624Y916873D01*
X460550Y917339D01*
X460550Y917811D01*
X460624Y918278D01*
X460770Y918727D01*
X460984Y919147D01*
X461262Y919529D01*
X461596Y919863D01*
X461978Y920141D01*
X462398Y920355D01*
X462848Y920501D01*
X463314Y920575D01*
X463786Y920575D01*
X464253Y920501D01*
X464702Y920355D01*
X465122Y920141D01*
X465504Y919863D01*
X465838Y919529D01*
X466116Y919147D01*
X466330Y918727D01*
X466476Y918278D01*
X466550Y917811D01*
X466550Y917339D01*
X479250Y926864D02*
X479176Y926398D01*
X479030Y925948D01*
X478816Y925528D01*
X478538Y925146D01*
X478204Y924812D01*
X477822Y924534D01*
X477402Y924320D01*
X476953Y924174D01*
X476486Y924100D01*
X476014Y924100D01*
X475548Y924174D01*
X475098Y924320D01*
X474678Y924534D01*
X474296Y924812D01*
X473962Y925146D01*
X473684Y925528D01*
X473470Y925948D01*
X473324Y926398D01*
X473250Y926864D01*
X473250Y927336D01*
X473324Y927803D01*
X473470Y928252D01*
X473684Y928672D01*
X473962Y929054D01*
X474296Y929388D01*
X474678Y929666D01*
X475098Y929880D01*
X475548Y930026D01*
X476014Y930100D01*
X476486Y930100D01*
X476953Y930026D01*
X477402Y929880D01*
X477822Y929666D01*
X478204Y929388D01*
X478538Y929054D01*
X478816Y928672D01*
X479030Y928252D01*
X479176Y927803D01*
X479250Y927336D01*
X479250Y926864D01*
X472900Y939564D02*
X472826Y939098D01*
X472680Y938648D01*
X472466Y938228D01*
X472188Y937846D01*
X471854Y937512D01*
X471472Y937234D01*
X471052Y937020D01*
X470603Y936874D01*
X470136Y936800D01*
X469664Y936800D01*
X469198Y936874D01*
X468748Y937020D01*
X468328Y937234D01*
X467946Y937512D01*
X467612Y937846D01*
X467334Y938228D01*
X467120Y938648D01*
X466974Y939098D01*
X466900Y939564D01*
X466900Y940036D01*
X466974Y940503D01*
X467120Y940952D01*
X467334Y941372D01*
X467612Y941754D01*
X467946Y942088D01*
X468328Y942366D01*
X468748Y942580D01*
X469198Y942726D01*
X469664Y942800D01*
X470136Y942800D01*
X470603Y942726D01*
X471052Y942580D01*
X471472Y942366D01*
X471854Y942088D01*
X472188Y941754D01*
X472466Y941372D01*
X472680Y940952D01*
X472826Y940503D01*
X472900Y940036D01*
X472900Y939564D01*
X460200Y933214D02*
X460126Y932748D01*
X459980Y932298D01*
X459766Y931878D01*
X459488Y931496D01*
X459154Y931162D01*
X458772Y930884D01*
X458352Y930670D01*
X457903Y930524D01*
X457436Y930450D01*
X456964Y930450D01*
X456498Y930524D01*
X456048Y930670D01*
X455628Y930884D01*
X455246Y931162D01*
X454912Y931496D01*
X454634Y931878D01*
X454420Y932298D01*
X454274Y932748D01*
X454200Y933214D01*
X454200Y933686D01*
X454274Y934153D01*
X454420Y934602D01*
X454634Y935022D01*
X454912Y935404D01*
X455246Y935738D01*
X455628Y936016D01*
X456048Y936230D01*
X456498Y936376D01*
X456964Y936450D01*
X457436Y936450D01*
X457903Y936376D01*
X458352Y936230D01*
X458772Y936016D01*
X459154Y935738D01*
X459488Y935404D01*
X459766Y935022D01*
X459980Y934602D01*
X460126Y934153D01*
X460200Y933686D01*
X460200Y933214D01*
X444325Y933214D02*
X444251Y932748D01*
X444105Y932298D01*
X443891Y931878D01*
X443613Y931496D01*
X443279Y931162D01*
X442897Y930884D01*
X442477Y930670D01*
X442028Y930524D01*
X441561Y930450D01*
X441089Y930450D01*
X440623Y930524D01*
X440173Y930670D01*
X439753Y930884D01*
X439371Y931162D01*
X439037Y931496D01*
X438759Y931878D01*
X438545Y932298D01*
X438399Y932748D01*
X438325Y933214D01*
X438325Y933686D01*
X438399Y934153D01*
X438545Y934602D01*
X438759Y935022D01*
X439037Y935404D01*
X439371Y935738D01*
X439753Y936016D01*
X440173Y936230D01*
X440623Y936376D01*
X441089Y936450D01*
X441561Y936450D01*
X442028Y936376D01*
X442477Y936230D01*
X442897Y936016D01*
X443279Y935738D01*
X443613Y935404D01*
X443891Y935022D01*
X444105Y934602D01*
X444251Y934153D01*
X444325Y933686D01*
X444325Y933214D01*
X428450Y933214D02*
X428376Y932748D01*
X428230Y932298D01*
X428016Y931878D01*
X427738Y931496D01*
X427404Y931162D01*
X427022Y930884D01*
X426602Y930670D01*
X426153Y930524D01*
X425686Y930450D01*
X425214Y930450D01*
X424748Y930524D01*
X424298Y930670D01*
X423878Y930884D01*
X423496Y931162D01*
X423162Y931496D01*
X422884Y931878D01*
X422670Y932298D01*
X422524Y932748D01*
X422450Y933214D01*
X422450Y933686D01*
X422524Y934153D01*
X422670Y934602D01*
X422884Y935022D01*
X423162Y935404D01*
X423496Y935738D01*
X423878Y936016D01*
X424298Y936230D01*
X424748Y936376D01*
X425214Y936450D01*
X425686Y936450D01*
X426153Y936376D01*
X426602Y936230D01*
X427022Y936016D01*
X427404Y935738D01*
X427738Y935404D01*
X428016Y935022D01*
X428230Y934602D01*
X428376Y934153D01*
X428450Y933686D01*
X428450Y933214D01*
X415750Y939564D02*
X415676Y939098D01*
X415530Y938648D01*
X415316Y938228D01*
X415038Y937846D01*
X414704Y937512D01*
X414322Y937234D01*
X413902Y937020D01*
X413453Y936874D01*
X412986Y936800D01*
X412514Y936800D01*
X412048Y936874D01*
X411598Y937020D01*
X411178Y937234D01*
X410796Y937512D01*
X410462Y937846D01*
X410184Y938228D01*
X409970Y938648D01*
X409824Y939098D01*
X409750Y939564D01*
X409750Y940036D01*
X409824Y940503D01*
X409970Y940952D01*
X410184Y941372D01*
X410462Y941754D01*
X410796Y942088D01*
X411178Y942366D01*
X411598Y942580D01*
X412048Y942726D01*
X412514Y942800D01*
X412986Y942800D01*
X413453Y942726D01*
X413902Y942580D01*
X414322Y942366D01*
X414704Y942088D01*
X415038Y941754D01*
X415316Y941372D01*
X415530Y940952D01*
X415676Y940503D01*
X415750Y940036D01*
X415750Y939564D01*
X428450Y949089D02*
X428376Y948623D01*
X428230Y948173D01*
X428016Y947753D01*
X427738Y947371D01*
X427404Y947037D01*
X427022Y946759D01*
X426602Y946545D01*
X426153Y946399D01*
X425686Y946325D01*
X425214Y946325D01*
X424748Y946399D01*
X424298Y946545D01*
X423878Y946759D01*
X423496Y947037D01*
X423162Y947371D01*
X422884Y947753D01*
X422670Y948173D01*
X422524Y948623D01*
X422450Y949089D01*
X422450Y949561D01*
X422524Y950028D01*
X422670Y950477D01*
X422884Y950897D01*
X423162Y951279D01*
X423496Y951613D01*
X423878Y951891D01*
X424298Y952105D01*
X424748Y952251D01*
X425214Y952325D01*
X425686Y952325D01*
X426153Y952251D01*
X426602Y952105D01*
X427022Y951891D01*
X427404Y951613D01*
X427738Y951279D01*
X428016Y950897D01*
X428230Y950477D01*
X428376Y950028D01*
X428450Y949561D01*
X428450Y949089D01*
X444325Y952264D02*
X444251Y951798D01*
X444105Y951348D01*
X443891Y950928D01*
X443613Y950546D01*
X443279Y950212D01*
X442897Y949934D01*
X442477Y949720D01*
X442028Y949574D01*
X441561Y949500D01*
X441089Y949500D01*
X440623Y949574D01*
X440173Y949720D01*
X439753Y949934D01*
X439371Y950212D01*
X439037Y950546D01*
X438759Y950928D01*
X438545Y951348D01*
X438399Y951798D01*
X438325Y952264D01*
X438325Y952736D01*
X438399Y953203D01*
X438545Y953652D01*
X438759Y954072D01*
X439037Y954454D01*
X439371Y954788D01*
X439753Y955066D01*
X440173Y955280D01*
X440623Y955426D01*
X441089Y955500D01*
X441561Y955500D01*
X442028Y955426D01*
X442477Y955280D01*
X442897Y955066D01*
X443279Y954788D01*
X443613Y954454D01*
X443891Y954072D01*
X444105Y953652D01*
X444251Y953203D01*
X444325Y952736D01*
X444325Y952264D01*
X460200Y949089D02*
X460126Y948623D01*
X459980Y948173D01*
X459766Y947753D01*
X459488Y947371D01*
X459154Y947037D01*
X458772Y946759D01*
X458352Y946545D01*
X457903Y946399D01*
X457436Y946325D01*
X456964Y946325D01*
X456498Y946399D01*
X456048Y946545D01*
X455628Y946759D01*
X455246Y947037D01*
X454912Y947371D01*
X454634Y947753D01*
X454420Y948173D01*
X454274Y948623D01*
X454200Y949089D01*
X454200Y949561D01*
X454274Y950028D01*
X454420Y950477D01*
X454634Y950897D01*
X454912Y951279D01*
X455246Y951613D01*
X455628Y951891D01*
X456048Y952105D01*
X456498Y952251D01*
X456964Y952325D01*
X457436Y952325D01*
X457903Y952251D01*
X458352Y952105D01*
X458772Y951891D01*
X459154Y951613D01*
X459488Y951279D01*
X459766Y950897D01*
X459980Y950477D01*
X460126Y950028D01*
X460200Y949561D01*
X460200Y949089D01*
X430363Y630069D02*
X430300Y629511D01*
X430175Y628964D01*
X429989Y628434D01*
X429746Y627928D01*
X429447Y627452D01*
X429097Y627013D01*
X428699Y626616D01*
X428260Y626266D01*
X427785Y625967D01*
X427279Y625723D01*
X426749Y625538D01*
X426201Y625413D01*
X425643Y625350D01*
X425082Y625350D01*
X424524Y625413D01*
X423976Y625538D01*
X423446Y625723D01*
X422940Y625967D01*
X422465Y626266D01*
X422026Y626616D01*
X421628Y627013D01*
X421278Y627452D01*
X420980Y627928D01*
X420736Y628434D01*
X420550Y628964D01*
X420425Y629511D01*
X420363Y630069D01*
X420363Y630631D01*
X420425Y631189D01*
X420550Y631736D01*
X420736Y632266D01*
X420980Y632772D01*
X421278Y633248D01*
X421628Y633687D01*
X422026Y634084D01*
X422465Y634434D01*
X422940Y634733D01*
X423446Y634977D01*
X423976Y635162D01*
X424524Y635287D01*
X425082Y635350D01*
X425643Y635350D01*
X426201Y635287D01*
X426749Y635162D01*
X427279Y634977D01*
X427785Y634733D01*
X428260Y634434D01*
X428699Y634084D01*
X429097Y633687D01*
X429447Y633248D01*
X429746Y632772D01*
X429989Y632266D01*
X430175Y631736D01*
X430300Y631189D01*
X430363Y630631D01*
X430363Y630069D01*
X519263Y630069D02*
X519200Y629511D01*
X519075Y628964D01*
X518889Y628434D01*
X518646Y627928D01*
X518347Y627452D01*
X517997Y627013D01*
X517599Y626616D01*
X517160Y626266D01*
X516685Y625967D01*
X516179Y625723D01*
X515649Y625538D01*
X515101Y625413D01*
X514543Y625350D01*
X513982Y625350D01*
X513424Y625413D01*
X512876Y625538D01*
X512346Y625723D01*
X511840Y625967D01*
X511365Y626266D01*
X510926Y626616D01*
X510528Y627013D01*
X510178Y627452D01*
X509880Y627928D01*
X509636Y628434D01*
X509450Y628964D01*
X509325Y629511D01*
X509263Y630069D01*
X509263Y630631D01*
X509325Y631189D01*
X509450Y631736D01*
X509636Y632266D01*
X509880Y632772D01*
X510178Y633248D01*
X510528Y633687D01*
X510926Y634084D01*
X511365Y634434D01*
X511840Y634733D01*
X512346Y634977D01*
X512876Y635162D01*
X513424Y635287D01*
X513982Y635350D01*
X514543Y635350D01*
X515101Y635287D01*
X515649Y635162D01*
X516179Y634977D01*
X516685Y634733D01*
X517160Y634434D01*
X517599Y634084D01*
X517997Y633687D01*
X518347Y633248D01*
X518646Y632772D01*
X518889Y632266D01*
X519075Y631736D01*
X519200Y631189D01*
X519263Y630631D01*
X519263Y630069D01*
X519263Y718969D02*
X519200Y718411D01*
X519075Y717864D01*
X518889Y717334D01*
X518646Y716828D01*
X518347Y716352D01*
X517997Y715913D01*
X517599Y715516D01*
X517160Y715166D01*
X516685Y714867D01*
X516179Y714623D01*
X515649Y714438D01*
X515101Y714313D01*
X514543Y714250D01*
X513982Y714250D01*
X513424Y714313D01*
X512876Y714438D01*
X512346Y714623D01*
X511840Y714867D01*
X511365Y715166D01*
X510926Y715516D01*
X510528Y715913D01*
X510178Y716352D01*
X509880Y716828D01*
X509636Y717334D01*
X509450Y717864D01*
X509325Y718411D01*
X509263Y718969D01*
X509263Y719531D01*
X509325Y720089D01*
X509450Y720636D01*
X509636Y721166D01*
X509880Y721672D01*
X510178Y722148D01*
X510528Y722587D01*
X510926Y722984D01*
X511365Y723334D01*
X511840Y723633D01*
X512346Y723877D01*
X512876Y724062D01*
X513424Y724187D01*
X513982Y724250D01*
X514543Y724250D01*
X515101Y724187D01*
X515649Y724062D01*
X516179Y723877D01*
X516685Y723633D01*
X517160Y723334D01*
X517599Y722984D01*
X517997Y722587D01*
X518347Y722148D01*
X518646Y721672D01*
X518889Y721166D01*
X519075Y720636D01*
X519200Y720089D01*
X519263Y719531D01*
X519263Y718969D01*
X430363Y718969D02*
X430300Y718411D01*
X430175Y717864D01*
X429989Y717334D01*
X429746Y716828D01*
X429447Y716352D01*
X429097Y715913D01*
X428699Y715516D01*
X428260Y715166D01*
X427785Y714867D01*
X427279Y714623D01*
X426749Y714438D01*
X426201Y714313D01*
X425643Y714250D01*
X425082Y714250D01*
X424524Y714313D01*
X423976Y714438D01*
X423446Y714623D01*
X422940Y714867D01*
X422465Y715166D01*
X422026Y715516D01*
X421628Y715913D01*
X421278Y716352D01*
X420980Y716828D01*
X420736Y717334D01*
X420550Y717864D01*
X420425Y718411D01*
X420363Y718969D01*
X420363Y719531D01*
X420425Y720089D01*
X420550Y720636D01*
X420736Y721166D01*
X420980Y721672D01*
X421278Y722148D01*
X421628Y722587D01*
X422026Y722984D01*
X422465Y723334D01*
X422940Y723633D01*
X423446Y723877D01*
X423976Y724062D01*
X424524Y724187D01*
X425082Y724250D01*
X425643Y724250D01*
X426201Y724187D01*
X426749Y724062D01*
X427279Y723877D01*
X427785Y723633D01*
X428260Y723334D01*
X428699Y722984D01*
X429097Y722587D01*
X429447Y722148D01*
X429746Y721672D01*
X429989Y721166D01*
X430175Y720636D01*
X430300Y720089D01*
X430363Y719531D01*
X430363Y718969D01*
X519263Y312569D02*
X519200Y312011D01*
X519075Y311464D01*
X518889Y310934D01*
X518646Y310428D01*
X518347Y309952D01*
X517997Y309513D01*
X517599Y309116D01*
X517160Y308766D01*
X516685Y308467D01*
X516179Y308223D01*
X515649Y308038D01*
X515101Y307913D01*
X514543Y307850D01*
X513982Y307850D01*
X513424Y307913D01*
X512876Y308038D01*
X512346Y308223D01*
X511840Y308467D01*
X511365Y308766D01*
X510926Y309116D01*
X510528Y309513D01*
X510178Y309952D01*
X509880Y310428D01*
X509636Y310934D01*
X509450Y311464D01*
X509325Y312011D01*
X509263Y312569D01*
X509263Y313131D01*
X509325Y313689D01*
X509450Y314236D01*
X509636Y314766D01*
X509880Y315272D01*
X510178Y315748D01*
X510528Y316187D01*
X510926Y316584D01*
X511365Y316934D01*
X511840Y317233D01*
X512346Y317477D01*
X512876Y317662D01*
X513424Y317787D01*
X513982Y317850D01*
X514543Y317850D01*
X515101Y317787D01*
X515649Y317662D01*
X516179Y317477D01*
X516685Y317233D01*
X517160Y316934D01*
X517599Y316584D01*
X517997Y316187D01*
X518347Y315748D01*
X518646Y315272D01*
X518889Y314766D01*
X519075Y314236D01*
X519200Y313689D01*
X519263Y313131D01*
X519263Y312569D01*
X519263Y401469D02*
X519200Y400911D01*
X519075Y400364D01*
X518889Y399834D01*
X518646Y399328D01*
X518347Y398852D01*
X517997Y398413D01*
X517599Y398016D01*
X517160Y397666D01*
X516685Y397367D01*
X516179Y397123D01*
X515649Y396938D01*
X515101Y396813D01*
X514543Y396750D01*
X513982Y396750D01*
X513424Y396813D01*
X512876Y396938D01*
X512346Y397123D01*
X511840Y397367D01*
X511365Y397666D01*
X510926Y398016D01*
X510528Y398413D01*
X510178Y398852D01*
X509880Y399328D01*
X509636Y399834D01*
X509450Y400364D01*
X509325Y400911D01*
X509263Y401469D01*
X509263Y402031D01*
X509325Y402589D01*
X509450Y403136D01*
X509636Y403666D01*
X509880Y404172D01*
X510178Y404648D01*
X510528Y405087D01*
X510926Y405484D01*
X511365Y405834D01*
X511840Y406133D01*
X512346Y406377D01*
X512876Y406562D01*
X513424Y406687D01*
X513982Y406750D01*
X514543Y406750D01*
X515101Y406687D01*
X515649Y406562D01*
X516179Y406377D01*
X516685Y406133D01*
X517160Y405834D01*
X517599Y405484D01*
X517997Y405087D01*
X518347Y404648D01*
X518646Y404172D01*
X518889Y403666D01*
X519075Y403136D01*
X519200Y402589D01*
X519263Y402031D01*
X519263Y401469D01*
X430363Y312569D02*
X430300Y312011D01*
X430175Y311464D01*
X429989Y310934D01*
X429746Y310428D01*
X429447Y309952D01*
X429097Y309513D01*
X428699Y309116D01*
X428260Y308766D01*
X427785Y308467D01*
X427279Y308223D01*
X426749Y308038D01*
X426201Y307913D01*
X425643Y307850D01*
X425082Y307850D01*
X424524Y307913D01*
X423976Y308038D01*
X423446Y308223D01*
X422940Y308467D01*
X422465Y308766D01*
X422026Y309116D01*
X421628Y309513D01*
X421278Y309952D01*
X420980Y310428D01*
X420736Y310934D01*
X420550Y311464D01*
X420425Y312011D01*
X420363Y312569D01*
X420363Y313131D01*
X420425Y313689D01*
X420550Y314236D01*
X420736Y314766D01*
X420980Y315272D01*
X421278Y315748D01*
X421628Y316187D01*
X422026Y316584D01*
X422465Y316934D01*
X422940Y317233D01*
X423446Y317477D01*
X423976Y317662D01*
X424524Y317787D01*
X425082Y317850D01*
X425643Y317850D01*
X426201Y317787D01*
X426749Y317662D01*
X427279Y317477D01*
X427785Y317233D01*
X428260Y316934D01*
X428699Y316584D01*
X429097Y316187D01*
X429447Y315748D01*
X429746Y315272D01*
X429989Y314766D01*
X430175Y314236D01*
X430300Y313689D01*
X430363Y313131D01*
X430363Y312569D01*
X430363Y401469D02*
X430300Y400911D01*
X430175Y400364D01*
X429989Y399834D01*
X429746Y399328D01*
X429447Y398852D01*
X429097Y398413D01*
X428699Y398016D01*
X428260Y397666D01*
X427785Y397367D01*
X427279Y397123D01*
X426749Y396938D01*
X426201Y396813D01*
X425643Y396750D01*
X425082Y396750D01*
X424524Y396813D01*
X423976Y396938D01*
X423446Y397123D01*
X422940Y397367D01*
X422465Y397666D01*
X422026Y398016D01*
X421628Y398413D01*
X421278Y398852D01*
X420980Y399328D01*
X420736Y399834D01*
X420550Y400364D01*
X420425Y400911D01*
X420363Y401469D01*
X420363Y402031D01*
X420425Y402589D01*
X420550Y403136D01*
X420736Y403666D01*
X420980Y404172D01*
X421278Y404648D01*
X421628Y405087D01*
X422026Y405484D01*
X422465Y405834D01*
X422940Y406133D01*
X423446Y406377D01*
X423976Y406562D01*
X424524Y406687D01*
X425082Y406750D01*
X425643Y406750D01*
X426201Y406687D01*
X426749Y406562D01*
X427279Y406377D01*
X427785Y406133D01*
X428260Y405834D01*
X428699Y405484D01*
X429097Y405087D01*
X429447Y404648D01*
X429746Y404172D01*
X429989Y403666D01*
X430175Y403136D01*
X430300Y402589D01*
X430363Y402031D01*
X430363Y401469D01*
X573800Y805914D02*
X573724Y804846D01*
X573571Y803785D01*
X573343Y802738D01*
X573041Y801710D01*
X572667Y800706D01*
X572222Y799731D01*
X571708Y798791D01*
X571129Y797890D01*
X570487Y797032D01*
X569785Y796222D01*
X569028Y795465D01*
X568218Y794763D01*
X567360Y794121D01*
X566459Y793542D01*
X565519Y793028D01*
X564544Y792583D01*
X563540Y792209D01*
X562512Y791907D01*
X561465Y791679D01*
X560404Y791526D01*
X559336Y791450D01*
X558264Y791450D01*
X557196Y791526D01*
X556135Y791679D01*
X555088Y791907D01*
X554060Y792209D01*
X553056Y792583D01*
X552081Y793028D01*
X551141Y793542D01*
X550240Y794121D01*
X549382Y794763D01*
X548572Y795465D01*
X547815Y796222D01*
X547113Y797032D01*
X546471Y797890D01*
X545892Y798791D01*
X545378Y799731D01*
X544933Y800706D01*
X544559Y801710D01*
X544257Y802738D01*
X544029Y803785D01*
X543876Y804846D01*
X543800Y805914D01*
X543800Y806986D01*
X543876Y808054D01*
X544029Y809115D01*
X544257Y810162D01*
X544559Y811190D01*
X544933Y812194D01*
X545378Y813169D01*
X545892Y814109D01*
X546471Y815010D01*
X547113Y815868D01*
X547815Y816678D01*
X548572Y817435D01*
X549382Y818137D01*
X550240Y818779D01*
X551141Y819358D01*
X552081Y819872D01*
X553056Y820317D01*
X554060Y820691D01*
X555088Y820993D01*
X556135Y821221D01*
X557196Y821374D01*
X558264Y821450D01*
X559336Y821450D01*
X560404Y821374D01*
X561465Y821221D01*
X562512Y820993D01*
X563540Y820691D01*
X564544Y820317D01*
X565519Y819872D01*
X566459Y819358D01*
X567360Y818779D01*
X568218Y818137D01*
X569028Y817435D01*
X569785Y816678D01*
X570487Y815868D01*
X571129Y815010D01*
X571708Y814109D01*
X572222Y813169D01*
X572667Y812194D01*
X573041Y811190D01*
X573343Y810162D01*
X573571Y809115D01*
X573724Y808054D01*
X573800Y806986D01*
X573800Y805914D01*
X694450Y805914D02*
X694374Y804846D01*
X694221Y803785D01*
X693993Y802738D01*
X693691Y801710D01*
X693317Y800706D01*
X692872Y799731D01*
X692358Y798791D01*
X691779Y797890D01*
X691137Y797032D01*
X690435Y796222D01*
X689678Y795465D01*
X688868Y794763D01*
X688010Y794121D01*
X687109Y793542D01*
X686169Y793028D01*
X685194Y792583D01*
X684190Y792209D01*
X683162Y791907D01*
X682115Y791679D01*
X681054Y791526D01*
X679986Y791450D01*
X678914Y791450D01*
X677846Y791526D01*
X676785Y791679D01*
X675738Y791907D01*
X674710Y792209D01*
X673706Y792583D01*
X672731Y793028D01*
X671791Y793542D01*
X670890Y794121D01*
X670032Y794763D01*
X669222Y795465D01*
X668465Y796222D01*
X667763Y797032D01*
X667121Y797890D01*
X666542Y798791D01*
X666028Y799731D01*
X665583Y800706D01*
X665209Y801710D01*
X664907Y802738D01*
X664679Y803785D01*
X664526Y804846D01*
X664450Y805914D01*
X664450Y806986D01*
X664526Y808054D01*
X664679Y809115D01*
X664907Y810162D01*
X665209Y811190D01*
X665583Y812194D01*
X666028Y813169D01*
X666542Y814109D01*
X667121Y815010D01*
X667763Y815868D01*
X668465Y816678D01*
X669222Y817435D01*
X670032Y818137D01*
X670890Y818779D01*
X671791Y819358D01*
X672731Y819872D01*
X673706Y820317D01*
X674710Y820691D01*
X675738Y820993D01*
X676785Y821221D01*
X677846Y821374D01*
X678914Y821450D01*
X679986Y821450D01*
X681054Y821374D01*
X682115Y821221D01*
X683162Y820993D01*
X684190Y820691D01*
X685194Y820317D01*
X686169Y819872D01*
X687109Y819358D01*
X688010Y818779D01*
X688868Y818137D01*
X689678Y817435D01*
X690435Y816678D01*
X691137Y815868D01*
X691779Y815010D01*
X692358Y814109D01*
X692872Y813169D01*
X693317Y812194D01*
X693691Y811190D01*
X693993Y810162D01*
X694221Y809115D01*
X694374Y808054D01*
X694450Y806986D01*
X694450Y805914D01*
X578000Y961369D02*
X577937Y960811D01*
X577812Y960264D01*
X577627Y959734D01*
X577383Y959228D01*
X577084Y958752D01*
X576734Y958313D01*
X576337Y957916D01*
X575898Y957566D01*
X575422Y957267D01*
X574916Y957023D01*
X574386Y956838D01*
X573839Y956713D01*
X573281Y956650D01*
X572719Y956650D01*
X572161Y956713D01*
X571614Y956838D01*
X571084Y957023D01*
X570578Y957267D01*
X570102Y957566D01*
X569663Y957916D01*
X569266Y958313D01*
X568916Y958752D01*
X568617Y959228D01*
X568373Y959734D01*
X568188Y960264D01*
X568063Y960811D01*
X568000Y961369D01*
X568000Y961931D01*
X568063Y962489D01*
X568188Y963036D01*
X568373Y963566D01*
X568617Y964072D01*
X568916Y964548D01*
X569266Y964987D01*
X569663Y965384D01*
X570102Y965734D01*
X570578Y966033D01*
X571084Y966277D01*
X571614Y966462D01*
X572161Y966587D01*
X572719Y966650D01*
X573281Y966650D01*
X573839Y966587D01*
X574386Y966462D01*
X574916Y966277D01*
X575422Y966033D01*
X575898Y965734D01*
X576337Y965384D01*
X576734Y964987D01*
X577084Y964548D01*
X577383Y964072D01*
X577627Y963566D01*
X577812Y963036D01*
X577937Y962489D01*
X578000Y961931D01*
X578000Y961369D01*
X578000Y871369D02*
X577937Y870811D01*
X577812Y870264D01*
X577627Y869734D01*
X577383Y869228D01*
X577084Y868752D01*
X576734Y868313D01*
X576337Y867916D01*
X575898Y867566D01*
X575422Y867267D01*
X574916Y867023D01*
X574386Y866838D01*
X573839Y866713D01*
X573281Y866650D01*
X572719Y866650D01*
X572161Y866713D01*
X571614Y866838D01*
X571084Y867023D01*
X570578Y867267D01*
X570102Y867566D01*
X569663Y867916D01*
X569266Y868313D01*
X568916Y868752D01*
X568617Y869228D01*
X568373Y869734D01*
X568188Y870264D01*
X568063Y870811D01*
X568000Y871369D01*
X568000Y871931D01*
X568063Y872489D01*
X568188Y873036D01*
X568373Y873566D01*
X568617Y874072D01*
X568916Y874548D01*
X569266Y874987D01*
X569663Y875384D01*
X570102Y875734D01*
X570578Y876033D01*
X571084Y876277D01*
X571614Y876462D01*
X572161Y876587D01*
X572719Y876650D01*
X573281Y876650D01*
X573839Y876587D01*
X574386Y876462D01*
X574916Y876277D01*
X575422Y876033D01*
X575898Y875734D01*
X576337Y875384D01*
X576734Y874987D01*
X577084Y874548D01*
X577383Y874072D01*
X577627Y873566D01*
X577812Y873036D01*
X577937Y872489D01*
X578000Y871931D01*
X578000Y871369D01*
X668000Y961369D02*
X667937Y960811D01*
X667812Y960264D01*
X667627Y959734D01*
X667383Y959228D01*
X667084Y958752D01*
X666734Y958313D01*
X666337Y957916D01*
X665898Y957566D01*
X665422Y957267D01*
X664916Y957023D01*
X664386Y956838D01*
X663839Y956713D01*
X663281Y956650D01*
X662719Y956650D01*
X662161Y956713D01*
X661614Y956838D01*
X661084Y957023D01*
X660578Y957267D01*
X660102Y957566D01*
X659663Y957916D01*
X659266Y958313D01*
X658916Y958752D01*
X658617Y959228D01*
X658373Y959734D01*
X658188Y960264D01*
X658063Y960811D01*
X658000Y961369D01*
X658000Y961931D01*
X658063Y962489D01*
X658188Y963036D01*
X658373Y963566D01*
X658617Y964072D01*
X658916Y964548D01*
X659266Y964987D01*
X659663Y965384D01*
X660102Y965734D01*
X660578Y966033D01*
X661084Y966277D01*
X661614Y966462D01*
X662161Y966587D01*
X662719Y966650D01*
X663281Y966650D01*
X663839Y966587D01*
X664386Y966462D01*
X664916Y966277D01*
X665422Y966033D01*
X665898Y965734D01*
X666337Y965384D01*
X666734Y964987D01*
X667084Y964548D01*
X667383Y964072D01*
X667627Y963566D01*
X667812Y963036D01*
X667937Y962489D01*
X668000Y961931D01*
X668000Y961369D01*
X668000Y871369D02*
X667937Y870811D01*
X667812Y870264D01*
X667627Y869734D01*
X667383Y869228D01*
X667084Y868752D01*
X666734Y868313D01*
X666337Y867916D01*
X665898Y867566D01*
X665422Y867267D01*
X664916Y867023D01*
X664386Y866838D01*
X663839Y866713D01*
X663281Y866650D01*
X662719Y866650D01*
X662161Y866713D01*
X661614Y866838D01*
X661084Y867023D01*
X660578Y867267D01*
X660102Y867566D01*
X659663Y867916D01*
X659266Y868313D01*
X658916Y868752D01*
X658617Y869228D01*
X658373Y869734D01*
X658188Y870264D01*
X658063Y870811D01*
X658000Y871369D01*
X658000Y871931D01*
X658063Y872489D01*
X658188Y873036D01*
X658373Y873566D01*
X658617Y874072D01*
X658916Y874548D01*
X659266Y874987D01*
X659663Y875384D01*
X660102Y875734D01*
X660578Y876033D01*
X661084Y876277D01*
X661614Y876462D01*
X662161Y876587D01*
X662719Y876650D01*
X663281Y876650D01*
X663839Y876587D01*
X664386Y876462D01*
X664916Y876277D01*
X665422Y876033D01*
X665898Y875734D01*
X666337Y875384D01*
X666734Y874987D01*
X667084Y874548D01*
X667383Y874072D01*
X667627Y873566D01*
X667812Y873036D01*
X667937Y872489D01*
X668000Y871931D01*
X668000Y871369D01*
X750013Y977364D02*
X749936Y976296D01*
X749784Y975235D01*
X749556Y974188D01*
X749254Y973160D01*
X748880Y972156D01*
X748434Y971181D01*
X747921Y970241D01*
X747342Y969340D01*
X746700Y968482D01*
X745998Y967672D01*
X745240Y966915D01*
X744431Y966213D01*
X743573Y965571D01*
X742671Y964992D01*
X741731Y964478D01*
X740756Y964033D01*
X739753Y963659D01*
X738724Y963357D01*
X737678Y963129D01*
X736617Y962976D01*
X735548Y962900D01*
X734477Y962900D01*
X733408Y962976D01*
X732348Y963129D01*
X731301Y963357D01*
X730273Y963659D01*
X729269Y964033D01*
X728294Y964478D01*
X727354Y964992D01*
X726452Y965571D01*
X725594Y966213D01*
X724785Y966915D01*
X724027Y967672D01*
X723325Y968482D01*
X722683Y969340D01*
X722104Y970241D01*
X721591Y971181D01*
X721145Y972156D01*
X720771Y973160D01*
X720469Y974188D01*
X720241Y975235D01*
X720089Y976296D01*
X720013Y977364D01*
X720013Y978436D01*
X720089Y979504D01*
X720241Y980565D01*
X720469Y981612D01*
X720771Y982640D01*
X721145Y983644D01*
X721591Y984619D01*
X722104Y985559D01*
X722683Y986460D01*
X723325Y987318D01*
X724027Y988128D01*
X724785Y988885D01*
X725594Y989587D01*
X726452Y990229D01*
X727354Y990808D01*
X728294Y991322D01*
X729269Y991767D01*
X730273Y992141D01*
X731301Y992443D01*
X732348Y992671D01*
X733408Y992824D01*
X734477Y992900D01*
X735548Y992900D01*
X736617Y992824D01*
X737678Y992671D01*
X738724Y992443D01*
X739753Y992141D01*
X740756Y991767D01*
X741731Y991322D01*
X742671Y990808D01*
X743573Y990229D01*
X744431Y989587D01*
X745240Y988885D01*
X745998Y988128D01*
X746700Y987318D01*
X747342Y986460D01*
X747921Y985559D01*
X748434Y984619D01*
X748880Y983644D01*
X749254Y982640D01*
X749556Y981612D01*
X749784Y980565D01*
X749936Y979504D01*
X750013Y978436D01*
X750013Y977364D01*
X750013Y805914D02*
X749936Y804846D01*
X749784Y803785D01*
X749556Y802738D01*
X749254Y801710D01*
X748880Y800706D01*
X748434Y799731D01*
X747921Y798791D01*
X747342Y797890D01*
X746700Y797032D01*
X745998Y796222D01*
X745240Y795465D01*
X744431Y794763D01*
X743573Y794121D01*
X742671Y793542D01*
X741731Y793028D01*
X740756Y792583D01*
X739753Y792209D01*
X738724Y791907D01*
X737678Y791679D01*
X736617Y791526D01*
X735548Y791450D01*
X734477Y791450D01*
X733408Y791526D01*
X732348Y791679D01*
X731301Y791907D01*
X730273Y792209D01*
X729269Y792583D01*
X728294Y793028D01*
X727354Y793542D01*
X726452Y794121D01*
X725594Y794763D01*
X724785Y795465D01*
X724027Y796222D01*
X723325Y797032D01*
X722683Y797890D01*
X722104Y798791D01*
X721591Y799731D01*
X721145Y800706D01*
X720771Y801710D01*
X720469Y802738D01*
X720241Y803785D01*
X720089Y804846D01*
X720013Y805914D01*
X720013Y806986D01*
X720089Y808054D01*
X720241Y809115D01*
X720469Y810162D01*
X720771Y811190D01*
X721145Y812194D01*
X721591Y813169D01*
X722104Y814109D01*
X722683Y815010D01*
X723325Y815868D01*
X724027Y816678D01*
X724785Y817435D01*
X725594Y818137D01*
X726452Y818779D01*
X727354Y819358D01*
X728294Y819872D01*
X729269Y820317D01*
X730273Y820691D01*
X731301Y820993D01*
X732348Y821221D01*
X733408Y821374D01*
X734477Y821450D01*
X735548Y821450D01*
X736617Y821374D01*
X737678Y821221D01*
X738724Y820993D01*
X739753Y820691D01*
X740756Y820317D01*
X741731Y819872D01*
X742671Y819358D01*
X743573Y818779D01*
X744431Y818137D01*
X745240Y817435D01*
X745998Y816678D01*
X746700Y815868D01*
X747342Y815010D01*
X747921Y814109D01*
X748434Y813169D01*
X748880Y812194D01*
X749254Y811190D01*
X749556Y810162D01*
X749784Y809115D01*
X749936Y808054D01*
X750013Y806986D01*
X750013Y805914D01*
X991513Y941191D02*
X991451Y940802D01*
X991329Y940428D01*
X991151Y940077D01*
X990919Y939759D01*
X990641Y939481D01*
X990323Y939249D01*
X989972Y939071D01*
X989598Y938949D01*
X989209Y938888D01*
X988816Y938888D01*
X988427Y938949D01*
X988053Y939071D01*
X987702Y939249D01*
X987384Y939481D01*
X987106Y939759D01*
X986874Y940077D01*
X986696Y940428D01*
X986574Y940802D01*
X986513Y941191D01*
X986513Y941584D01*
X986574Y941973D01*
X986696Y942347D01*
X986874Y942698D01*
X987106Y943016D01*
X987384Y943294D01*
X987702Y943526D01*
X988053Y943704D01*
X988427Y943826D01*
X988816Y943888D01*
X989209Y943888D01*
X989598Y943826D01*
X989972Y943704D01*
X990323Y943526D01*
X990641Y943294D01*
X990919Y943016D01*
X991151Y942698D01*
X991329Y942347D01*
X991451Y941973D01*
X991513Y941584D01*
X991513Y941191D01*
X993100Y853878D02*
X993038Y853490D01*
X992917Y853115D01*
X992738Y852765D01*
X992507Y852446D01*
X992229Y852168D01*
X991910Y851937D01*
X991560Y851758D01*
X991185Y851637D01*
X990797Y851575D01*
X990403Y851575D01*
X990015Y851637D01*
X989640Y851758D01*
X989290Y851937D01*
X988971Y852168D01*
X988693Y852446D01*
X988462Y852765D01*
X988283Y853115D01*
X988162Y853490D01*
X988100Y853878D01*
X988100Y854272D01*
X988162Y854660D01*
X988283Y855035D01*
X988462Y855385D01*
X988693Y855704D01*
X988971Y855982D01*
X989290Y856213D01*
X989640Y856392D01*
X990015Y856513D01*
X990403Y856575D01*
X990797Y856575D01*
X991185Y856513D01*
X991560Y856392D01*
X991910Y856213D01*
X992229Y855982D01*
X992507Y855704D01*
X992738Y855385D01*
X992917Y855035D01*
X993038Y854660D01*
X993100Y854272D01*
X993100Y853878D01*
X993100Y861816D02*
X993038Y861427D01*
X992917Y861053D01*
X992738Y860702D01*
X992507Y860384D01*
X992229Y860106D01*
X991910Y859874D01*
X991560Y859696D01*
X991185Y859574D01*
X990797Y859513D01*
X990403Y859513D01*
X990015Y859574D01*
X989640Y859696D01*
X989290Y859874D01*
X988971Y860106D01*
X988693Y860384D01*
X988462Y860702D01*
X988283Y861053D01*
X988162Y861427D01*
X988100Y861816D01*
X988100Y862209D01*
X988162Y862598D01*
X988283Y862972D01*
X988462Y863323D01*
X988693Y863641D01*
X988971Y863919D01*
X989290Y864151D01*
X989640Y864329D01*
X990015Y864451D01*
X990403Y864513D01*
X990797Y864513D01*
X991185Y864451D01*
X991560Y864329D01*
X991910Y864151D01*
X992229Y863919D01*
X992507Y863641D01*
X992738Y863323D01*
X992917Y862972D01*
X993038Y862598D01*
X993100Y862209D01*
X993100Y861816D01*
X991513Y933253D02*
X991451Y932865D01*
X991329Y932490D01*
X991151Y932140D01*
X990919Y931821D01*
X990641Y931543D01*
X990323Y931312D01*
X989972Y931133D01*
X989598Y931012D01*
X989209Y930950D01*
X988816Y930950D01*
X988427Y931012D01*
X988053Y931133D01*
X987702Y931312D01*
X987384Y931543D01*
X987106Y931821D01*
X986874Y932140D01*
X986696Y932490D01*
X986574Y932865D01*
X986513Y933253D01*
X986513Y933647D01*
X986574Y934035D01*
X986696Y934410D01*
X986874Y934760D01*
X987106Y935079D01*
X987384Y935357D01*
X987702Y935588D01*
X988053Y935767D01*
X988427Y935888D01*
X988816Y935950D01*
X989209Y935950D01*
X989598Y935888D01*
X989972Y935767D01*
X990323Y935588D01*
X990641Y935357D01*
X990919Y935079D01*
X991151Y934760D01*
X991329Y934410D01*
X991451Y934035D01*
X991513Y933647D01*
X991513Y933253D01*
X32575Y460113D02*
X32507Y459593D01*
X32371Y459086D01*
X32170Y458602D01*
X31908Y458148D01*
X31589Y457732D01*
X31218Y457361D01*
X30802Y457042D01*
X30348Y456780D01*
X29864Y456579D01*
X29357Y456443D01*
X28837Y456375D01*
X28313Y456375D01*
X27793Y456443D01*
X27286Y456579D01*
X26802Y456780D01*
X26348Y457042D01*
X25932Y457361D01*
X25561Y457732D01*
X25242Y458148D01*
X24980Y458602D01*
X24779Y459086D01*
X24643Y459593D01*
X24575Y460113D01*
X24575Y460637D01*
X24643Y461157D01*
X24779Y461664D01*
X24980Y462148D01*
X25242Y462602D01*
X25561Y463018D01*
X25932Y463389D01*
X26348Y463708D01*
X26802Y463970D01*
X27286Y464171D01*
X27793Y464307D01*
X28313Y464375D01*
X28837Y464375D01*
X29357Y464307D01*
X29864Y464171D01*
X30348Y463970D01*
X30802Y463708D01*
X31218Y463389D01*
X31589Y463018D01*
X31908Y462602D01*
X32170Y462148D01*
X32371Y461664D01*
X32507Y461157D01*
X32575Y460637D01*
X32575Y460113D01*
X92900Y460113D02*
X92832Y459593D01*
X92696Y459086D01*
X92495Y458602D01*
X92233Y458148D01*
X91914Y457732D01*
X91543Y457361D01*
X91127Y457042D01*
X90673Y456780D01*
X90189Y456579D01*
X89682Y456443D01*
X89162Y456375D01*
X88638Y456375D01*
X88118Y456443D01*
X87611Y456579D01*
X87127Y456780D01*
X86673Y457042D01*
X86257Y457361D01*
X85886Y457732D01*
X85567Y458148D01*
X85305Y458602D01*
X85104Y459086D01*
X84968Y459593D01*
X84900Y460113D01*
X84900Y460637D01*
X84968Y461157D01*
X85104Y461664D01*
X85305Y462148D01*
X85567Y462602D01*
X85886Y463018D01*
X86257Y463389D01*
X86673Y463708D01*
X87127Y463970D01*
X87611Y464171D01*
X88118Y464307D01*
X88638Y464375D01*
X89162Y464375D01*
X89682Y464307D01*
X90189Y464171D01*
X90673Y463970D01*
X91127Y463708D01*
X91543Y463389D01*
X91914Y463018D01*
X92233Y462602D01*
X92495Y462148D01*
X92696Y461664D01*
X92832Y461157D01*
X92900Y460637D01*
X92900Y460113D01*
X154813Y460113D02*
X154744Y459593D01*
X154608Y459086D01*
X154408Y458602D01*
X154146Y458148D01*
X153826Y457732D01*
X153456Y457361D01*
X153040Y457042D01*
X152585Y456780D01*
X152101Y456579D01*
X151595Y456443D01*
X151075Y456375D01*
X150550Y456375D01*
X150030Y456443D01*
X149524Y456579D01*
X149040Y456780D01*
X148585Y457042D01*
X148169Y457361D01*
X147799Y457732D01*
X147480Y458148D01*
X147217Y458602D01*
X147017Y459086D01*
X146881Y459593D01*
X146813Y460113D01*
X146813Y460637D01*
X146881Y461157D01*
X147017Y461664D01*
X147217Y462148D01*
X147480Y462602D01*
X147799Y463018D01*
X148169Y463389D01*
X148585Y463708D01*
X149040Y463970D01*
X149524Y464171D01*
X150030Y464307D01*
X150550Y464375D01*
X151075Y464375D01*
X151595Y464307D01*
X152101Y464171D01*
X152585Y463970D01*
X153040Y463708D01*
X153456Y463389D01*
X153826Y463018D01*
X154146Y462602D01*
X154408Y462148D01*
X154608Y461664D01*
X154744Y461157D01*
X154813Y460637D01*
X154813Y460113D01*
X218313Y460113D02*
X218244Y459593D01*
X218108Y459086D01*
X217908Y458602D01*
X217646Y458148D01*
X217326Y457732D01*
X216956Y457361D01*
X216540Y457042D01*
X216085Y456780D01*
X215601Y456579D01*
X215095Y456443D01*
X214575Y456375D01*
X214050Y456375D01*
X213530Y456443D01*
X213024Y456579D01*
X212540Y456780D01*
X212085Y457042D01*
X211669Y457361D01*
X211299Y457732D01*
X210980Y458148D01*
X210717Y458602D01*
X210517Y459086D01*
X210381Y459593D01*
X210313Y460113D01*
X210313Y460637D01*
X210381Y461157D01*
X210517Y461664D01*
X210717Y462148D01*
X210980Y462602D01*
X211299Y463018D01*
X211669Y463389D01*
X212085Y463708D01*
X212540Y463970D01*
X213024Y464171D01*
X213530Y464307D01*
X214050Y464375D01*
X214575Y464375D01*
X215095Y464307D01*
X215601Y464171D01*
X216085Y463970D01*
X216540Y463708D01*
X216956Y463389D01*
X217326Y463018D01*
X217646Y462602D01*
X217908Y462148D01*
X218108Y461664D01*
X218244Y461157D01*
X218313Y460637D01*
X218313Y460113D01*
X275463Y460113D02*
X275394Y459593D01*
X275258Y459086D01*
X275058Y458602D01*
X274796Y458148D01*
X274476Y457732D01*
X274106Y457361D01*
X273690Y457042D01*
X273235Y456780D01*
X272751Y456579D01*
X272245Y456443D01*
X271725Y456375D01*
X271200Y456375D01*
X270680Y456443D01*
X270174Y456579D01*
X269690Y456780D01*
X269235Y457042D01*
X268819Y457361D01*
X268449Y457732D01*
X268130Y458148D01*
X267867Y458602D01*
X267667Y459086D01*
X267531Y459593D01*
X267463Y460113D01*
X267463Y460637D01*
X267531Y461157D01*
X267667Y461664D01*
X267867Y462148D01*
X268130Y462602D01*
X268449Y463018D01*
X268819Y463389D01*
X269235Y463708D01*
X269690Y463970D01*
X270174Y464171D01*
X270680Y464307D01*
X271200Y464375D01*
X271725Y464375D01*
X272245Y464307D01*
X272751Y464171D01*
X273235Y463970D01*
X273690Y463708D01*
X274106Y463389D01*
X274476Y463018D01*
X274796Y462602D01*
X275058Y462148D01*
X275258Y461664D01*
X275394Y461157D01*
X275463Y460637D01*
X275463Y460113D01*
X332613Y460113D02*
X332544Y459593D01*
X332408Y459086D01*
X332208Y458602D01*
X331946Y458148D01*
X331626Y457732D01*
X331256Y457361D01*
X330840Y457042D01*
X330385Y456780D01*
X329901Y456579D01*
X329395Y456443D01*
X328875Y456375D01*
X328350Y456375D01*
X327830Y456443D01*
X327324Y456579D01*
X326840Y456780D01*
X326385Y457042D01*
X325969Y457361D01*
X325599Y457732D01*
X325280Y458148D01*
X325017Y458602D01*
X324817Y459086D01*
X324681Y459593D01*
X324613Y460113D01*
X324613Y460637D01*
X324681Y461157D01*
X324817Y461664D01*
X325017Y462148D01*
X325280Y462602D01*
X325599Y463018D01*
X325969Y463389D01*
X326385Y463708D01*
X326840Y463970D01*
X327324Y464171D01*
X327830Y464307D01*
X328350Y464375D01*
X328875Y464375D01*
X329395Y464307D01*
X329901Y464171D01*
X330385Y463970D01*
X330840Y463708D01*
X331256Y463389D01*
X331626Y463018D01*
X331946Y462602D01*
X332208Y462148D01*
X332408Y461664D01*
X332544Y461157D01*
X332613Y460637D01*
X332613Y460113D01*
X392938Y460113D02*
X392869Y459593D01*
X392733Y459086D01*
X392533Y458602D01*
X392271Y458148D01*
X391951Y457732D01*
X391581Y457361D01*
X391165Y457042D01*
X390710Y456780D01*
X390226Y456579D01*
X389720Y456443D01*
X389200Y456375D01*
X388675Y456375D01*
X388155Y456443D01*
X387649Y456579D01*
X387165Y456780D01*
X386710Y457042D01*
X386294Y457361D01*
X385924Y457732D01*
X385605Y458148D01*
X385342Y458602D01*
X385142Y459086D01*
X385006Y459593D01*
X384938Y460113D01*
X384938Y460637D01*
X385006Y461157D01*
X385142Y461664D01*
X385342Y462148D01*
X385605Y462602D01*
X385924Y463018D01*
X386294Y463389D01*
X386710Y463708D01*
X387165Y463970D01*
X387649Y464171D01*
X388155Y464307D01*
X388675Y464375D01*
X389200Y464375D01*
X389720Y464307D01*
X390226Y464171D01*
X390710Y463970D01*
X391165Y463708D01*
X391581Y463389D01*
X391951Y463018D01*
X392271Y462602D01*
X392533Y462148D01*
X392733Y461664D01*
X392869Y461157D01*
X392938Y460637D01*
X392938Y460113D01*
X453263Y460113D02*
X453194Y459593D01*
X453058Y459086D01*
X452858Y458602D01*
X452596Y458148D01*
X452276Y457732D01*
X451906Y457361D01*
X451490Y457042D01*
X451035Y456780D01*
X450551Y456579D01*
X450045Y456443D01*
X449525Y456375D01*
X449000Y456375D01*
X448480Y456443D01*
X447974Y456579D01*
X447490Y456780D01*
X447035Y457042D01*
X446619Y457361D01*
X446249Y457732D01*
X445930Y458148D01*
X445667Y458602D01*
X445467Y459086D01*
X445331Y459593D01*
X445263Y460113D01*
X445263Y460637D01*
X445331Y461157D01*
X445467Y461664D01*
X445667Y462148D01*
X445930Y462602D01*
X446249Y463018D01*
X446619Y463389D01*
X447035Y463708D01*
X447490Y463970D01*
X447974Y464171D01*
X448480Y464307D01*
X449000Y464375D01*
X449525Y464375D01*
X450045Y464307D01*
X450551Y464171D01*
X451035Y463970D01*
X451490Y463708D01*
X451906Y463389D01*
X452276Y463018D01*
X452596Y462602D01*
X452858Y462148D01*
X453058Y461664D01*
X453194Y461157D01*
X453263Y460637D01*
X453263Y460113D01*
X512000Y460113D02*
X511932Y459593D01*
X511796Y459086D01*
X511595Y458602D01*
X511333Y458148D01*
X511014Y457732D01*
X510643Y457361D01*
X510227Y457042D01*
X509773Y456780D01*
X509289Y456579D01*
X508782Y456443D01*
X508262Y456375D01*
X507738Y456375D01*
X507218Y456443D01*
X506711Y456579D01*
X506227Y456780D01*
X505773Y457042D01*
X505357Y457361D01*
X504986Y457732D01*
X504667Y458148D01*
X504405Y458602D01*
X504204Y459086D01*
X504068Y459593D01*
X504000Y460113D01*
X504000Y460637D01*
X504068Y461157D01*
X504204Y461664D01*
X504405Y462148D01*
X504667Y462602D01*
X504986Y463018D01*
X505357Y463389D01*
X505773Y463708D01*
X506227Y463970D01*
X506711Y464171D01*
X507218Y464307D01*
X507738Y464375D01*
X508262Y464375D01*
X508782Y464307D01*
X509289Y464171D01*
X509773Y463970D01*
X510227Y463708D01*
X510643Y463389D01*
X511014Y463018D01*
X511333Y462602D01*
X511595Y462148D01*
X511796Y461664D01*
X511932Y461157D01*
X512000Y460637D01*
X512000Y460113D01*
X577088Y460113D02*
X577019Y459593D01*
X576883Y459086D01*
X576683Y458602D01*
X576421Y458148D01*
X576101Y457732D01*
X575731Y457361D01*
X575315Y457042D01*
X574860Y456780D01*
X574376Y456579D01*
X573870Y456443D01*
X573350Y456375D01*
X572825Y456375D01*
X572305Y456443D01*
X571799Y456579D01*
X571315Y456780D01*
X570860Y457042D01*
X570444Y457361D01*
X570074Y457732D01*
X569755Y458148D01*
X569492Y458602D01*
X569292Y459086D01*
X569156Y459593D01*
X569088Y460113D01*
X569088Y460637D01*
X569156Y461157D01*
X569292Y461664D01*
X569492Y462148D01*
X569755Y462602D01*
X570074Y463018D01*
X570444Y463389D01*
X570860Y463708D01*
X571315Y463970D01*
X571799Y464171D01*
X572305Y464307D01*
X572825Y464375D01*
X573350Y464375D01*
X573870Y464307D01*
X574376Y464171D01*
X574860Y463970D01*
X575315Y463708D01*
X575731Y463389D01*
X576101Y463018D01*
X576421Y462602D01*
X576683Y462148D01*
X576883Y461664D01*
X577019Y461157D01*
X577088Y460637D01*
X577088Y460113D01*
X634238Y460113D02*
X634169Y459593D01*
X634033Y459086D01*
X633833Y458602D01*
X633571Y458148D01*
X633251Y457732D01*
X632881Y457361D01*
X632465Y457042D01*
X632010Y456780D01*
X631526Y456579D01*
X631020Y456443D01*
X630500Y456375D01*
X629975Y456375D01*
X629455Y456443D01*
X628949Y456579D01*
X628465Y456780D01*
X628010Y457042D01*
X627594Y457361D01*
X627224Y457732D01*
X626905Y458148D01*
X626642Y458602D01*
X626442Y459086D01*
X626306Y459593D01*
X626238Y460113D01*
X626238Y460637D01*
X626306Y461157D01*
X626442Y461664D01*
X626642Y462148D01*
X626905Y462602D01*
X627224Y463018D01*
X627594Y463389D01*
X628010Y463708D01*
X628465Y463970D01*
X628949Y464171D01*
X629455Y464307D01*
X629975Y464375D01*
X630500Y464375D01*
X631020Y464307D01*
X631526Y464171D01*
X632010Y463970D01*
X632465Y463708D01*
X632881Y463389D01*
X633251Y463018D01*
X633571Y462602D01*
X633833Y462148D01*
X634033Y461664D01*
X634169Y461157D01*
X634238Y460637D01*
X634238Y460113D01*
X691388Y460113D02*
X691319Y459593D01*
X691183Y459086D01*
X690983Y458602D01*
X690721Y458148D01*
X690401Y457732D01*
X690031Y457361D01*
X689615Y457042D01*
X689160Y456780D01*
X688676Y456579D01*
X688170Y456443D01*
X687650Y456375D01*
X687125Y456375D01*
X686605Y456443D01*
X686099Y456579D01*
X685615Y456780D01*
X685160Y457042D01*
X684744Y457361D01*
X684374Y457732D01*
X684055Y458148D01*
X683792Y458602D01*
X683592Y459086D01*
X683456Y459593D01*
X683388Y460113D01*
X683388Y460637D01*
X683456Y461157D01*
X683592Y461664D01*
X683792Y462148D01*
X684055Y462602D01*
X684374Y463018D01*
X684744Y463389D01*
X685160Y463708D01*
X685615Y463970D01*
X686099Y464171D01*
X686605Y464307D01*
X687125Y464375D01*
X687650Y464375D01*
X688170Y464307D01*
X688676Y464171D01*
X689160Y463970D01*
X689615Y463708D01*
X690031Y463389D01*
X690401Y463018D01*
X690721Y462602D01*
X690983Y462148D01*
X691183Y461664D01*
X691319Y461157D01*
X691388Y460637D01*
X691388Y460113D01*
X751713Y460113D02*
X751644Y459593D01*
X751508Y459086D01*
X751308Y458602D01*
X751046Y458148D01*
X750726Y457732D01*
X750356Y457361D01*
X749940Y457042D01*
X749485Y456780D01*
X749001Y456579D01*
X748495Y456443D01*
X747975Y456375D01*
X747450Y456375D01*
X746930Y456443D01*
X746424Y456579D01*
X745940Y456780D01*
X745485Y457042D01*
X745069Y457361D01*
X744699Y457732D01*
X744380Y458148D01*
X744117Y458602D01*
X743917Y459086D01*
X743781Y459593D01*
X743713Y460113D01*
X743713Y460637D01*
X743781Y461157D01*
X743917Y461664D01*
X744117Y462148D01*
X744380Y462602D01*
X744699Y463018D01*
X745069Y463389D01*
X745485Y463708D01*
X745940Y463970D01*
X746424Y464171D01*
X746930Y464307D01*
X747450Y464375D01*
X747975Y464375D01*
X748495Y464307D01*
X749001Y464171D01*
X749485Y463970D01*
X749940Y463708D01*
X750356Y463389D01*
X750726Y463018D01*
X751046Y462602D01*
X751308Y462148D01*
X751508Y461664D01*
X751644Y461157D01*
X751713Y460637D01*
X751713Y460113D01*
X805688Y460113D02*
X805619Y459593D01*
X805483Y459086D01*
X805283Y458602D01*
X805021Y458148D01*
X804701Y457732D01*
X804331Y457361D01*
X803915Y457042D01*
X803460Y456780D01*
X802976Y456579D01*
X802470Y456443D01*
X801950Y456375D01*
X801425Y456375D01*
X800905Y456443D01*
X800399Y456579D01*
X799915Y456780D01*
X799460Y457042D01*
X799044Y457361D01*
X798674Y457732D01*
X798355Y458148D01*
X798092Y458602D01*
X797892Y459086D01*
X797756Y459593D01*
X797688Y460113D01*
X797688Y460637D01*
X797756Y461157D01*
X797892Y461664D01*
X798092Y462148D01*
X798355Y462602D01*
X798674Y463018D01*
X799044Y463389D01*
X799460Y463708D01*
X799915Y463970D01*
X800399Y464171D01*
X800905Y464307D01*
X801425Y464375D01*
X801950Y464375D01*
X802470Y464307D01*
X802976Y464171D01*
X803460Y463970D01*
X803915Y463708D01*
X804331Y463389D01*
X804701Y463018D01*
X805021Y462602D01*
X805283Y462148D01*
X805483Y461664D01*
X805619Y461157D01*
X805688Y460637D01*
X805688Y460113D01*
X851725Y460113D02*
X851657Y459593D01*
X851521Y459086D01*
X851320Y458602D01*
X851058Y458148D01*
X850739Y457732D01*
X850368Y457361D01*
X849952Y457042D01*
X849498Y456780D01*
X849014Y456579D01*
X848507Y456443D01*
X847987Y456375D01*
X847463Y456375D01*
X846943Y456443D01*
X846436Y456579D01*
X845952Y456780D01*
X845498Y457042D01*
X845082Y457361D01*
X844711Y457732D01*
X844392Y458148D01*
X844130Y458602D01*
X843929Y459086D01*
X843793Y459593D01*
X843725Y460113D01*
X843725Y460637D01*
X843793Y461157D01*
X843929Y461664D01*
X844130Y462148D01*
X844392Y462602D01*
X844711Y463018D01*
X845082Y463389D01*
X845498Y463708D01*
X845952Y463970D01*
X846436Y464171D01*
X846943Y464307D01*
X847463Y464375D01*
X847987Y464375D01*
X848507Y464307D01*
X849014Y464171D01*
X849498Y463970D01*
X849952Y463708D01*
X850368Y463389D01*
X850739Y463018D01*
X851058Y462602D01*
X851320Y462148D01*
X851521Y461664D01*
X851657Y461157D01*
X851725Y460637D01*
X851725Y460113D01*
X929513Y460113D02*
X929444Y459593D01*
X929308Y459086D01*
X929108Y458602D01*
X928846Y458148D01*
X928526Y457732D01*
X928156Y457361D01*
X927740Y457042D01*
X927285Y456780D01*
X926801Y456579D01*
X926295Y456443D01*
X925775Y456375D01*
X925250Y456375D01*
X924730Y456443D01*
X924224Y456579D01*
X923740Y456780D01*
X923285Y457042D01*
X922869Y457361D01*
X922499Y457732D01*
X922180Y458148D01*
X921917Y458602D01*
X921717Y459086D01*
X921581Y459593D01*
X921513Y460113D01*
X921513Y460637D01*
X921581Y461157D01*
X921717Y461664D01*
X921917Y462148D01*
X922180Y462602D01*
X922499Y463018D01*
X922869Y463389D01*
X923285Y463708D01*
X923740Y463970D01*
X924224Y464171D01*
X924730Y464307D01*
X925250Y464375D01*
X925775Y464375D01*
X926295Y464307D01*
X926801Y464171D01*
X927285Y463970D01*
X927740Y463708D01*
X928156Y463389D01*
X928526Y463018D01*
X928846Y462602D01*
X929108Y462148D01*
X929308Y461664D01*
X929444Y461157D01*
X929513Y460637D01*
X929513Y460113D01*
X993013Y460113D02*
X992944Y459593D01*
X992808Y459086D01*
X992608Y458602D01*
X992346Y458148D01*
X992026Y457732D01*
X991656Y457361D01*
X991240Y457042D01*
X990785Y456780D01*
X990301Y456579D01*
X989795Y456443D01*
X989275Y456375D01*
X988750Y456375D01*
X988230Y456443D01*
X987724Y456579D01*
X987240Y456780D01*
X986785Y457042D01*
X986369Y457361D01*
X985999Y457732D01*
X985680Y458148D01*
X985417Y458602D01*
X985217Y459086D01*
X985081Y459593D01*
X985013Y460113D01*
X985013Y460637D01*
X985081Y461157D01*
X985217Y461664D01*
X985417Y462148D01*
X985680Y462602D01*
X985999Y463018D01*
X986369Y463389D01*
X986785Y463708D01*
X987240Y463970D01*
X987724Y464171D01*
X988230Y464307D01*
X988750Y464375D01*
X989275Y464375D01*
X989795Y464307D01*
X990301Y464171D01*
X990785Y463970D01*
X991240Y463708D01*
X991656Y463389D01*
X992026Y463018D01*
X992346Y462602D01*
X992608Y462148D01*
X992808Y461664D01*
X992944Y461157D01*
X993013Y460637D01*
X993013Y460113D01*
X851725Y518850D02*
X851657Y518330D01*
X851521Y517824D01*
X851320Y517340D01*
X851058Y516885D01*
X850739Y516469D01*
X850368Y516099D01*
X849952Y515780D01*
X849498Y515517D01*
X849014Y515317D01*
X848507Y515181D01*
X847987Y515113D01*
X847463Y515113D01*
X846943Y515181D01*
X846436Y515317D01*
X845952Y515517D01*
X845498Y515780D01*
X845082Y516099D01*
X844711Y516469D01*
X844392Y516885D01*
X844130Y517340D01*
X843929Y517824D01*
X843793Y518330D01*
X843725Y518850D01*
X843725Y519375D01*
X843793Y519895D01*
X843929Y520401D01*
X844130Y520885D01*
X844392Y521340D01*
X844711Y521756D01*
X845082Y522126D01*
X845498Y522446D01*
X845952Y522708D01*
X846436Y522908D01*
X846943Y523044D01*
X847463Y523113D01*
X847987Y523113D01*
X848507Y523044D01*
X849014Y522908D01*
X849498Y522708D01*
X849952Y522446D01*
X850368Y522126D01*
X850739Y521756D01*
X851058Y521340D01*
X851320Y520885D01*
X851521Y520401D01*
X851657Y519895D01*
X851725Y519375D01*
X851725Y518850D01*
X851725Y577588D02*
X851657Y577068D01*
X851521Y576561D01*
X851320Y576077D01*
X851058Y575623D01*
X850739Y575207D01*
X850368Y574836D01*
X849952Y574517D01*
X849498Y574255D01*
X849014Y574054D01*
X848507Y573918D01*
X847987Y573850D01*
X847463Y573850D01*
X846943Y573918D01*
X846436Y574054D01*
X845952Y574255D01*
X845498Y574517D01*
X845082Y574836D01*
X844711Y575207D01*
X844392Y575623D01*
X844130Y576077D01*
X843929Y576561D01*
X843793Y577068D01*
X843725Y577588D01*
X843725Y578112D01*
X843793Y578632D01*
X843929Y579139D01*
X844130Y579623D01*
X844392Y580077D01*
X844711Y580493D01*
X845082Y580864D01*
X845498Y581183D01*
X845952Y581445D01*
X846436Y581646D01*
X846943Y581782D01*
X847463Y581850D01*
X847987Y581850D01*
X848507Y581782D01*
X849014Y581646D01*
X849498Y581445D01*
X849952Y581183D01*
X850368Y580864D01*
X850739Y580493D01*
X851058Y580077D01*
X851320Y579623D01*
X851521Y579139D01*
X851657Y578632D01*
X851725Y578112D01*
X851725Y577588D01*
X851725Y631563D02*
X851657Y631043D01*
X851521Y630536D01*
X851320Y630052D01*
X851058Y629598D01*
X850739Y629182D01*
X850368Y628811D01*
X849952Y628492D01*
X849498Y628230D01*
X849014Y628029D01*
X848507Y627893D01*
X847987Y627825D01*
X847463Y627825D01*
X846943Y627893D01*
X846436Y628029D01*
X845952Y628230D01*
X845498Y628492D01*
X845082Y628811D01*
X844711Y629182D01*
X844392Y629598D01*
X844130Y630052D01*
X843929Y630536D01*
X843793Y631043D01*
X843725Y631563D01*
X843725Y632087D01*
X843793Y632607D01*
X843929Y633114D01*
X844130Y633598D01*
X844392Y634052D01*
X844711Y634468D01*
X845082Y634839D01*
X845498Y635158D01*
X845952Y635420D01*
X846436Y635621D01*
X846943Y635757D01*
X847463Y635825D01*
X847987Y635825D01*
X848507Y635757D01*
X849014Y635621D01*
X849498Y635420D01*
X849952Y635158D01*
X850368Y634839D01*
X850739Y634468D01*
X851058Y634052D01*
X851320Y633598D01*
X851521Y633114D01*
X851657Y632607D01*
X851725Y632087D01*
X851725Y631563D01*
X851725Y682363D02*
X851657Y681843D01*
X851521Y681336D01*
X851320Y680852D01*
X851058Y680398D01*
X850739Y679982D01*
X850368Y679611D01*
X849952Y679292D01*
X849498Y679030D01*
X849014Y678829D01*
X848507Y678693D01*
X847987Y678625D01*
X847463Y678625D01*
X846943Y678693D01*
X846436Y678829D01*
X845952Y679030D01*
X845498Y679292D01*
X845082Y679611D01*
X844711Y679982D01*
X844392Y680398D01*
X844130Y680852D01*
X843929Y681336D01*
X843793Y681843D01*
X843725Y682363D01*
X843725Y682887D01*
X843793Y683407D01*
X843929Y683914D01*
X844130Y684398D01*
X844392Y684852D01*
X844711Y685268D01*
X845082Y685639D01*
X845498Y685958D01*
X845952Y686220D01*
X846436Y686421D01*
X846943Y686557D01*
X847463Y686625D01*
X847987Y686625D01*
X848507Y686557D01*
X849014Y686421D01*
X849498Y686220D01*
X849952Y685958D01*
X850368Y685639D01*
X850739Y685268D01*
X851058Y684852D01*
X851320Y684398D01*
X851521Y683914D01*
X851657Y683407D01*
X851725Y682887D01*
X851725Y682363D01*
X851725Y731575D02*
X851657Y731055D01*
X851521Y730549D01*
X851320Y730065D01*
X851058Y729610D01*
X850739Y729194D01*
X850368Y728824D01*
X849952Y728505D01*
X849498Y728242D01*
X849014Y728042D01*
X848507Y727906D01*
X847987Y727838D01*
X847463Y727838D01*
X846943Y727906D01*
X846436Y728042D01*
X845952Y728242D01*
X845498Y728505D01*
X845082Y728824D01*
X844711Y729194D01*
X844392Y729610D01*
X844130Y730065D01*
X843929Y730549D01*
X843793Y731055D01*
X843725Y731575D01*
X843725Y732100D01*
X843793Y732620D01*
X843929Y733126D01*
X844130Y733610D01*
X844392Y734065D01*
X844711Y734481D01*
X845082Y734851D01*
X845498Y735171D01*
X845952Y735433D01*
X846436Y735633D01*
X846943Y735769D01*
X847463Y735838D01*
X847987Y735838D01*
X848507Y735769D01*
X849014Y735633D01*
X849498Y735433D01*
X849952Y735171D01*
X850368Y734851D01*
X850739Y734481D01*
X851058Y734065D01*
X851320Y733610D01*
X851521Y733126D01*
X851657Y732620D01*
X851725Y732100D01*
X851725Y731575D01*
X851725Y777613D02*
X851657Y777093D01*
X851521Y776586D01*
X851320Y776102D01*
X851058Y775648D01*
X850739Y775232D01*
X850368Y774861D01*
X849952Y774542D01*
X849498Y774280D01*
X849014Y774079D01*
X848507Y773943D01*
X847987Y773875D01*
X847463Y773875D01*
X846943Y773943D01*
X846436Y774079D01*
X845952Y774280D01*
X845498Y774542D01*
X845082Y774861D01*
X844711Y775232D01*
X844392Y775648D01*
X844130Y776102D01*
X843929Y776586D01*
X843793Y777093D01*
X843725Y777613D01*
X843725Y778137D01*
X843793Y778657D01*
X843929Y779164D01*
X844130Y779648D01*
X844392Y780102D01*
X844711Y780518D01*
X845082Y780889D01*
X845498Y781208D01*
X845952Y781470D01*
X846436Y781671D01*
X846943Y781807D01*
X847463Y781875D01*
X847987Y781875D01*
X848507Y781807D01*
X849014Y781671D01*
X849498Y781470D01*
X849952Y781208D01*
X850368Y780889D01*
X850739Y780518D01*
X851058Y780102D01*
X851320Y779648D01*
X851521Y779164D01*
X851657Y778657D01*
X851725Y778137D01*
X851725Y777613D01*
X800925Y777613D02*
X800857Y777093D01*
X800721Y776586D01*
X800520Y776102D01*
X800258Y775648D01*
X799939Y775232D01*
X799568Y774861D01*
X799152Y774542D01*
X798698Y774280D01*
X798214Y774079D01*
X797707Y773943D01*
X797187Y773875D01*
X796663Y773875D01*
X796143Y773943D01*
X795636Y774079D01*
X795152Y774280D01*
X794698Y774542D01*
X794282Y774861D01*
X793911Y775232D01*
X793592Y775648D01*
X793330Y776102D01*
X793129Y776586D01*
X792993Y777093D01*
X792925Y777613D01*
X792925Y778137D01*
X792993Y778657D01*
X793129Y779164D01*
X793330Y779648D01*
X793592Y780102D01*
X793911Y780518D01*
X794282Y780889D01*
X794698Y781208D01*
X795152Y781470D01*
X795636Y781671D01*
X796143Y781807D01*
X796663Y781875D01*
X797187Y781875D01*
X797707Y781807D01*
X798214Y781671D01*
X798698Y781470D01*
X799152Y781208D01*
X799568Y780889D01*
X799939Y780518D01*
X800258Y780102D01*
X800520Y779648D01*
X800721Y779164D01*
X800857Y778657D01*
X800925Y778137D01*
X800925Y777613D01*
X913638Y777613D02*
X913569Y777093D01*
X913433Y776586D01*
X913233Y776102D01*
X912971Y775648D01*
X912651Y775232D01*
X912281Y774861D01*
X911865Y774542D01*
X911410Y774280D01*
X910926Y774079D01*
X910420Y773943D01*
X909900Y773875D01*
X909375Y773875D01*
X908855Y773943D01*
X908349Y774079D01*
X907865Y774280D01*
X907410Y774542D01*
X906994Y774861D01*
X906624Y775232D01*
X906305Y775648D01*
X906042Y776102D01*
X905842Y776586D01*
X905706Y777093D01*
X905638Y777613D01*
X905638Y778137D01*
X905706Y778657D01*
X905842Y779164D01*
X906042Y779648D01*
X906305Y780102D01*
X906624Y780518D01*
X906994Y780889D01*
X907410Y781208D01*
X907865Y781470D01*
X908349Y781671D01*
X908855Y781807D01*
X909375Y781875D01*
X909900Y781875D01*
X910420Y781807D01*
X910926Y781671D01*
X911410Y781470D01*
X911865Y781208D01*
X912281Y780889D01*
X912651Y780518D01*
X912971Y780102D01*
X913233Y779648D01*
X913433Y779164D01*
X913569Y778657D01*
X913638Y778137D01*
X913638Y777613D01*
X967613Y777613D02*
X967544Y777093D01*
X967408Y776586D01*
X967208Y776102D01*
X966946Y775648D01*
X966626Y775232D01*
X966256Y774861D01*
X965840Y774542D01*
X965385Y774280D01*
X964901Y774079D01*
X964395Y773943D01*
X963875Y773875D01*
X963350Y773875D01*
X962830Y773943D01*
X962324Y774079D01*
X961840Y774280D01*
X961385Y774542D01*
X960969Y774861D01*
X960599Y775232D01*
X960280Y775648D01*
X960017Y776102D01*
X959817Y776586D01*
X959681Y777093D01*
X959613Y777613D01*
X959613Y778137D01*
X959681Y778657D01*
X959817Y779164D01*
X960017Y779648D01*
X960280Y780102D01*
X960599Y780518D01*
X960969Y780889D01*
X961385Y781208D01*
X961840Y781470D01*
X962324Y781671D01*
X962830Y781807D01*
X963350Y781875D01*
X963875Y781875D01*
X964395Y781807D01*
X964901Y781671D01*
X965385Y781470D01*
X965840Y781208D01*
X966256Y780889D01*
X966626Y780518D01*
X966946Y780102D01*
X967208Y779648D01*
X967408Y779164D01*
X967544Y778657D01*
X967613Y778137D01*
X967613Y777613D01*
X746950Y777613D02*
X746882Y777093D01*
X746746Y776586D01*
X746545Y776102D01*
X746283Y775648D01*
X745964Y775232D01*
X745593Y774861D01*
X745177Y774542D01*
X744723Y774280D01*
X744239Y774079D01*
X743732Y773943D01*
X743212Y773875D01*
X742688Y773875D01*
X742168Y773943D01*
X741661Y774079D01*
X741177Y774280D01*
X740723Y774542D01*
X740307Y774861D01*
X739936Y775232D01*
X739617Y775648D01*
X739355Y776102D01*
X739154Y776586D01*
X739018Y777093D01*
X738950Y777613D01*
X738950Y778137D01*
X739018Y778657D01*
X739154Y779164D01*
X739355Y779648D01*
X739617Y780102D01*
X739936Y780518D01*
X740307Y780889D01*
X740723Y781208D01*
X741177Y781470D01*
X741661Y781671D01*
X742168Y781807D01*
X742688Y781875D01*
X743212Y781875D01*
X743732Y781807D01*
X744239Y781671D01*
X744723Y781470D01*
X745177Y781208D01*
X745593Y780889D01*
X745964Y780518D01*
X746283Y780102D01*
X746545Y779648D01*
X746746Y779164D01*
X746882Y778657D01*
X746950Y778137D01*
X746950Y777613D01*
X712025Y777613D02*
X711957Y777093D01*
X711821Y776586D01*
X711620Y776102D01*
X711358Y775648D01*
X711039Y775232D01*
X710668Y774861D01*
X710252Y774542D01*
X709798Y774280D01*
X709314Y774079D01*
X708807Y773943D01*
X708287Y773875D01*
X707763Y773875D01*
X707243Y773943D01*
X706736Y774079D01*
X706252Y774280D01*
X705798Y774542D01*
X705382Y774861D01*
X705011Y775232D01*
X704692Y775648D01*
X704430Y776102D01*
X704229Y776586D01*
X704093Y777093D01*
X704025Y777613D01*
X704025Y778137D01*
X704093Y778657D01*
X704229Y779164D01*
X704430Y779648D01*
X704692Y780102D01*
X705011Y780518D01*
X705382Y780889D01*
X705798Y781208D01*
X706252Y781470D01*
X706736Y781671D01*
X707243Y781807D01*
X707763Y781875D01*
X708287Y781875D01*
X708807Y781807D01*
X709314Y781671D01*
X709798Y781470D01*
X710252Y781208D01*
X710668Y780889D01*
X711039Y780518D01*
X711358Y780102D01*
X711620Y779648D01*
X711821Y779164D01*
X711957Y778657D01*
X712025Y778137D01*
X712025Y777613D01*
X712025Y830000D02*
X711957Y829480D01*
X711821Y828974D01*
X711620Y828490D01*
X711358Y828035D01*
X711039Y827619D01*
X710668Y827249D01*
X710252Y826930D01*
X709798Y826667D01*
X709314Y826467D01*
X708807Y826331D01*
X708287Y826263D01*
X707763Y826263D01*
X707243Y826331D01*
X706736Y826467D01*
X706252Y826667D01*
X705798Y826930D01*
X705382Y827249D01*
X705011Y827619D01*
X704692Y828035D01*
X704430Y828490D01*
X704229Y828974D01*
X704093Y829480D01*
X704025Y830000D01*
X704025Y830525D01*
X704093Y831045D01*
X704229Y831551D01*
X704430Y832035D01*
X704692Y832490D01*
X705011Y832906D01*
X705382Y833276D01*
X705798Y833596D01*
X706252Y833858D01*
X706736Y834058D01*
X707243Y834194D01*
X707763Y834263D01*
X708287Y834263D01*
X708807Y834194D01*
X709314Y834058D01*
X709798Y833858D01*
X710252Y833596D01*
X710668Y833276D01*
X711039Y832906D01*
X711358Y832490D01*
X711620Y832035D01*
X711821Y831551D01*
X711957Y831045D01*
X712025Y830525D01*
X712025Y830000D01*
X712025Y882388D02*
X711957Y881868D01*
X711821Y881361D01*
X711620Y880877D01*
X711358Y880423D01*
X711039Y880007D01*
X710668Y879636D01*
X710252Y879317D01*
X709798Y879055D01*
X709314Y878854D01*
X708807Y878718D01*
X708287Y878650D01*
X707763Y878650D01*
X707243Y878718D01*
X706736Y878854D01*
X706252Y879055D01*
X705798Y879317D01*
X705382Y879636D01*
X705011Y880007D01*
X704692Y880423D01*
X704430Y880877D01*
X704229Y881361D01*
X704093Y881868D01*
X704025Y882388D01*
X704025Y882912D01*
X704093Y883432D01*
X704229Y883939D01*
X704430Y884423D01*
X704692Y884877D01*
X705011Y885293D01*
X705382Y885664D01*
X705798Y885983D01*
X706252Y886245D01*
X706736Y886446D01*
X707243Y886582D01*
X707763Y886650D01*
X708287Y886650D01*
X708807Y886582D01*
X709314Y886446D01*
X709798Y886245D01*
X710252Y885983D01*
X710668Y885664D01*
X711039Y885293D01*
X711358Y884877D01*
X711620Y884423D01*
X711821Y883939D01*
X711957Y883432D01*
X712025Y882912D01*
X712025Y882388D01*
X712025Y936363D02*
X711957Y935843D01*
X711821Y935336D01*
X711620Y934852D01*
X711358Y934398D01*
X711039Y933982D01*
X710668Y933611D01*
X710252Y933292D01*
X709798Y933030D01*
X709314Y932829D01*
X708807Y932693D01*
X708287Y932625D01*
X707763Y932625D01*
X707243Y932693D01*
X706736Y932829D01*
X706252Y933030D01*
X705798Y933292D01*
X705382Y933611D01*
X705011Y933982D01*
X704692Y934398D01*
X704430Y934852D01*
X704229Y935336D01*
X704093Y935843D01*
X704025Y936363D01*
X704025Y936887D01*
X704093Y937407D01*
X704229Y937914D01*
X704430Y938398D01*
X704692Y938852D01*
X705011Y939268D01*
X705382Y939639D01*
X705798Y939958D01*
X706252Y940220D01*
X706736Y940421D01*
X707243Y940557D01*
X707763Y940625D01*
X708287Y940625D01*
X708807Y940557D01*
X709314Y940421D01*
X709798Y940220D01*
X710252Y939958D01*
X710668Y939639D01*
X711039Y939268D01*
X711358Y938852D01*
X711620Y938398D01*
X711821Y937914D01*
X711957Y937407D01*
X712025Y936887D01*
X712025Y936363D01*
X712025Y988750D02*
X711957Y988230D01*
X711821Y987724D01*
X711620Y987240D01*
X711358Y986785D01*
X711039Y986369D01*
X710668Y985999D01*
X710252Y985680D01*
X709798Y985417D01*
X709314Y985217D01*
X708807Y985081D01*
X708287Y985013D01*
X707763Y985013D01*
X707243Y985081D01*
X706736Y985217D01*
X706252Y985417D01*
X705798Y985680D01*
X705382Y985999D01*
X705011Y986369D01*
X704692Y986785D01*
X704430Y987240D01*
X704229Y987724D01*
X704093Y988230D01*
X704025Y988750D01*
X704025Y989275D01*
X704093Y989795D01*
X704229Y990301D01*
X704430Y990785D01*
X704692Y991240D01*
X705011Y991656D01*
X705382Y992026D01*
X705798Y992346D01*
X706252Y992608D01*
X706736Y992808D01*
X707243Y992944D01*
X707763Y993013D01*
X708287Y993013D01*
X708807Y992944D01*
X709314Y992808D01*
X709798Y992608D01*
X710252Y992346D01*
X710668Y992026D01*
X711039Y991656D01*
X711358Y991240D01*
X711620Y990785D01*
X711821Y990301D01*
X711957Y989795D01*
X712025Y989275D01*
X712025Y988750D01*
X534225Y987163D02*
X534157Y986643D01*
X534021Y986136D01*
X533820Y985652D01*
X533558Y985198D01*
X533239Y984782D01*
X532868Y984411D01*
X532452Y984092D01*
X531998Y983830D01*
X531514Y983629D01*
X531007Y983493D01*
X530487Y983425D01*
X529963Y983425D01*
X529443Y983493D01*
X528936Y983629D01*
X528452Y983830D01*
X527998Y984092D01*
X527582Y984411D01*
X527211Y984782D01*
X526892Y985198D01*
X526630Y985652D01*
X526429Y986136D01*
X526293Y986643D01*
X526225Y987163D01*
X526225Y987687D01*
X526293Y988207D01*
X526429Y988714D01*
X526630Y989198D01*
X526892Y989652D01*
X527211Y990068D01*
X527582Y990439D01*
X527998Y990758D01*
X528452Y991020D01*
X528936Y991221D01*
X529443Y991357D01*
X529963Y991425D01*
X530487Y991425D01*
X531007Y991357D01*
X531514Y991221D01*
X531998Y991020D01*
X532452Y990758D01*
X532868Y990439D01*
X533239Y990068D01*
X533558Y989652D01*
X533820Y989198D01*
X534021Y988714D01*
X534157Y988207D01*
X534225Y987687D01*
X534225Y987163D01*
X534225Y933188D02*
X534157Y932668D01*
X534021Y932161D01*
X533820Y931677D01*
X533558Y931223D01*
X533239Y930807D01*
X532868Y930436D01*
X532452Y930117D01*
X531998Y929855D01*
X531514Y929654D01*
X531007Y929518D01*
X530487Y929450D01*
X529963Y929450D01*
X529443Y929518D01*
X528936Y929654D01*
X528452Y929855D01*
X527998Y930117D01*
X527582Y930436D01*
X527211Y930807D01*
X526892Y931223D01*
X526630Y931677D01*
X526429Y932161D01*
X526293Y932668D01*
X526225Y933188D01*
X526225Y933712D01*
X526293Y934232D01*
X526429Y934739D01*
X526630Y935223D01*
X526892Y935677D01*
X527211Y936093D01*
X527582Y936464D01*
X527998Y936783D01*
X528452Y937045D01*
X528936Y937246D01*
X529443Y937382D01*
X529963Y937450D01*
X530487Y937450D01*
X531007Y937382D01*
X531514Y937246D01*
X531998Y937045D01*
X532452Y936783D01*
X532868Y936464D01*
X533239Y936093D01*
X533558Y935677D01*
X533820Y935223D01*
X534021Y934739D01*
X534157Y934232D01*
X534225Y933712D01*
X534225Y933188D01*
X534225Y880800D02*
X534157Y880280D01*
X534021Y879774D01*
X533820Y879290D01*
X533558Y878835D01*
X533239Y878419D01*
X532868Y878049D01*
X532452Y877730D01*
X531998Y877467D01*
X531514Y877267D01*
X531007Y877131D01*
X530487Y877063D01*
X529963Y877063D01*
X529443Y877131D01*
X528936Y877267D01*
X528452Y877467D01*
X527998Y877730D01*
X527582Y878049D01*
X527211Y878419D01*
X526892Y878835D01*
X526630Y879290D01*
X526429Y879774D01*
X526293Y880280D01*
X526225Y880800D01*
X526225Y881325D01*
X526293Y881845D01*
X526429Y882351D01*
X526630Y882835D01*
X526892Y883290D01*
X527211Y883706D01*
X527582Y884076D01*
X527998Y884396D01*
X528452Y884658D01*
X528936Y884858D01*
X529443Y884994D01*
X529963Y885063D01*
X530487Y885063D01*
X531007Y884994D01*
X531514Y884858D01*
X531998Y884658D01*
X532452Y884396D01*
X532868Y884076D01*
X533239Y883706D01*
X533558Y883290D01*
X533820Y882835D01*
X534021Y882351D01*
X534157Y881845D01*
X534225Y881325D01*
X534225Y880800D01*
X534225Y830000D02*
X534157Y829480D01*
X534021Y828974D01*
X533820Y828490D01*
X533558Y828035D01*
X533239Y827619D01*
X532868Y827249D01*
X532452Y826930D01*
X531998Y826667D01*
X531514Y826467D01*
X531007Y826331D01*
X530487Y826263D01*
X529963Y826263D01*
X529443Y826331D01*
X528936Y826467D01*
X528452Y826667D01*
X527998Y826930D01*
X527582Y827249D01*
X527211Y827619D01*
X526892Y828035D01*
X526630Y828490D01*
X526429Y828974D01*
X526293Y829480D01*
X526225Y830000D01*
X526225Y830525D01*
X526293Y831045D01*
X526429Y831551D01*
X526630Y832035D01*
X526892Y832490D01*
X527211Y832906D01*
X527582Y833276D01*
X527998Y833596D01*
X528452Y833858D01*
X528936Y834058D01*
X529443Y834194D01*
X529963Y834263D01*
X530487Y834263D01*
X531007Y834194D01*
X531514Y834058D01*
X531998Y833858D01*
X532452Y833596D01*
X532868Y833276D01*
X533239Y832906D01*
X533558Y832490D01*
X533820Y832035D01*
X534021Y831551D01*
X534157Y831045D01*
X534225Y830525D01*
X534225Y830000D01*
X534225Y777613D02*
X534157Y777093D01*
X534021Y776586D01*
X533820Y776102D01*
X533558Y775648D01*
X533239Y775232D01*
X532868Y774861D01*
X532452Y774542D01*
X531998Y774280D01*
X531514Y774079D01*
X531007Y773943D01*
X530487Y773875D01*
X529963Y773875D01*
X529443Y773943D01*
X528936Y774079D01*
X528452Y774280D01*
X527998Y774542D01*
X527582Y774861D01*
X527211Y775232D01*
X526892Y775648D01*
X526630Y776102D01*
X526429Y776586D01*
X526293Y777093D01*
X526225Y777613D01*
X526225Y778137D01*
X526293Y778657D01*
X526429Y779164D01*
X526630Y779648D01*
X526892Y780102D01*
X527211Y780518D01*
X527582Y780889D01*
X527998Y781208D01*
X528452Y781470D01*
X528936Y781671D01*
X529443Y781807D01*
X529963Y781875D01*
X530487Y781875D01*
X531007Y781807D01*
X531514Y781671D01*
X531998Y781470D01*
X532452Y781208D01*
X532868Y780889D01*
X533239Y780518D01*
X533558Y780102D01*
X533820Y779648D01*
X534021Y779164D01*
X534157Y778657D01*
X534225Y778137D01*
X534225Y777613D01*
X577088Y777613D02*
X577019Y777093D01*
X576883Y776586D01*
X576683Y776102D01*
X576421Y775648D01*
X576101Y775232D01*
X575731Y774861D01*
X575315Y774542D01*
X574860Y774280D01*
X574376Y774079D01*
X573870Y773943D01*
X573350Y773875D01*
X572825Y773875D01*
X572305Y773943D01*
X571799Y774079D01*
X571315Y774280D01*
X570860Y774542D01*
X570444Y774861D01*
X570074Y775232D01*
X569755Y775648D01*
X569492Y776102D01*
X569292Y776586D01*
X569156Y777093D01*
X569088Y777613D01*
X569088Y778137D01*
X569156Y778657D01*
X569292Y779164D01*
X569492Y779648D01*
X569755Y780102D01*
X570074Y780518D01*
X570444Y780889D01*
X570860Y781208D01*
X571315Y781470D01*
X571799Y781671D01*
X572305Y781807D01*
X572825Y781875D01*
X573350Y781875D01*
X573870Y781807D01*
X574376Y781671D01*
X574860Y781470D01*
X575315Y781208D01*
X575731Y780889D01*
X576101Y780518D01*
X576421Y780102D01*
X576683Y779648D01*
X576883Y779164D01*
X577019Y778657D01*
X577088Y778137D01*
X577088Y777613D01*
X627888Y777613D02*
X627819Y777093D01*
X627683Y776586D01*
X627483Y776102D01*
X627221Y775648D01*
X626901Y775232D01*
X626531Y774861D01*
X626115Y774542D01*
X625660Y774280D01*
X625176Y774079D01*
X624670Y773943D01*
X624150Y773875D01*
X623625Y773875D01*
X623105Y773943D01*
X622599Y774079D01*
X622115Y774280D01*
X621660Y774542D01*
X621244Y774861D01*
X620874Y775232D01*
X620555Y775648D01*
X620292Y776102D01*
X620092Y776586D01*
X619956Y777093D01*
X619888Y777613D01*
X619888Y778137D01*
X619956Y778657D01*
X620092Y779164D01*
X620292Y779648D01*
X620555Y780102D01*
X620874Y780518D01*
X621244Y780889D01*
X621660Y781208D01*
X622115Y781470D01*
X622599Y781671D01*
X623105Y781807D01*
X623625Y781875D01*
X624150Y781875D01*
X624670Y781807D01*
X625176Y781671D01*
X625660Y781470D01*
X626115Y781208D01*
X626531Y780889D01*
X626901Y780518D01*
X627221Y780102D01*
X627483Y779648D01*
X627683Y779164D01*
X627819Y778657D01*
X627888Y778137D01*
X627888Y777613D01*
X669163Y777613D02*
X669094Y777093D01*
X668958Y776586D01*
X668758Y776102D01*
X668496Y775648D01*
X668176Y775232D01*
X667806Y774861D01*
X667390Y774542D01*
X666935Y774280D01*
X666451Y774079D01*
X665945Y773943D01*
X665425Y773875D01*
X664900Y773875D01*
X664380Y773943D01*
X663874Y774079D01*
X663390Y774280D01*
X662935Y774542D01*
X662519Y774861D01*
X662149Y775232D01*
X661830Y775648D01*
X661567Y776102D01*
X661367Y776586D01*
X661231Y777093D01*
X661163Y777613D01*
X661163Y778137D01*
X661231Y778657D01*
X661367Y779164D01*
X661567Y779648D01*
X661830Y780102D01*
X662149Y780518D01*
X662519Y780889D01*
X662935Y781208D01*
X663390Y781470D01*
X663874Y781671D01*
X664380Y781807D01*
X664900Y781875D01*
X665425Y781875D01*
X665945Y781807D01*
X666451Y781671D01*
X666935Y781470D01*
X667390Y781208D01*
X667806Y780889D01*
X668176Y780518D01*
X668496Y780102D01*
X668758Y779648D01*
X668958Y779164D01*
X669094Y778657D01*
X669163Y778137D01*
X669163Y777613D01*
X483425Y777613D02*
X483357Y777093D01*
X483221Y776586D01*
X483020Y776102D01*
X482758Y775648D01*
X482439Y775232D01*
X482068Y774861D01*
X481652Y774542D01*
X481198Y774280D01*
X480714Y774079D01*
X480207Y773943D01*
X479687Y773875D01*
X479163Y773875D01*
X478643Y773943D01*
X478136Y774079D01*
X477652Y774280D01*
X477198Y774542D01*
X476782Y774861D01*
X476411Y775232D01*
X476092Y775648D01*
X475830Y776102D01*
X475629Y776586D01*
X475493Y777093D01*
X475425Y777613D01*
X475425Y778137D01*
X475493Y778657D01*
X475629Y779164D01*
X475830Y779648D01*
X476092Y780102D01*
X476411Y780518D01*
X476782Y780889D01*
X477198Y781208D01*
X477652Y781470D01*
X478136Y781671D01*
X478643Y781807D01*
X479163Y781875D01*
X479687Y781875D01*
X480207Y781807D01*
X480714Y781671D01*
X481198Y781470D01*
X481652Y781208D01*
X482068Y780889D01*
X482439Y780518D01*
X482758Y780102D01*
X483020Y779648D01*
X483221Y779164D01*
X483357Y778657D01*
X483425Y778137D01*
X483425Y777613D01*
X442150Y777613D02*
X442082Y777093D01*
X441946Y776586D01*
X441745Y776102D01*
X441483Y775648D01*
X441164Y775232D01*
X440793Y774861D01*
X440377Y774542D01*
X439923Y774280D01*
X439439Y774079D01*
X438932Y773943D01*
X438412Y773875D01*
X437888Y773875D01*
X437368Y773943D01*
X436861Y774079D01*
X436377Y774280D01*
X435923Y774542D01*
X435507Y774861D01*
X435136Y775232D01*
X434817Y775648D01*
X434555Y776102D01*
X434354Y776586D01*
X434218Y777093D01*
X434150Y777613D01*
X434150Y778137D01*
X434218Y778657D01*
X434354Y779164D01*
X434555Y779648D01*
X434817Y780102D01*
X435136Y780518D01*
X435507Y780889D01*
X435923Y781208D01*
X436377Y781470D01*
X436861Y781671D01*
X437368Y781807D01*
X437888Y781875D01*
X438412Y781875D01*
X438932Y781807D01*
X439439Y781671D01*
X439923Y781470D01*
X440377Y781208D01*
X440793Y780889D01*
X441164Y780518D01*
X441483Y780102D01*
X441745Y779648D01*
X441946Y779164D01*
X442082Y778657D01*
X442150Y778137D01*
X442150Y777613D01*
X399288Y777613D02*
X399219Y777093D01*
X399083Y776586D01*
X398883Y776102D01*
X398621Y775648D01*
X398301Y775232D01*
X397931Y774861D01*
X397515Y774542D01*
X397060Y774280D01*
X396576Y774079D01*
X396070Y773943D01*
X395550Y773875D01*
X395025Y773875D01*
X394505Y773943D01*
X393999Y774079D01*
X393515Y774280D01*
X393060Y774542D01*
X392644Y774861D01*
X392274Y775232D01*
X391955Y775648D01*
X391692Y776102D01*
X391492Y776586D01*
X391356Y777093D01*
X391288Y777613D01*
X391288Y778137D01*
X391356Y778657D01*
X391492Y779164D01*
X391692Y779648D01*
X391955Y780102D01*
X392274Y780518D01*
X392644Y780889D01*
X393060Y781208D01*
X393515Y781470D01*
X393999Y781671D01*
X394505Y781807D01*
X395025Y781875D01*
X395550Y781875D01*
X396070Y781807D01*
X396576Y781671D01*
X397060Y781470D01*
X397515Y781208D01*
X397931Y780889D01*
X398301Y780518D01*
X398621Y780102D01*
X398883Y779648D01*
X399083Y779164D01*
X399219Y778657D01*
X399288Y778137D01*
X399288Y777613D01*
X356425Y777613D02*
X356357Y777093D01*
X356221Y776586D01*
X356020Y776102D01*
X355758Y775648D01*
X355439Y775232D01*
X355068Y774861D01*
X354652Y774542D01*
X354198Y774280D01*
X353714Y774079D01*
X353207Y773943D01*
X352687Y773875D01*
X352163Y773875D01*
X351643Y773943D01*
X351136Y774079D01*
X350652Y774280D01*
X350198Y774542D01*
X349782Y774861D01*
X349411Y775232D01*
X349092Y775648D01*
X348830Y776102D01*
X348629Y776586D01*
X348493Y777093D01*
X348425Y777613D01*
X348425Y778137D01*
X348493Y778657D01*
X348629Y779164D01*
X348830Y779648D01*
X349092Y780102D01*
X349411Y780518D01*
X349782Y780889D01*
X350198Y781208D01*
X350652Y781470D01*
X351136Y781671D01*
X351643Y781807D01*
X352163Y781875D01*
X352687Y781875D01*
X353207Y781807D01*
X353714Y781671D01*
X354198Y781470D01*
X354652Y781208D01*
X355068Y780889D01*
X355439Y780518D01*
X355758Y780102D01*
X356020Y779648D01*
X356221Y779164D01*
X356357Y778657D01*
X356425Y778137D01*
X356425Y777613D01*
X356425Y818888D02*
X356357Y818368D01*
X356221Y817861D01*
X356020Y817377D01*
X355758Y816923D01*
X355439Y816507D01*
X355068Y816136D01*
X354652Y815817D01*
X354198Y815555D01*
X353714Y815354D01*
X353207Y815218D01*
X352687Y815150D01*
X352163Y815150D01*
X351643Y815218D01*
X351136Y815354D01*
X350652Y815555D01*
X350198Y815817D01*
X349782Y816136D01*
X349411Y816507D01*
X349092Y816923D01*
X348830Y817377D01*
X348629Y817861D01*
X348493Y818368D01*
X348425Y818888D01*
X348425Y819412D01*
X348493Y819932D01*
X348629Y820439D01*
X348830Y820923D01*
X349092Y821377D01*
X349411Y821793D01*
X349782Y822164D01*
X350198Y822483D01*
X350652Y822745D01*
X351136Y822946D01*
X351643Y823082D01*
X352163Y823150D01*
X352687Y823150D01*
X353207Y823082D01*
X353714Y822946D01*
X354198Y822745D01*
X354652Y822483D01*
X355068Y822164D01*
X355439Y821793D01*
X355758Y821377D01*
X356020Y820923D01*
X356221Y820439D01*
X356357Y819932D01*
X356425Y819412D01*
X356425Y818888D01*
X356425Y861750D02*
X356357Y861230D01*
X356221Y860724D01*
X356020Y860240D01*
X355758Y859785D01*
X355439Y859369D01*
X355068Y858999D01*
X354652Y858680D01*
X354198Y858417D01*
X353714Y858217D01*
X353207Y858081D01*
X352687Y858013D01*
X352163Y858013D01*
X351643Y858081D01*
X351136Y858217D01*
X350652Y858417D01*
X350198Y858680D01*
X349782Y858999D01*
X349411Y859369D01*
X349092Y859785D01*
X348830Y860240D01*
X348629Y860724D01*
X348493Y861230D01*
X348425Y861750D01*
X348425Y862275D01*
X348493Y862795D01*
X348629Y863301D01*
X348830Y863785D01*
X349092Y864240D01*
X349411Y864656D01*
X349782Y865026D01*
X350198Y865346D01*
X350652Y865608D01*
X351136Y865808D01*
X351643Y865944D01*
X352163Y866013D01*
X352687Y866013D01*
X353207Y865944D01*
X353714Y865808D01*
X354198Y865608D01*
X354652Y865346D01*
X355068Y865026D01*
X355439Y864656D01*
X355758Y864240D01*
X356020Y863785D01*
X356221Y863301D01*
X356357Y862795D01*
X356425Y862275D01*
X356425Y861750D01*
X356425Y910963D02*
X356357Y910443D01*
X356221Y909936D01*
X356020Y909452D01*
X355758Y908998D01*
X355439Y908582D01*
X355068Y908211D01*
X354652Y907892D01*
X354198Y907630D01*
X353714Y907429D01*
X353207Y907293D01*
X352687Y907225D01*
X352163Y907225D01*
X351643Y907293D01*
X351136Y907429D01*
X350652Y907630D01*
X350198Y907892D01*
X349782Y908211D01*
X349411Y908582D01*
X349092Y908998D01*
X348830Y909452D01*
X348629Y909936D01*
X348493Y910443D01*
X348425Y910963D01*
X348425Y911487D01*
X348493Y912007D01*
X348629Y912514D01*
X348830Y912998D01*
X349092Y913452D01*
X349411Y913868D01*
X349782Y914239D01*
X350198Y914558D01*
X350652Y914820D01*
X351136Y915021D01*
X351643Y915157D01*
X352163Y915225D01*
X352687Y915225D01*
X353207Y915157D01*
X353714Y915021D01*
X354198Y914820D01*
X354652Y914558D01*
X355068Y914239D01*
X355439Y913868D01*
X355758Y913452D01*
X356020Y912998D01*
X356221Y912514D01*
X356357Y912007D01*
X356425Y911487D01*
X356425Y910963D01*
X356425Y950650D02*
X356357Y950130D01*
X356221Y949624D01*
X356020Y949140D01*
X355758Y948685D01*
X355439Y948269D01*
X355068Y947899D01*
X354652Y947580D01*
X354198Y947317D01*
X353714Y947117D01*
X353207Y946981D01*
X352687Y946913D01*
X352163Y946913D01*
X351643Y946981D01*
X351136Y947117D01*
X350652Y947317D01*
X350198Y947580D01*
X349782Y947899D01*
X349411Y948269D01*
X349092Y948685D01*
X348830Y949140D01*
X348629Y949624D01*
X348493Y950130D01*
X348425Y950650D01*
X348425Y951175D01*
X348493Y951695D01*
X348629Y952201D01*
X348830Y952685D01*
X349092Y953140D01*
X349411Y953556D01*
X349782Y953926D01*
X350198Y954246D01*
X350652Y954508D01*
X351136Y954708D01*
X351643Y954844D01*
X352163Y954913D01*
X352687Y954913D01*
X353207Y954844D01*
X353714Y954708D01*
X354198Y954508D01*
X354652Y954246D01*
X355068Y953926D01*
X355439Y953556D01*
X355758Y953140D01*
X356020Y952685D01*
X356221Y952201D01*
X356357Y951695D01*
X356425Y951175D01*
X356425Y950650D01*
X356425Y988750D02*
X356357Y988230D01*
X356221Y987724D01*
X356020Y987240D01*
X355758Y986785D01*
X355439Y986369D01*
X355068Y985999D01*
X354652Y985680D01*
X354198Y985417D01*
X353714Y985217D01*
X353207Y985081D01*
X352687Y985013D01*
X352163Y985013D01*
X351643Y985081D01*
X351136Y985217D01*
X350652Y985417D01*
X350198Y985680D01*
X349782Y985999D01*
X349411Y986369D01*
X349092Y986785D01*
X348830Y987240D01*
X348629Y987724D01*
X348493Y988230D01*
X348425Y988750D01*
X348425Y989275D01*
X348493Y989795D01*
X348629Y990301D01*
X348830Y990785D01*
X349092Y991240D01*
X349411Y991656D01*
X349782Y992026D01*
X350198Y992346D01*
X350652Y992608D01*
X351136Y992808D01*
X351643Y992944D01*
X352163Y993013D01*
X352687Y993013D01*
X353207Y992944D01*
X353714Y992808D01*
X354198Y992608D01*
X354652Y992346D01*
X355068Y992026D01*
X355439Y991656D01*
X355758Y991240D01*
X356020Y990785D01*
X356221Y990301D01*
X356357Y989795D01*
X356425Y989275D01*
X356425Y988750D01*
X318325Y777613D02*
X318257Y777093D01*
X318121Y776586D01*
X317920Y776102D01*
X317658Y775648D01*
X317339Y775232D01*
X316968Y774861D01*
X316552Y774542D01*
X316098Y774280D01*
X315614Y774079D01*
X315107Y773943D01*
X314587Y773875D01*
X314063Y773875D01*
X313543Y773943D01*
X313036Y774079D01*
X312552Y774280D01*
X312098Y774542D01*
X311682Y774861D01*
X311311Y775232D01*
X310992Y775648D01*
X310730Y776102D01*
X310529Y776586D01*
X310393Y777093D01*
X310325Y777613D01*
X310325Y778137D01*
X310393Y778657D01*
X310529Y779164D01*
X310730Y779648D01*
X310992Y780102D01*
X311311Y780518D01*
X311682Y780889D01*
X312098Y781208D01*
X312552Y781470D01*
X313036Y781671D01*
X313543Y781807D01*
X314063Y781875D01*
X314587Y781875D01*
X315107Y781807D01*
X315614Y781671D01*
X316098Y781470D01*
X316552Y781208D01*
X316968Y780889D01*
X317339Y780518D01*
X317658Y780102D01*
X317920Y779648D01*
X318121Y779164D01*
X318257Y778657D01*
X318325Y778137D01*
X318325Y777613D01*
X277050Y777613D02*
X276982Y777093D01*
X276846Y776586D01*
X276645Y776102D01*
X276383Y775648D01*
X276064Y775232D01*
X275693Y774861D01*
X275277Y774542D01*
X274823Y774280D01*
X274339Y774079D01*
X273832Y773943D01*
X273312Y773875D01*
X272788Y773875D01*
X272268Y773943D01*
X271761Y774079D01*
X271277Y774280D01*
X270823Y774542D01*
X270407Y774861D01*
X270036Y775232D01*
X269717Y775648D01*
X269455Y776102D01*
X269254Y776586D01*
X269118Y777093D01*
X269050Y777613D01*
X269050Y778137D01*
X269118Y778657D01*
X269254Y779164D01*
X269455Y779648D01*
X269717Y780102D01*
X270036Y780518D01*
X270407Y780889D01*
X270823Y781208D01*
X271277Y781470D01*
X271761Y781671D01*
X272268Y781807D01*
X272788Y781875D01*
X273312Y781875D01*
X273832Y781807D01*
X274339Y781671D01*
X274823Y781470D01*
X275277Y781208D01*
X275693Y780889D01*
X276064Y780518D01*
X276383Y780102D01*
X276645Y779648D01*
X276846Y779164D01*
X276982Y778657D01*
X277050Y778137D01*
X277050Y777613D01*
X229425Y777613D02*
X229357Y777093D01*
X229221Y776586D01*
X229020Y776102D01*
X228758Y775648D01*
X228439Y775232D01*
X228068Y774861D01*
X227652Y774542D01*
X227198Y774280D01*
X226714Y774079D01*
X226207Y773943D01*
X225687Y773875D01*
X225163Y773875D01*
X224643Y773943D01*
X224136Y774079D01*
X223652Y774280D01*
X223198Y774542D01*
X222782Y774861D01*
X222411Y775232D01*
X222092Y775648D01*
X221830Y776102D01*
X221629Y776586D01*
X221493Y777093D01*
X221425Y777613D01*
X221425Y778137D01*
X221493Y778657D01*
X221629Y779164D01*
X221830Y779648D01*
X222092Y780102D01*
X222411Y780518D01*
X222782Y780889D01*
X223198Y781208D01*
X223652Y781470D01*
X224136Y781671D01*
X224643Y781807D01*
X225163Y781875D01*
X225687Y781875D01*
X226207Y781807D01*
X226714Y781671D01*
X227198Y781470D01*
X227652Y781208D01*
X228068Y780889D01*
X228439Y780518D01*
X228758Y780102D01*
X229020Y779648D01*
X229221Y779164D01*
X229357Y778657D01*
X229425Y778137D01*
X229425Y777613D01*
X178625Y777613D02*
X178557Y777093D01*
X178421Y776586D01*
X178220Y776102D01*
X177958Y775648D01*
X177639Y775232D01*
X177268Y774861D01*
X176852Y774542D01*
X176398Y774280D01*
X175914Y774079D01*
X175407Y773943D01*
X174887Y773875D01*
X174363Y773875D01*
X173843Y773943D01*
X173336Y774079D01*
X172852Y774280D01*
X172398Y774542D01*
X171982Y774861D01*
X171611Y775232D01*
X171292Y775648D01*
X171030Y776102D01*
X170829Y776586D01*
X170693Y777093D01*
X170625Y777613D01*
X170625Y778137D01*
X170693Y778657D01*
X170829Y779164D01*
X171030Y779648D01*
X171292Y780102D01*
X171611Y780518D01*
X171982Y780889D01*
X172398Y781208D01*
X172852Y781470D01*
X173336Y781671D01*
X173843Y781807D01*
X174363Y781875D01*
X174887Y781875D01*
X175407Y781807D01*
X175914Y781671D01*
X176398Y781470D01*
X176852Y781208D01*
X177268Y780889D01*
X177639Y780518D01*
X177958Y780102D01*
X178220Y779648D01*
X178421Y779164D01*
X178557Y778657D01*
X178625Y778137D01*
X178625Y777613D01*
X178625Y822063D02*
X178557Y821543D01*
X178421Y821036D01*
X178220Y820552D01*
X177958Y820098D01*
X177639Y819682D01*
X177268Y819311D01*
X176852Y818992D01*
X176398Y818730D01*
X175914Y818529D01*
X175407Y818393D01*
X174887Y818325D01*
X174363Y818325D01*
X173843Y818393D01*
X173336Y818529D01*
X172852Y818730D01*
X172398Y818992D01*
X171982Y819311D01*
X171611Y819682D01*
X171292Y820098D01*
X171030Y820552D01*
X170829Y821036D01*
X170693Y821543D01*
X170625Y822063D01*
X170625Y822587D01*
X170693Y823107D01*
X170829Y823614D01*
X171030Y824098D01*
X171292Y824552D01*
X171611Y824968D01*
X171982Y825339D01*
X172398Y825658D01*
X172852Y825920D01*
X173336Y826121D01*
X173843Y826257D01*
X174363Y826325D01*
X174887Y826325D01*
X175407Y826257D01*
X175914Y826121D01*
X176398Y825920D01*
X176852Y825658D01*
X177268Y825339D01*
X177639Y824968D01*
X177958Y824552D01*
X178220Y824098D01*
X178421Y823614D01*
X178557Y823107D01*
X178625Y822587D01*
X178625Y822063D01*
X178625Y864925D02*
X178557Y864405D01*
X178421Y863899D01*
X178220Y863415D01*
X177958Y862960D01*
X177639Y862544D01*
X177268Y862174D01*
X176852Y861855D01*
X176398Y861592D01*
X175914Y861392D01*
X175407Y861256D01*
X174887Y861188D01*
X174363Y861188D01*
X173843Y861256D01*
X173336Y861392D01*
X172852Y861592D01*
X172398Y861855D01*
X171982Y862174D01*
X171611Y862544D01*
X171292Y862960D01*
X171030Y863415D01*
X170829Y863899D01*
X170693Y864405D01*
X170625Y864925D01*
X170625Y865450D01*
X170693Y865970D01*
X170829Y866476D01*
X171030Y866960D01*
X171292Y867415D01*
X171611Y867831D01*
X171982Y868201D01*
X172398Y868521D01*
X172852Y868783D01*
X173336Y868983D01*
X173843Y869119D01*
X174363Y869188D01*
X174887Y869188D01*
X175407Y869119D01*
X175914Y868983D01*
X176398Y868783D01*
X176852Y868521D01*
X177268Y868201D01*
X177639Y867831D01*
X177958Y867415D01*
X178220Y866960D01*
X178421Y866476D01*
X178557Y865970D01*
X178625Y865450D01*
X178625Y864925D01*
X178625Y912550D02*
X178557Y912030D01*
X178421Y911524D01*
X178220Y911040D01*
X177958Y910585D01*
X177639Y910169D01*
X177268Y909799D01*
X176852Y909480D01*
X176398Y909217D01*
X175914Y909017D01*
X175407Y908881D01*
X174887Y908813D01*
X174363Y908813D01*
X173843Y908881D01*
X173336Y909017D01*
X172852Y909217D01*
X172398Y909480D01*
X171982Y909799D01*
X171611Y910169D01*
X171292Y910585D01*
X171030Y911040D01*
X170829Y911524D01*
X170693Y912030D01*
X170625Y912550D01*
X170625Y913075D01*
X170693Y913595D01*
X170829Y914101D01*
X171030Y914585D01*
X171292Y915040D01*
X171611Y915456D01*
X171982Y915826D01*
X172398Y916146D01*
X172852Y916408D01*
X173336Y916608D01*
X173843Y916744D01*
X174363Y916813D01*
X174887Y916813D01*
X175407Y916744D01*
X175914Y916608D01*
X176398Y916408D01*
X176852Y916146D01*
X177268Y915826D01*
X177639Y915456D01*
X177958Y915040D01*
X178220Y914585D01*
X178421Y914101D01*
X178557Y913595D01*
X178625Y913075D01*
X178625Y912550D01*
X178625Y960175D02*
X178557Y959655D01*
X178421Y959149D01*
X178220Y958665D01*
X177958Y958210D01*
X177639Y957794D01*
X177268Y957424D01*
X176852Y957105D01*
X176398Y956842D01*
X175914Y956642D01*
X175407Y956506D01*
X174887Y956438D01*
X174363Y956438D01*
X173843Y956506D01*
X173336Y956642D01*
X172852Y956842D01*
X172398Y957105D01*
X171982Y957424D01*
X171611Y957794D01*
X171292Y958210D01*
X171030Y958665D01*
X170829Y959149D01*
X170693Y959655D01*
X170625Y960175D01*
X170625Y960700D01*
X170693Y961220D01*
X170829Y961726D01*
X171030Y962210D01*
X171292Y962665D01*
X171611Y963081D01*
X171982Y963451D01*
X172398Y963771D01*
X172852Y964033D01*
X173336Y964233D01*
X173843Y964369D01*
X174363Y964438D01*
X174887Y964438D01*
X175407Y964369D01*
X175914Y964233D01*
X176398Y964033D01*
X176852Y963771D01*
X177268Y963451D01*
X177639Y963081D01*
X177958Y962665D01*
X178220Y962210D01*
X178421Y961726D01*
X178557Y961220D01*
X178625Y960700D01*
X178625Y960175D01*
X135763Y777613D02*
X135694Y777093D01*
X135558Y776586D01*
X135358Y776102D01*
X135096Y775648D01*
X134776Y775232D01*
X134406Y774861D01*
X133990Y774542D01*
X133535Y774280D01*
X133051Y774079D01*
X132545Y773943D01*
X132025Y773875D01*
X131500Y773875D01*
X130980Y773943D01*
X130474Y774079D01*
X129990Y774280D01*
X129535Y774542D01*
X129119Y774861D01*
X128749Y775232D01*
X128430Y775648D01*
X128167Y776102D01*
X127967Y776586D01*
X127831Y777093D01*
X127763Y777613D01*
X127763Y778137D01*
X127831Y778657D01*
X127967Y779164D01*
X128167Y779648D01*
X128430Y780102D01*
X128749Y780518D01*
X129119Y780889D01*
X129535Y781208D01*
X129990Y781470D01*
X130474Y781671D01*
X130980Y781807D01*
X131500Y781875D01*
X132025Y781875D01*
X132545Y781807D01*
X133051Y781671D01*
X133535Y781470D01*
X133990Y781208D01*
X134406Y780889D01*
X134776Y780518D01*
X135096Y780102D01*
X135358Y779648D01*
X135558Y779164D01*
X135694Y778657D01*
X135763Y778137D01*
X135763Y777613D01*
X92900Y777613D02*
X92832Y777093D01*
X92696Y776586D01*
X92495Y776102D01*
X92233Y775648D01*
X91914Y775232D01*
X91543Y774861D01*
X91127Y774542D01*
X90673Y774280D01*
X90189Y774079D01*
X89682Y773943D01*
X89162Y773875D01*
X88638Y773875D01*
X88118Y773943D01*
X87611Y774079D01*
X87127Y774280D01*
X86673Y774542D01*
X86257Y774861D01*
X85886Y775232D01*
X85567Y775648D01*
X85305Y776102D01*
X85104Y776586D01*
X84968Y777093D01*
X84900Y777613D01*
X84900Y778137D01*
X84968Y778657D01*
X85104Y779164D01*
X85305Y779648D01*
X85567Y780102D01*
X85886Y780518D01*
X86257Y780889D01*
X86673Y781208D01*
X87127Y781470D01*
X87611Y781671D01*
X88118Y781807D01*
X88638Y781875D01*
X89162Y781875D01*
X89682Y781807D01*
X90189Y781671D01*
X90673Y781470D01*
X91127Y781208D01*
X91543Y780889D01*
X91914Y780518D01*
X92233Y780102D01*
X92495Y779648D01*
X92696Y779164D01*
X92832Y778657D01*
X92900Y778137D01*
X92900Y777613D01*
X53213Y777613D02*
X53144Y777093D01*
X53008Y776586D01*
X52808Y776102D01*
X52546Y775648D01*
X52226Y775232D01*
X51856Y774861D01*
X51440Y774542D01*
X50985Y774280D01*
X50501Y774079D01*
X49995Y773943D01*
X49475Y773875D01*
X48950Y773875D01*
X48430Y773943D01*
X47924Y774079D01*
X47440Y774280D01*
X46985Y774542D01*
X46569Y774861D01*
X46199Y775232D01*
X45880Y775648D01*
X45617Y776102D01*
X45417Y776586D01*
X45281Y777093D01*
X45213Y777613D01*
X45213Y778137D01*
X45281Y778657D01*
X45417Y779164D01*
X45617Y779648D01*
X45880Y780102D01*
X46199Y780518D01*
X46569Y780889D01*
X46985Y781208D01*
X47440Y781470D01*
X47924Y781671D01*
X48430Y781807D01*
X48950Y781875D01*
X49475Y781875D01*
X49995Y781807D01*
X50501Y781671D01*
X50985Y781470D01*
X51440Y781208D01*
X51856Y780889D01*
X52226Y780518D01*
X52546Y780102D01*
X52808Y779648D01*
X53008Y779164D01*
X53144Y778657D01*
X53213Y778137D01*
X53213Y777613D01*
X11938Y777613D02*
X11869Y777093D01*
X11733Y776586D01*
X11533Y776102D01*
X11271Y775648D01*
X10951Y775232D01*
X10581Y774861D01*
X10165Y774542D01*
X9710Y774280D01*
X9226Y774079D01*
X8720Y773943D01*
X8200Y773875D01*
X7675Y773875D01*
X7155Y773943D01*
X6649Y774079D01*
X6165Y774280D01*
X5710Y774542D01*
X5294Y774861D01*
X4924Y775232D01*
X4605Y775648D01*
X4342Y776102D01*
X4142Y776586D01*
X4006Y777093D01*
X3938Y777613D01*
X3938Y778137D01*
X4006Y778657D01*
X4142Y779164D01*
X4342Y779648D01*
X4605Y780102D01*
X4924Y780518D01*
X5294Y780889D01*
X5710Y781208D01*
X6165Y781470D01*
X6649Y781671D01*
X7155Y781807D01*
X7675Y781875D01*
X8200Y781875D01*
X8720Y781807D01*
X9226Y781671D01*
X9710Y781470D01*
X10165Y781208D01*
X10581Y780889D01*
X10951Y780518D01*
X11271Y780102D01*
X11533Y779648D01*
X11733Y779164D01*
X11869Y778657D01*
X11938Y778137D01*
X11938Y777613D01*
X577088Y504563D02*
X577019Y504043D01*
X576883Y503536D01*
X576683Y503052D01*
X576421Y502598D01*
X576101Y502182D01*
X575731Y501811D01*
X575315Y501492D01*
X574860Y501230D01*
X574376Y501029D01*
X573870Y500893D01*
X573350Y500825D01*
X572825Y500825D01*
X572305Y500893D01*
X571799Y501029D01*
X571315Y501230D01*
X570860Y501492D01*
X570444Y501811D01*
X570074Y502182D01*
X569755Y502598D01*
X569492Y503052D01*
X569292Y503536D01*
X569156Y504043D01*
X569088Y504563D01*
X569088Y505087D01*
X569156Y505607D01*
X569292Y506114D01*
X569492Y506598D01*
X569755Y507052D01*
X570074Y507468D01*
X570444Y507839D01*
X570860Y508158D01*
X571315Y508420D01*
X571799Y508621D01*
X572305Y508757D01*
X572825Y508825D01*
X573350Y508825D01*
X573870Y508757D01*
X574376Y508621D01*
X574860Y508420D01*
X575315Y508158D01*
X575731Y507839D01*
X576101Y507468D01*
X576421Y507052D01*
X576683Y506598D01*
X576883Y506114D01*
X577019Y505607D01*
X577088Y505087D01*
X577088Y504563D01*
X577088Y545838D02*
X577019Y545318D01*
X576883Y544811D01*
X576683Y544327D01*
X576421Y543873D01*
X576101Y543457D01*
X575731Y543086D01*
X575315Y542767D01*
X574860Y542505D01*
X574376Y542304D01*
X573870Y542168D01*
X573350Y542100D01*
X572825Y542100D01*
X572305Y542168D01*
X571799Y542304D01*
X571315Y542505D01*
X570860Y542767D01*
X570444Y543086D01*
X570074Y543457D01*
X569755Y543873D01*
X569492Y544327D01*
X569292Y544811D01*
X569156Y545318D01*
X569088Y545838D01*
X569088Y546362D01*
X569156Y546882D01*
X569292Y547389D01*
X569492Y547873D01*
X569755Y548327D01*
X570074Y548743D01*
X570444Y549114D01*
X570860Y549433D01*
X571315Y549695D01*
X571799Y549896D01*
X572305Y550032D01*
X572825Y550100D01*
X573350Y550100D01*
X573870Y550032D01*
X574376Y549896D01*
X574860Y549695D01*
X575315Y549433D01*
X575731Y549114D01*
X576101Y548743D01*
X576421Y548327D01*
X576683Y547873D01*
X576883Y547389D01*
X577019Y546882D01*
X577088Y546362D01*
X577088Y545838D01*
X577088Y587113D02*
X577019Y586593D01*
X576883Y586086D01*
X576683Y585602D01*
X576421Y585148D01*
X576101Y584732D01*
X575731Y584361D01*
X575315Y584042D01*
X574860Y583780D01*
X574376Y583579D01*
X573870Y583443D01*
X573350Y583375D01*
X572825Y583375D01*
X572305Y583443D01*
X571799Y583579D01*
X571315Y583780D01*
X570860Y584042D01*
X570444Y584361D01*
X570074Y584732D01*
X569755Y585148D01*
X569492Y585602D01*
X569292Y586086D01*
X569156Y586593D01*
X569088Y587113D01*
X569088Y587637D01*
X569156Y588157D01*
X569292Y588664D01*
X569492Y589148D01*
X569755Y589602D01*
X570074Y590018D01*
X570444Y590389D01*
X570860Y590708D01*
X571315Y590970D01*
X571799Y591171D01*
X572305Y591307D01*
X572825Y591375D01*
X573350Y591375D01*
X573870Y591307D01*
X574376Y591171D01*
X574860Y590970D01*
X575315Y590708D01*
X575731Y590389D01*
X576101Y590018D01*
X576421Y589602D01*
X576683Y589148D01*
X576883Y588664D01*
X577019Y588157D01*
X577088Y587637D01*
X577088Y587113D01*
X577088Y626800D02*
X577019Y626280D01*
X576883Y625774D01*
X576683Y625290D01*
X576421Y624835D01*
X576101Y624419D01*
X575731Y624049D01*
X575315Y623730D01*
X574860Y623467D01*
X574376Y623267D01*
X573870Y623131D01*
X573350Y623063D01*
X572825Y623063D01*
X572305Y623131D01*
X571799Y623267D01*
X571315Y623467D01*
X570860Y623730D01*
X570444Y624049D01*
X570074Y624419D01*
X569755Y624835D01*
X569492Y625290D01*
X569292Y625774D01*
X569156Y626280D01*
X569088Y626800D01*
X569088Y627325D01*
X569156Y627845D01*
X569292Y628351D01*
X569492Y628835D01*
X569755Y629290D01*
X570074Y629706D01*
X570444Y630076D01*
X570860Y630396D01*
X571315Y630658D01*
X571799Y630858D01*
X572305Y630994D01*
X572825Y631063D01*
X573350Y631063D01*
X573870Y630994D01*
X574376Y630858D01*
X574860Y630658D01*
X575315Y630396D01*
X575731Y630076D01*
X576101Y629706D01*
X576421Y629290D01*
X576683Y628835D01*
X576883Y628351D01*
X577019Y627845D01*
X577088Y627325D01*
X577088Y626800D01*
X577088Y668075D02*
X577019Y667555D01*
X576883Y667049D01*
X576683Y666565D01*
X576421Y666110D01*
X576101Y665694D01*
X575731Y665324D01*
X575315Y665005D01*
X574860Y664742D01*
X574376Y664542D01*
X573870Y664406D01*
X573350Y664338D01*
X572825Y664338D01*
X572305Y664406D01*
X571799Y664542D01*
X571315Y664742D01*
X570860Y665005D01*
X570444Y665324D01*
X570074Y665694D01*
X569755Y666110D01*
X569492Y666565D01*
X569292Y667049D01*
X569156Y667555D01*
X569088Y668075D01*
X569088Y668600D01*
X569156Y669120D01*
X569292Y669626D01*
X569492Y670110D01*
X569755Y670565D01*
X570074Y670981D01*
X570444Y671351D01*
X570860Y671671D01*
X571315Y671933D01*
X571799Y672133D01*
X572305Y672269D01*
X572825Y672338D01*
X573350Y672338D01*
X573870Y672269D01*
X574376Y672133D01*
X574860Y671933D01*
X575315Y671671D01*
X575731Y671351D01*
X576101Y670981D01*
X576421Y670565D01*
X576683Y670110D01*
X576883Y669626D01*
X577019Y669120D01*
X577088Y668600D01*
X577088Y668075D01*
X577088Y714113D02*
X577019Y713593D01*
X576883Y713086D01*
X576683Y712602D01*
X576421Y712148D01*
X576101Y711732D01*
X575731Y711361D01*
X575315Y711042D01*
X574860Y710780D01*
X574376Y710579D01*
X573870Y710443D01*
X573350Y710375D01*
X572825Y710375D01*
X572305Y710443D01*
X571799Y710579D01*
X571315Y710780D01*
X570860Y711042D01*
X570444Y711361D01*
X570074Y711732D01*
X569755Y712148D01*
X569492Y712602D01*
X569292Y713086D01*
X569156Y713593D01*
X569088Y714113D01*
X569088Y714637D01*
X569156Y715157D01*
X569292Y715664D01*
X569492Y716148D01*
X569755Y716602D01*
X570074Y717018D01*
X570444Y717389D01*
X570860Y717708D01*
X571315Y717970D01*
X571799Y718171D01*
X572305Y718307D01*
X572825Y718375D01*
X573350Y718375D01*
X573870Y718307D01*
X574376Y718171D01*
X574860Y717970D01*
X575315Y717708D01*
X575731Y717389D01*
X576101Y717018D01*
X576421Y716602D01*
X576683Y716148D01*
X576883Y715664D01*
X577019Y715157D01*
X577088Y714637D01*
X577088Y714113D01*
X577088Y749038D02*
X577019Y748518D01*
X576883Y748011D01*
X576683Y747527D01*
X576421Y747073D01*
X576101Y746657D01*
X575731Y746286D01*
X575315Y745967D01*
X574860Y745705D01*
X574376Y745504D01*
X573870Y745368D01*
X573350Y745300D01*
X572825Y745300D01*
X572305Y745368D01*
X571799Y745504D01*
X571315Y745705D01*
X570860Y745967D01*
X570444Y746286D01*
X570074Y746657D01*
X569755Y747073D01*
X569492Y747527D01*
X569292Y748011D01*
X569156Y748518D01*
X569088Y749038D01*
X569088Y749562D01*
X569156Y750082D01*
X569292Y750589D01*
X569492Y751073D01*
X569755Y751527D01*
X570074Y751943D01*
X570444Y752314D01*
X570860Y752633D01*
X571315Y752895D01*
X571799Y753096D01*
X572305Y753232D01*
X572825Y753300D01*
X573350Y753300D01*
X573870Y753232D01*
X574376Y753096D01*
X574860Y752895D01*
X575315Y752633D01*
X575731Y752314D01*
X576101Y751943D01*
X576421Y751527D01*
X576683Y751073D01*
X576883Y750589D01*
X577019Y750082D01*
X577088Y749562D01*
X577088Y749038D01*
X577088Y412488D02*
X577019Y411968D01*
X576883Y411461D01*
X576683Y410977D01*
X576421Y410523D01*
X576101Y410107D01*
X575731Y409736D01*
X575315Y409417D01*
X574860Y409155D01*
X574376Y408954D01*
X573870Y408818D01*
X573350Y408750D01*
X572825Y408750D01*
X572305Y408818D01*
X571799Y408954D01*
X571315Y409155D01*
X570860Y409417D01*
X570444Y409736D01*
X570074Y410107D01*
X569755Y410523D01*
X569492Y410977D01*
X569292Y411461D01*
X569156Y411968D01*
X569088Y412488D01*
X569088Y413012D01*
X569156Y413532D01*
X569292Y414039D01*
X569492Y414523D01*
X569755Y414977D01*
X570074Y415393D01*
X570444Y415764D01*
X570860Y416083D01*
X571315Y416345D01*
X571799Y416546D01*
X572305Y416682D01*
X572825Y416750D01*
X573350Y416750D01*
X573870Y416682D01*
X574376Y416546D01*
X574860Y416345D01*
X575315Y416083D01*
X575731Y415764D01*
X576101Y415393D01*
X576421Y414977D01*
X576683Y414523D01*
X576883Y414039D01*
X577019Y413532D01*
X577088Y413012D01*
X577088Y412488D01*
X577088Y369625D02*
X577019Y369105D01*
X576883Y368599D01*
X576683Y368115D01*
X576421Y367660D01*
X576101Y367244D01*
X575731Y366874D01*
X575315Y366555D01*
X574860Y366292D01*
X574376Y366092D01*
X573870Y365956D01*
X573350Y365888D01*
X572825Y365888D01*
X572305Y365956D01*
X571799Y366092D01*
X571315Y366292D01*
X570860Y366555D01*
X570444Y366874D01*
X570074Y367244D01*
X569755Y367660D01*
X569492Y368115D01*
X569292Y368599D01*
X569156Y369105D01*
X569088Y369625D01*
X569088Y370150D01*
X569156Y370670D01*
X569292Y371176D01*
X569492Y371660D01*
X569755Y372115D01*
X570074Y372531D01*
X570444Y372901D01*
X570860Y373221D01*
X571315Y373483D01*
X571799Y373683D01*
X572305Y373819D01*
X572825Y373888D01*
X573350Y373888D01*
X573870Y373819D01*
X574376Y373683D01*
X574860Y373483D01*
X575315Y373221D01*
X575731Y372901D01*
X576101Y372531D01*
X576421Y372115D01*
X576683Y371660D01*
X576883Y371176D01*
X577019Y370670D01*
X577088Y370150D01*
X577088Y369625D01*
X577088Y318825D02*
X577019Y318305D01*
X576883Y317799D01*
X576683Y317315D01*
X576421Y316860D01*
X576101Y316444D01*
X575731Y316074D01*
X575315Y315755D01*
X574860Y315492D01*
X574376Y315292D01*
X573870Y315156D01*
X573350Y315088D01*
X572825Y315088D01*
X572305Y315156D01*
X571799Y315292D01*
X571315Y315492D01*
X570860Y315755D01*
X570444Y316074D01*
X570074Y316444D01*
X569755Y316860D01*
X569492Y317315D01*
X569292Y317799D01*
X569156Y318305D01*
X569088Y318825D01*
X569088Y319350D01*
X569156Y319870D01*
X569292Y320376D01*
X569492Y320860D01*
X569755Y321315D01*
X570074Y321731D01*
X570444Y322101D01*
X570860Y322421D01*
X571315Y322683D01*
X571799Y322883D01*
X572305Y323019D01*
X572825Y323088D01*
X573350Y323088D01*
X573870Y323019D01*
X574376Y322883D01*
X574860Y322683D01*
X575315Y322421D01*
X575731Y322101D01*
X576101Y321731D01*
X576421Y321315D01*
X576683Y320860D01*
X576883Y320376D01*
X577019Y319870D01*
X577088Y319350D01*
X577088Y318825D01*
X577088Y275963D02*
X577019Y275443D01*
X576883Y274936D01*
X576683Y274452D01*
X576421Y273998D01*
X576101Y273582D01*
X575731Y273211D01*
X575315Y272892D01*
X574860Y272630D01*
X574376Y272429D01*
X573870Y272293D01*
X573350Y272225D01*
X572825Y272225D01*
X572305Y272293D01*
X571799Y272429D01*
X571315Y272630D01*
X570860Y272892D01*
X570444Y273211D01*
X570074Y273582D01*
X569755Y273998D01*
X569492Y274452D01*
X569292Y274936D01*
X569156Y275443D01*
X569088Y275963D01*
X569088Y276487D01*
X569156Y277007D01*
X569292Y277514D01*
X569492Y277998D01*
X569755Y278452D01*
X570074Y278868D01*
X570444Y279239D01*
X570860Y279558D01*
X571315Y279820D01*
X571799Y280021D01*
X572305Y280157D01*
X572825Y280225D01*
X573350Y280225D01*
X573870Y280157D01*
X574376Y280021D01*
X574860Y279820D01*
X575315Y279558D01*
X575731Y279239D01*
X576101Y278868D01*
X576421Y278452D01*
X576683Y277998D01*
X576883Y277514D01*
X577019Y277007D01*
X577088Y276487D01*
X577088Y275963D01*
X577088Y228338D02*
X577019Y227818D01*
X576883Y227311D01*
X576683Y226827D01*
X576421Y226373D01*
X576101Y225957D01*
X575731Y225586D01*
X575315Y225267D01*
X574860Y225005D01*
X574376Y224804D01*
X573870Y224668D01*
X573350Y224600D01*
X572825Y224600D01*
X572305Y224668D01*
X571799Y224804D01*
X571315Y225005D01*
X570860Y225267D01*
X570444Y225586D01*
X570074Y225957D01*
X569755Y226373D01*
X569492Y226827D01*
X569292Y227311D01*
X569156Y227818D01*
X569088Y228338D01*
X569088Y228862D01*
X569156Y229382D01*
X569292Y229889D01*
X569492Y230373D01*
X569755Y230827D01*
X570074Y231243D01*
X570444Y231614D01*
X570860Y231933D01*
X571315Y232195D01*
X571799Y232396D01*
X572305Y232532D01*
X572825Y232600D01*
X573350Y232600D01*
X573870Y232532D01*
X574376Y232396D01*
X574860Y232195D01*
X575315Y231933D01*
X575731Y231614D01*
X576101Y231243D01*
X576421Y230827D01*
X576683Y230373D01*
X576883Y229889D01*
X577019Y229382D01*
X577088Y228862D01*
X577088Y228338D01*
X577088Y191825D02*
X577019Y191305D01*
X576883Y190799D01*
X576683Y190315D01*
X576421Y189860D01*
X576101Y189444D01*
X575731Y189074D01*
X575315Y188755D01*
X574860Y188492D01*
X574376Y188292D01*
X573870Y188156D01*
X573350Y188088D01*
X572825Y188088D01*
X572305Y188156D01*
X571799Y188292D01*
X571315Y188492D01*
X570860Y188755D01*
X570444Y189074D01*
X570074Y189444D01*
X569755Y189860D01*
X569492Y190315D01*
X569292Y190799D01*
X569156Y191305D01*
X569088Y191825D01*
X569088Y192350D01*
X569156Y192870D01*
X569292Y193376D01*
X569492Y193860D01*
X569755Y194315D01*
X570074Y194731D01*
X570444Y195101D01*
X570860Y195421D01*
X571315Y195683D01*
X571799Y195883D01*
X572305Y196019D01*
X572825Y196088D01*
X573350Y196088D01*
X573870Y196019D01*
X574376Y195883D01*
X574860Y195683D01*
X575315Y195421D01*
X575731Y195101D01*
X576101Y194731D01*
X576421Y194315D01*
X576683Y193860D01*
X576883Y193376D01*
X577019Y192870D01*
X577088Y192350D01*
X577088Y191825D01*
X577088Y142613D02*
X577019Y142093D01*
X576883Y141586D01*
X576683Y141102D01*
X576421Y140648D01*
X576101Y140232D01*
X575731Y139861D01*
X575315Y139542D01*
X574860Y139280D01*
X574376Y139079D01*
X573870Y138943D01*
X573350Y138875D01*
X572825Y138875D01*
X572305Y138943D01*
X571799Y139079D01*
X571315Y139280D01*
X570860Y139542D01*
X570444Y139861D01*
X570074Y140232D01*
X569755Y140648D01*
X569492Y141102D01*
X569292Y141586D01*
X569156Y142093D01*
X569088Y142613D01*
X569088Y143137D01*
X569156Y143657D01*
X569292Y144164D01*
X569492Y144648D01*
X569755Y145102D01*
X570074Y145518D01*
X570444Y145889D01*
X570860Y146208D01*
X571315Y146470D01*
X571799Y146671D01*
X572305Y146807D01*
X572825Y146875D01*
X573350Y146875D01*
X573870Y146807D01*
X574376Y146671D01*
X574860Y146470D01*
X575315Y146208D01*
X575731Y145889D01*
X576101Y145518D01*
X576421Y145102D01*
X576683Y144648D01*
X576883Y144164D01*
X577019Y143657D01*
X577088Y143137D01*
X577088Y142613D01*
X889713Y750352D02*
X889636Y749283D01*
X889484Y748223D01*
X889256Y747176D01*
X888954Y746148D01*
X888580Y745144D01*
X888134Y744169D01*
X887621Y743229D01*
X887042Y742327D01*
X886400Y741469D01*
X885698Y740660D01*
X884940Y739902D01*
X884131Y739200D01*
X883273Y738558D01*
X882371Y737979D01*
X881431Y737466D01*
X880456Y737020D01*
X879453Y736646D01*
X878424Y736344D01*
X877378Y736116D01*
X876317Y735964D01*
X875248Y735888D01*
X874177Y735888D01*
X873108Y735964D01*
X872048Y736116D01*
X871001Y736344D01*
X869973Y736646D01*
X868969Y737020D01*
X867994Y737466D01*
X867054Y737979D01*
X866152Y738558D01*
X865294Y739200D01*
X864485Y739902D01*
X863727Y740660D01*
X863025Y741469D01*
X862383Y742327D01*
X861804Y743229D01*
X861291Y744169D01*
X860845Y745144D01*
X860471Y746148D01*
X860169Y747176D01*
X859941Y748223D01*
X859789Y749283D01*
X859713Y750352D01*
X859713Y751423D01*
X859789Y752492D01*
X859941Y753553D01*
X860169Y754599D01*
X860471Y755628D01*
X860845Y756631D01*
X861291Y757606D01*
X861804Y758546D01*
X862383Y759448D01*
X863025Y760306D01*
X863727Y761115D01*
X864485Y761873D01*
X865294Y762575D01*
X866152Y763217D01*
X867054Y763796D01*
X867994Y764309D01*
X868969Y764755D01*
X869973Y765129D01*
X871001Y765431D01*
X872048Y765659D01*
X873108Y765811D01*
X874177Y765888D01*
X875248Y765888D01*
X876317Y765811D01*
X877378Y765659D01*
X878424Y765431D01*
X879453Y765129D01*
X880456Y764755D01*
X881431Y764309D01*
X882371Y763796D01*
X883273Y763217D01*
X884131Y762575D01*
X884940Y761873D01*
X885698Y761115D01*
X886400Y760306D01*
X887042Y759448D01*
X887621Y758546D01*
X888134Y757606D01*
X888580Y756631D01*
X888954Y755628D01*
X889256Y754599D01*
X889484Y753553D01*
X889636Y752492D01*
X889713Y751423D01*
X889713Y750352D01*
X994488Y750352D02*
X994411Y749283D01*
X994259Y748223D01*
X994031Y747176D01*
X993729Y746148D01*
X993355Y745144D01*
X992909Y744169D01*
X992396Y743229D01*
X991817Y742327D01*
X991175Y741469D01*
X990473Y740660D01*
X989715Y739902D01*
X988906Y739200D01*
X988048Y738558D01*
X987146Y737979D01*
X986206Y737466D01*
X985231Y737020D01*
X984228Y736646D01*
X983199Y736344D01*
X982153Y736116D01*
X981092Y735964D01*
X980023Y735888D01*
X978952Y735888D01*
X977883Y735964D01*
X976823Y736116D01*
X975776Y736344D01*
X974748Y736646D01*
X973744Y737020D01*
X972769Y737466D01*
X971829Y737979D01*
X970927Y738558D01*
X970069Y739200D01*
X969260Y739902D01*
X968502Y740660D01*
X967800Y741469D01*
X967158Y742327D01*
X966579Y743229D01*
X966066Y744169D01*
X965620Y745144D01*
X965246Y746148D01*
X964944Y747176D01*
X964716Y748223D01*
X964564Y749283D01*
X964488Y750352D01*
X964488Y751423D01*
X964564Y752492D01*
X964716Y753553D01*
X964944Y754599D01*
X965246Y755628D01*
X965620Y756631D01*
X966066Y757606D01*
X966579Y758546D01*
X967158Y759448D01*
X967800Y760306D01*
X968502Y761115D01*
X969260Y761873D01*
X970069Y762575D01*
X970927Y763217D01*
X971829Y763796D01*
X972769Y764309D01*
X973744Y764755D01*
X974748Y765129D01*
X975776Y765431D01*
X976823Y765659D01*
X977883Y765811D01*
X978952Y765888D01*
X980023Y765888D01*
X981092Y765811D01*
X982153Y765659D01*
X983199Y765431D01*
X984228Y765129D01*
X985231Y764755D01*
X986206Y764309D01*
X987146Y763796D01*
X988048Y763217D01*
X988906Y762575D01*
X989715Y761873D01*
X990473Y761115D01*
X991175Y760306D01*
X991817Y759448D01*
X992396Y758546D01*
X992909Y757606D01*
X993355Y756631D01*
X993729Y755628D01*
X994031Y754599D01*
X994259Y753553D01*
X994411Y752492D01*
X994488Y751423D01*
X994488Y750352D01*
X889713Y505877D02*
X889636Y504808D01*
X889484Y503748D01*
X889256Y502701D01*
X888954Y501673D01*
X888580Y500669D01*
X888134Y499694D01*
X887621Y498754D01*
X887042Y497852D01*
X886400Y496994D01*
X885698Y496185D01*
X884940Y495427D01*
X884131Y494725D01*
X883273Y494083D01*
X882371Y493504D01*
X881431Y492991D01*
X880456Y492545D01*
X879453Y492171D01*
X878424Y491869D01*
X877378Y491641D01*
X876317Y491489D01*
X875248Y491413D01*
X874177Y491413D01*
X873108Y491489D01*
X872048Y491641D01*
X871001Y491869D01*
X869973Y492171D01*
X868969Y492545D01*
X867994Y492991D01*
X867054Y493504D01*
X866152Y494083D01*
X865294Y494725D01*
X864485Y495427D01*
X863727Y496185D01*
X863025Y496994D01*
X862383Y497852D01*
X861804Y498754D01*
X861291Y499694D01*
X860845Y500669D01*
X860471Y501673D01*
X860169Y502701D01*
X859941Y503748D01*
X859789Y504808D01*
X859713Y505877D01*
X859713Y506948D01*
X859789Y508017D01*
X859941Y509078D01*
X860169Y510124D01*
X860471Y511153D01*
X860845Y512156D01*
X861291Y513131D01*
X861804Y514071D01*
X862383Y514973D01*
X863025Y515831D01*
X863727Y516640D01*
X864485Y517398D01*
X865294Y518100D01*
X866152Y518742D01*
X867054Y519321D01*
X867994Y519834D01*
X868969Y520280D01*
X869973Y520654D01*
X871001Y520956D01*
X872048Y521184D01*
X873108Y521336D01*
X874177Y521413D01*
X875248Y521413D01*
X876317Y521336D01*
X877378Y521184D01*
X878424Y520956D01*
X879453Y520654D01*
X880456Y520280D01*
X881431Y519834D01*
X882371Y519321D01*
X883273Y518742D01*
X884131Y518100D01*
X884940Y517398D01*
X885698Y516640D01*
X886400Y515831D01*
X887042Y514973D01*
X887621Y514071D01*
X888134Y513131D01*
X888580Y512156D01*
X888954Y511153D01*
X889256Y510124D01*
X889484Y509078D01*
X889636Y508017D01*
X889713Y506948D01*
X889713Y505877D01*
X994488Y505877D02*
X994411Y504808D01*
X994259Y503748D01*
X994031Y502701D01*
X993729Y501673D01*
X993355Y500669D01*
X992909Y499694D01*
X992396Y498754D01*
X991817Y497852D01*
X991175Y496994D01*
X990473Y496185D01*
X989715Y495427D01*
X988906Y494725D01*
X988048Y494083D01*
X987146Y493504D01*
X986206Y492991D01*
X985231Y492545D01*
X984228Y492171D01*
X983199Y491869D01*
X982153Y491641D01*
X981092Y491489D01*
X980023Y491413D01*
X978952Y491413D01*
X977883Y491489D01*
X976823Y491641D01*
X975776Y491869D01*
X974748Y492171D01*
X973744Y492545D01*
X972769Y492991D01*
X971829Y493504D01*
X970927Y494083D01*
X970069Y494725D01*
X969260Y495427D01*
X968502Y496185D01*
X967800Y496994D01*
X967158Y497852D01*
X966579Y498754D01*
X966066Y499694D01*
X965620Y500669D01*
X965246Y501673D01*
X964944Y502701D01*
X964716Y503748D01*
X964564Y504808D01*
X964488Y505877D01*
X964488Y506948D01*
X964564Y508017D01*
X964716Y509078D01*
X964944Y510124D01*
X965246Y511153D01*
X965620Y512156D01*
X966066Y513131D01*
X966579Y514071D01*
X967158Y514973D01*
X967800Y515831D01*
X968502Y516640D01*
X969260Y517398D01*
X970069Y518100D01*
X970927Y518742D01*
X971829Y519321D01*
X972769Y519834D01*
X973744Y520280D01*
X974748Y520654D01*
X975776Y520956D01*
X976823Y521184D01*
X977883Y521336D01*
X978952Y521413D01*
X980023Y521413D01*
X981092Y521336D01*
X982153Y521184D01*
X983199Y520956D01*
X984228Y520654D01*
X985231Y520280D01*
X986206Y519834D01*
X987146Y519321D01*
X988048Y518742D01*
X988906Y518100D01*
X989715Y517398D01*
X990473Y516640D01*
X991175Y515831D01*
X991817Y514973D01*
X992396Y514071D01*
X992909Y513131D01*
X993355Y512156D01*
X993729Y511153D01*
X994031Y510124D01*
X994259Y509078D01*
X994411Y508017D01*
X994488Y506948D01*
X994488Y505877D01*
X532638Y142613D02*
X532569Y142093D01*
X532433Y141586D01*
X532233Y141102D01*
X531971Y140648D01*
X531651Y140232D01*
X531281Y139861D01*
X530865Y139542D01*
X530410Y139280D01*
X529926Y139079D01*
X529420Y138943D01*
X528900Y138875D01*
X528375Y138875D01*
X527855Y138943D01*
X527349Y139079D01*
X526865Y139280D01*
X526410Y139542D01*
X525994Y139861D01*
X525624Y140232D01*
X525305Y140648D01*
X525042Y141102D01*
X524842Y141586D01*
X524706Y142093D01*
X524638Y142613D01*
X524638Y143137D01*
X524706Y143657D01*
X524842Y144164D01*
X525042Y144648D01*
X525305Y145102D01*
X525624Y145518D01*
X525994Y145889D01*
X526410Y146208D01*
X526865Y146470D01*
X527349Y146671D01*
X527855Y146807D01*
X528375Y146875D01*
X528900Y146875D01*
X529420Y146807D01*
X529926Y146671D01*
X530410Y146470D01*
X530865Y146208D01*
X531281Y145889D01*
X531651Y145518D01*
X531971Y145102D01*
X532233Y144648D01*
X532433Y144164D01*
X532569Y143657D01*
X532638Y143137D01*
X532638Y142613D01*
X483425Y142613D02*
X483357Y142093D01*
X483221Y141586D01*
X483020Y141102D01*
X482758Y140648D01*
X482439Y140232D01*
X482068Y139861D01*
X481652Y139542D01*
X481198Y139280D01*
X480714Y139079D01*
X480207Y138943D01*
X479687Y138875D01*
X479163Y138875D01*
X478643Y138943D01*
X478136Y139079D01*
X477652Y139280D01*
X477198Y139542D01*
X476782Y139861D01*
X476411Y140232D01*
X476092Y140648D01*
X475830Y141102D01*
X475629Y141586D01*
X475493Y142093D01*
X475425Y142613D01*
X475425Y143137D01*
X475493Y143657D01*
X475629Y144164D01*
X475830Y144648D01*
X476092Y145102D01*
X476411Y145518D01*
X476782Y145889D01*
X477198Y146208D01*
X477652Y146470D01*
X478136Y146671D01*
X478643Y146807D01*
X479163Y146875D01*
X479687Y146875D01*
X480207Y146807D01*
X480714Y146671D01*
X481198Y146470D01*
X481652Y146208D01*
X482068Y145889D01*
X482439Y145518D01*
X482758Y145102D01*
X483020Y144648D01*
X483221Y144164D01*
X483357Y143657D01*
X483425Y143137D01*
X483425Y142613D01*
X432625Y142613D02*
X432557Y142093D01*
X432421Y141586D01*
X432220Y141102D01*
X431958Y140648D01*
X431639Y140232D01*
X431268Y139861D01*
X430852Y139542D01*
X430398Y139280D01*
X429914Y139079D01*
X429407Y138943D01*
X428887Y138875D01*
X428363Y138875D01*
X427843Y138943D01*
X427336Y139079D01*
X426852Y139280D01*
X426398Y139542D01*
X425982Y139861D01*
X425611Y140232D01*
X425292Y140648D01*
X425030Y141102D01*
X424829Y141586D01*
X424693Y142093D01*
X424625Y142613D01*
X424625Y143137D01*
X424693Y143657D01*
X424829Y144164D01*
X425030Y144648D01*
X425292Y145102D01*
X425611Y145518D01*
X425982Y145889D01*
X426398Y146208D01*
X426852Y146470D01*
X427336Y146671D01*
X427843Y146807D01*
X428363Y146875D01*
X428887Y146875D01*
X429407Y146807D01*
X429914Y146671D01*
X430398Y146470D01*
X430852Y146208D01*
X431268Y145889D01*
X431639Y145518D01*
X431958Y145102D01*
X432220Y144648D01*
X432421Y144164D01*
X432557Y143657D01*
X432625Y143137D01*
X432625Y142613D01*
X381825Y142613D02*
X381757Y142093D01*
X381621Y141586D01*
X381420Y141102D01*
X381158Y140648D01*
X380839Y140232D01*
X380468Y139861D01*
X380052Y139542D01*
X379598Y139280D01*
X379114Y139079D01*
X378607Y138943D01*
X378087Y138875D01*
X377563Y138875D01*
X377043Y138943D01*
X376536Y139079D01*
X376052Y139280D01*
X375598Y139542D01*
X375182Y139861D01*
X374811Y140232D01*
X374492Y140648D01*
X374230Y141102D01*
X374029Y141586D01*
X373893Y142093D01*
X373825Y142613D01*
X373825Y143137D01*
X373893Y143657D01*
X374029Y144164D01*
X374230Y144648D01*
X374492Y145102D01*
X374811Y145518D01*
X375182Y145889D01*
X375598Y146208D01*
X376052Y146470D01*
X376536Y146671D01*
X377043Y146807D01*
X377563Y146875D01*
X378087Y146875D01*
X378607Y146807D01*
X379114Y146671D01*
X379598Y146470D01*
X380052Y146208D01*
X380468Y145889D01*
X380839Y145518D01*
X381158Y145102D01*
X381420Y144648D01*
X381621Y144164D01*
X381757Y143657D01*
X381825Y143137D01*
X381825Y142613D01*
X324675Y142613D02*
X324607Y142093D01*
X324471Y141586D01*
X324270Y141102D01*
X324008Y140648D01*
X323689Y140232D01*
X323318Y139861D01*
X322902Y139542D01*
X322448Y139280D01*
X321964Y139079D01*
X321457Y138943D01*
X320937Y138875D01*
X320413Y138875D01*
X319893Y138943D01*
X319386Y139079D01*
X318902Y139280D01*
X318448Y139542D01*
X318032Y139861D01*
X317661Y140232D01*
X317342Y140648D01*
X317080Y141102D01*
X316879Y141586D01*
X316743Y142093D01*
X316675Y142613D01*
X316675Y143137D01*
X316743Y143657D01*
X316879Y144164D01*
X317080Y144648D01*
X317342Y145102D01*
X317661Y145518D01*
X318032Y145889D01*
X318448Y146208D01*
X318902Y146470D01*
X319386Y146671D01*
X319893Y146807D01*
X320413Y146875D01*
X320937Y146875D01*
X321457Y146807D01*
X321964Y146671D01*
X322448Y146470D01*
X322902Y146208D01*
X323318Y145889D01*
X323689Y145518D01*
X324008Y145102D01*
X324270Y144648D01*
X324471Y144164D01*
X324607Y143657D01*
X324675Y143137D01*
X324675Y142613D01*
X267525Y142613D02*
X267457Y142093D01*
X267321Y141586D01*
X267120Y141102D01*
X266858Y140648D01*
X266539Y140232D01*
X266168Y139861D01*
X265752Y139542D01*
X265298Y139280D01*
X264814Y139079D01*
X264307Y138943D01*
X263787Y138875D01*
X263263Y138875D01*
X262743Y138943D01*
X262236Y139079D01*
X261752Y139280D01*
X261298Y139542D01*
X260882Y139861D01*
X260511Y140232D01*
X260192Y140648D01*
X259930Y141102D01*
X259729Y141586D01*
X259593Y142093D01*
X259525Y142613D01*
X259525Y143137D01*
X259593Y143657D01*
X259729Y144164D01*
X259930Y144648D01*
X260192Y145102D01*
X260511Y145518D01*
X260882Y145889D01*
X261298Y146208D01*
X261752Y146470D01*
X262236Y146671D01*
X262743Y146807D01*
X263263Y146875D01*
X263787Y146875D01*
X264307Y146807D01*
X264814Y146671D01*
X265298Y146470D01*
X265752Y146208D01*
X266168Y145889D01*
X266539Y145518D01*
X266858Y145102D01*
X267120Y144648D01*
X267321Y144164D01*
X267457Y143657D01*
X267525Y143137D01*
X267525Y142613D01*
X213550Y142613D02*
X213482Y142093D01*
X213346Y141586D01*
X213145Y141102D01*
X212883Y140648D01*
X212564Y140232D01*
X212193Y139861D01*
X211777Y139542D01*
X211323Y139280D01*
X210839Y139079D01*
X210332Y138943D01*
X209812Y138875D01*
X209288Y138875D01*
X208768Y138943D01*
X208261Y139079D01*
X207777Y139280D01*
X207323Y139542D01*
X206907Y139861D01*
X206536Y140232D01*
X206217Y140648D01*
X205955Y141102D01*
X205754Y141586D01*
X205618Y142093D01*
X205550Y142613D01*
X205550Y143137D01*
X205618Y143657D01*
X205754Y144164D01*
X205955Y144648D01*
X206217Y145102D01*
X206536Y145518D01*
X206907Y145889D01*
X207323Y146208D01*
X207777Y146470D01*
X208261Y146671D01*
X208768Y146807D01*
X209288Y146875D01*
X209812Y146875D01*
X210332Y146807D01*
X210839Y146671D01*
X211323Y146470D01*
X211777Y146208D01*
X212193Y145889D01*
X212564Y145518D01*
X212883Y145102D01*
X213145Y144648D01*
X213346Y144164D01*
X213482Y143657D01*
X213550Y143137D01*
X213550Y142613D01*
X150050Y142613D02*
X149982Y142093D01*
X149846Y141586D01*
X149645Y141102D01*
X149383Y140648D01*
X149064Y140232D01*
X148693Y139861D01*
X148277Y139542D01*
X147823Y139280D01*
X147339Y139079D01*
X146832Y138943D01*
X146312Y138875D01*
X145788Y138875D01*
X145268Y138943D01*
X144761Y139079D01*
X144277Y139280D01*
X143823Y139542D01*
X143407Y139861D01*
X143036Y140232D01*
X142717Y140648D01*
X142455Y141102D01*
X142254Y141586D01*
X142118Y142093D01*
X142050Y142613D01*
X142050Y143137D01*
X142118Y143657D01*
X142254Y144164D01*
X142455Y144648D01*
X142717Y145102D01*
X143036Y145518D01*
X143407Y145889D01*
X143823Y146208D01*
X144277Y146470D01*
X144761Y146671D01*
X145268Y146807D01*
X145788Y146875D01*
X146312Y146875D01*
X146832Y146807D01*
X147339Y146671D01*
X147823Y146470D01*
X148277Y146208D01*
X148693Y145889D01*
X149064Y145518D01*
X149383Y145102D01*
X149645Y144648D01*
X149846Y144164D01*
X149982Y143657D01*
X150050Y143137D01*
X150050Y142613D01*
X91313Y142613D02*
X91244Y142093D01*
X91108Y141586D01*
X90908Y141102D01*
X90646Y140648D01*
X90326Y140232D01*
X89956Y139861D01*
X89540Y139542D01*
X89085Y139280D01*
X88601Y139079D01*
X88095Y138943D01*
X87575Y138875D01*
X87050Y138875D01*
X86530Y138943D01*
X86024Y139079D01*
X85540Y139280D01*
X85085Y139542D01*
X84669Y139861D01*
X84299Y140232D01*
X83980Y140648D01*
X83717Y141102D01*
X83517Y141586D01*
X83381Y142093D01*
X83313Y142613D01*
X83313Y143137D01*
X83381Y143657D01*
X83517Y144164D01*
X83717Y144648D01*
X83980Y145102D01*
X84299Y145518D01*
X84669Y145889D01*
X85085Y146208D01*
X85540Y146470D01*
X86024Y146671D01*
X86530Y146807D01*
X87050Y146875D01*
X87575Y146875D01*
X88095Y146807D01*
X88601Y146671D01*
X89085Y146470D01*
X89540Y146208D01*
X89956Y145889D01*
X90326Y145518D01*
X90646Y145102D01*
X90908Y144648D01*
X91108Y144164D01*
X91244Y143657D01*
X91313Y143137D01*
X91313Y142613D01*
X34163Y142613D02*
X34094Y142093D01*
X33958Y141586D01*
X33758Y141102D01*
X33496Y140648D01*
X33176Y140232D01*
X32806Y139861D01*
X32390Y139542D01*
X31935Y139280D01*
X31451Y139079D01*
X30945Y138943D01*
X30425Y138875D01*
X29900Y138875D01*
X29380Y138943D01*
X28874Y139079D01*
X28390Y139280D01*
X27935Y139542D01*
X27519Y139861D01*
X27149Y140232D01*
X26830Y140648D01*
X26567Y141102D01*
X26367Y141586D01*
X26231Y142093D01*
X26163Y142613D01*
X26163Y143137D01*
X26231Y143657D01*
X26367Y144164D01*
X26567Y144648D01*
X26830Y145102D01*
X27149Y145518D01*
X27519Y145889D01*
X27935Y146208D01*
X28390Y146470D01*
X28874Y146671D01*
X29380Y146807D01*
X29900Y146875D01*
X30425Y146875D01*
X30945Y146807D01*
X31451Y146671D01*
X31935Y146470D01*
X32390Y146208D01*
X32806Y145889D01*
X33176Y145518D01*
X33496Y145102D01*
X33758Y144648D01*
X33958Y144164D01*
X34094Y143657D01*
X34163Y143137D01*
X34163Y142613D01*
X629475Y142613D02*
X629407Y142093D01*
X629271Y141586D01*
X629070Y141102D01*
X628808Y140648D01*
X628489Y140232D01*
X628118Y139861D01*
X627702Y139542D01*
X627248Y139280D01*
X626764Y139079D01*
X626257Y138943D01*
X625737Y138875D01*
X625213Y138875D01*
X624693Y138943D01*
X624186Y139079D01*
X623702Y139280D01*
X623248Y139542D01*
X622832Y139861D01*
X622461Y140232D01*
X622142Y140648D01*
X621880Y141102D01*
X621679Y141586D01*
X621543Y142093D01*
X621475Y142613D01*
X621475Y143137D01*
X621543Y143657D01*
X621679Y144164D01*
X621880Y144648D01*
X622142Y145102D01*
X622461Y145518D01*
X622832Y145889D01*
X623248Y146208D01*
X623702Y146470D01*
X624186Y146671D01*
X624693Y146807D01*
X625213Y146875D01*
X625737Y146875D01*
X626257Y146807D01*
X626764Y146671D01*
X627248Y146470D01*
X627702Y146208D01*
X628118Y145889D01*
X628489Y145518D01*
X628808Y145102D01*
X629070Y144648D01*
X629271Y144164D01*
X629407Y143657D01*
X629475Y143137D01*
X629475Y142613D01*
X685038Y142613D02*
X684969Y142093D01*
X684833Y141586D01*
X684633Y141102D01*
X684371Y140648D01*
X684051Y140232D01*
X683681Y139861D01*
X683265Y139542D01*
X682810Y139280D01*
X682326Y139079D01*
X681820Y138943D01*
X681300Y138875D01*
X680775Y138875D01*
X680255Y138943D01*
X679749Y139079D01*
X679265Y139280D01*
X678810Y139542D01*
X678394Y139861D01*
X678024Y140232D01*
X677705Y140648D01*
X677442Y141102D01*
X677242Y141586D01*
X677106Y142093D01*
X677038Y142613D01*
X677038Y143137D01*
X677106Y143657D01*
X677242Y144164D01*
X677442Y144648D01*
X677705Y145102D01*
X678024Y145518D01*
X678394Y145889D01*
X678810Y146208D01*
X679265Y146470D01*
X679749Y146671D01*
X680255Y146807D01*
X680775Y146875D01*
X681300Y146875D01*
X681820Y146807D01*
X682326Y146671D01*
X682810Y146470D01*
X683265Y146208D01*
X683681Y145889D01*
X684051Y145518D01*
X684371Y145102D01*
X684633Y144648D01*
X684833Y144164D01*
X684969Y143657D01*
X685038Y143137D01*
X685038Y142613D01*
X748538Y142613D02*
X748469Y142093D01*
X748333Y141586D01*
X748133Y141102D01*
X747871Y140648D01*
X747551Y140232D01*
X747181Y139861D01*
X746765Y139542D01*
X746310Y139280D01*
X745826Y139079D01*
X745320Y138943D01*
X744800Y138875D01*
X744275Y138875D01*
X743755Y138943D01*
X743249Y139079D01*
X742765Y139280D01*
X742310Y139542D01*
X741894Y139861D01*
X741524Y140232D01*
X741205Y140648D01*
X740942Y141102D01*
X740742Y141586D01*
X740606Y142093D01*
X740538Y142613D01*
X740538Y143137D01*
X740606Y143657D01*
X740742Y144164D01*
X740942Y144648D01*
X741205Y145102D01*
X741524Y145518D01*
X741894Y145889D01*
X742310Y146208D01*
X742765Y146470D01*
X743249Y146671D01*
X743755Y146807D01*
X744275Y146875D01*
X744800Y146875D01*
X745320Y146807D01*
X745826Y146671D01*
X746310Y146470D01*
X746765Y146208D01*
X747181Y145889D01*
X747551Y145518D01*
X747871Y145102D01*
X748133Y144648D01*
X748333Y144164D01*
X748469Y143657D01*
X748538Y143137D01*
X748538Y142613D01*
X818388Y142613D02*
X818319Y142093D01*
X818183Y141586D01*
X817983Y141102D01*
X817721Y140648D01*
X817401Y140232D01*
X817031Y139861D01*
X816615Y139542D01*
X816160Y139280D01*
X815676Y139079D01*
X815170Y138943D01*
X814650Y138875D01*
X814125Y138875D01*
X813605Y138943D01*
X813099Y139079D01*
X812615Y139280D01*
X812160Y139542D01*
X811744Y139861D01*
X811374Y140232D01*
X811055Y140648D01*
X810792Y141102D01*
X810592Y141586D01*
X810456Y142093D01*
X810388Y142613D01*
X810388Y143137D01*
X810456Y143657D01*
X810592Y144164D01*
X810792Y144648D01*
X811055Y145102D01*
X811374Y145518D01*
X811744Y145889D01*
X812160Y146208D01*
X812615Y146470D01*
X813099Y146671D01*
X813605Y146807D01*
X814125Y146875D01*
X814650Y146875D01*
X815170Y146807D01*
X815676Y146671D01*
X816160Y146470D01*
X816615Y146208D01*
X817031Y145889D01*
X817401Y145518D01*
X817721Y145102D01*
X817983Y144648D01*
X818183Y144164D01*
X818319Y143657D01*
X818388Y143137D01*
X818388Y142613D01*
X877125Y142613D02*
X877057Y142093D01*
X876921Y141586D01*
X876720Y141102D01*
X876458Y140648D01*
X876139Y140232D01*
X875768Y139861D01*
X875352Y139542D01*
X874898Y139280D01*
X874414Y139079D01*
X873907Y138943D01*
X873387Y138875D01*
X872863Y138875D01*
X872343Y138943D01*
X871836Y139079D01*
X871352Y139280D01*
X870898Y139542D01*
X870482Y139861D01*
X870111Y140232D01*
X869792Y140648D01*
X869530Y141102D01*
X869329Y141586D01*
X869193Y142093D01*
X869125Y142613D01*
X869125Y143137D01*
X869193Y143657D01*
X869329Y144164D01*
X869530Y144648D01*
X869792Y145102D01*
X870111Y145518D01*
X870482Y145889D01*
X870898Y146208D01*
X871352Y146470D01*
X871836Y146671D01*
X872343Y146807D01*
X872863Y146875D01*
X873387Y146875D01*
X873907Y146807D01*
X874414Y146671D01*
X874898Y146470D01*
X875352Y146208D01*
X875768Y145889D01*
X876139Y145518D01*
X876458Y145102D01*
X876720Y144648D01*
X876921Y144164D01*
X877057Y143657D01*
X877125Y143137D01*
X877125Y142613D01*
X934275Y142613D02*
X934207Y142093D01*
X934071Y141586D01*
X933870Y141102D01*
X933608Y140648D01*
X933289Y140232D01*
X932918Y139861D01*
X932502Y139542D01*
X932048Y139280D01*
X931564Y139079D01*
X931057Y138943D01*
X930537Y138875D01*
X930013Y138875D01*
X929493Y138943D01*
X928986Y139079D01*
X928502Y139280D01*
X928048Y139542D01*
X927632Y139861D01*
X927261Y140232D01*
X926942Y140648D01*
X926680Y141102D01*
X926479Y141586D01*
X926343Y142093D01*
X926275Y142613D01*
X926275Y143137D01*
X926343Y143657D01*
X926479Y144164D01*
X926680Y144648D01*
X926942Y145102D01*
X927261Y145518D01*
X927632Y145889D01*
X928048Y146208D01*
X928502Y146470D01*
X928986Y146671D01*
X929493Y146807D01*
X930013Y146875D01*
X930537Y146875D01*
X931057Y146807D01*
X931564Y146671D01*
X932048Y146470D01*
X932502Y146208D01*
X932918Y145889D01*
X933289Y145518D01*
X933608Y145102D01*
X933870Y144648D01*
X934071Y144164D01*
X934207Y143657D01*
X934275Y143137D01*
X934275Y142613D01*
X989838Y142613D02*
X989769Y142093D01*
X989633Y141586D01*
X989433Y141102D01*
X989171Y140648D01*
X988851Y140232D01*
X988481Y139861D01*
X988065Y139542D01*
X987610Y139280D01*
X987126Y139079D01*
X986620Y138943D01*
X986100Y138875D01*
X985575Y138875D01*
X985055Y138943D01*
X984549Y139079D01*
X984065Y139280D01*
X983610Y139542D01*
X983194Y139861D01*
X982824Y140232D01*
X982505Y140648D01*
X982242Y141102D01*
X982042Y141586D01*
X981906Y142093D01*
X981838Y142613D01*
X981838Y143137D01*
X981906Y143657D01*
X982042Y144164D01*
X982242Y144648D01*
X982505Y145102D01*
X982824Y145518D01*
X983194Y145889D01*
X983610Y146208D01*
X984065Y146470D01*
X984549Y146671D01*
X985055Y146807D01*
X985575Y146875D01*
X986100Y146875D01*
X986620Y146807D01*
X987126Y146671D01*
X987610Y146470D01*
X988065Y146208D01*
X988481Y145889D01*
X988851Y145518D01*
X989171Y145102D01*
X989433Y144648D01*
X989633Y144164D01*
X989769Y143657D01*
X989838Y143137D01*
X989838Y142613D01*
X213638Y104578D02*
X213576Y104190D01*
X213454Y103815D01*
X213276Y103465D01*
X213044Y103146D01*
X212766Y102868D01*
X212448Y102637D01*
X212097Y102458D01*
X211723Y102337D01*
X211334Y102275D01*
X210941Y102275D01*
X210552Y102337D01*
X210178Y102458D01*
X209827Y102637D01*
X209509Y102868D01*
X209231Y103146D01*
X208999Y103465D01*
X208821Y103815D01*
X208699Y104190D01*
X208638Y104578D01*
X208638Y104972D01*
X208699Y105360D01*
X208821Y105735D01*
X208999Y106085D01*
X209231Y106404D01*
X209509Y106682D01*
X209827Y106913D01*
X210178Y107092D01*
X210552Y107213D01*
X210941Y107275D01*
X211334Y107275D01*
X211723Y107213D01*
X212097Y107092D01*
X212448Y106913D01*
X212766Y106682D01*
X213044Y106404D01*
X213276Y106085D01*
X213454Y105735D01*
X213576Y105360D01*
X213638Y104972D01*
X213638Y104578D01*
X226838Y104539D02*
X226764Y104073D01*
X226618Y103623D01*
X226403Y103203D01*
X226126Y102821D01*
X225792Y102487D01*
X225410Y102209D01*
X224989Y101995D01*
X224540Y101849D01*
X224074Y101775D01*
X223601Y101775D01*
X223135Y101849D01*
X222686Y101995D01*
X222265Y102209D01*
X221883Y102487D01*
X221549Y102821D01*
X221272Y103203D01*
X221057Y103623D01*
X220911Y104073D01*
X220838Y104539D01*
X220838Y105011D01*
X220911Y105478D01*
X221057Y105927D01*
X221272Y106347D01*
X221549Y106729D01*
X221883Y107063D01*
X222265Y107341D01*
X222686Y107555D01*
X223135Y107701D01*
X223601Y107775D01*
X224074Y107775D01*
X224540Y107701D01*
X224989Y107555D01*
X225410Y107341D01*
X225792Y107063D01*
X226126Y106729D01*
X226403Y106347D01*
X226618Y105927D01*
X226764Y105478D01*
X226838Y105011D01*
X226838Y104539D01*
X241625Y104546D02*
X241565Y104091D01*
X241446Y103648D01*
X241271Y103224D01*
X241041Y102826D01*
X240762Y102462D01*
X240438Y102138D01*
X240074Y101859D01*
X239676Y101629D01*
X239252Y101454D01*
X238809Y101335D01*
X238354Y101275D01*
X237896Y101275D01*
X237441Y101335D01*
X236998Y101454D01*
X236574Y101629D01*
X236176Y101859D01*
X235812Y102138D01*
X235488Y102462D01*
X235209Y102826D01*
X234979Y103224D01*
X234804Y103648D01*
X234685Y104091D01*
X234625Y104546D01*
X234625Y105004D01*
X234685Y105459D01*
X234804Y105902D01*
X234979Y106326D01*
X235209Y106724D01*
X235488Y107088D01*
X235812Y107412D01*
X236176Y107691D01*
X236574Y107921D01*
X236998Y108096D01*
X237441Y108215D01*
X237896Y108275D01*
X238354Y108275D01*
X238809Y108215D01*
X239252Y108096D01*
X239676Y107921D01*
X240074Y107691D01*
X240438Y107412D01*
X240762Y107088D01*
X241041Y106724D01*
X241271Y106326D01*
X241446Y105902D01*
X241565Y105459D01*
X241625Y105004D01*
X241625Y104546D01*
X258000Y104513D02*
X257932Y103993D01*
X257796Y103486D01*
X257595Y103002D01*
X257333Y102548D01*
X257014Y102132D01*
X256643Y101761D01*
X256227Y101442D01*
X255773Y101180D01*
X255289Y100979D01*
X254782Y100843D01*
X254262Y100775D01*
X253738Y100775D01*
X253218Y100843D01*
X252711Y100979D01*
X252227Y101180D01*
X251773Y101442D01*
X251357Y101761D01*
X250986Y102132D01*
X250667Y102548D01*
X250405Y103002D01*
X250204Y103486D01*
X250068Y103993D01*
X250000Y104513D01*
X250000Y105037D01*
X250068Y105557D01*
X250204Y106064D01*
X250405Y106548D01*
X250667Y107002D01*
X250986Y107418D01*
X251357Y107789D01*
X251773Y108108D01*
X252227Y108370D01*
X252711Y108571D01*
X253218Y108707D01*
X253738Y108775D01*
X254262Y108775D01*
X254782Y108707D01*
X255289Y108571D01*
X255773Y108370D01*
X256227Y108108D01*
X256643Y107789D01*
X257014Y107418D01*
X257333Y107002D01*
X257595Y106548D01*
X257796Y106064D01*
X257932Y105557D01*
X258000Y105037D01*
X258000Y104513D01*
X275963Y104480D02*
X275886Y103895D01*
X275733Y103325D01*
X275507Y102780D01*
X275212Y102270D01*
X274853Y101802D01*
X274436Y101384D01*
X273968Y101025D01*
X273457Y100730D01*
X272912Y100505D01*
X272342Y100352D01*
X271757Y100275D01*
X271168Y100275D01*
X270583Y100352D01*
X270013Y100505D01*
X269468Y100730D01*
X268957Y101025D01*
X268489Y101384D01*
X268072Y101802D01*
X267713Y102270D01*
X267418Y102780D01*
X267192Y103325D01*
X267040Y103895D01*
X266963Y104480D01*
X266963Y105070D01*
X267040Y105655D01*
X267192Y106225D01*
X267418Y106770D01*
X267713Y107280D01*
X268072Y107748D01*
X268489Y108166D01*
X268957Y108525D01*
X269468Y108820D01*
X270013Y109045D01*
X270583Y109198D01*
X271168Y109275D01*
X271757Y109275D01*
X272342Y109198D01*
X272912Y109045D01*
X273457Y108820D01*
X273968Y108525D01*
X274436Y108166D01*
X274853Y107748D01*
X275212Y107280D01*
X275507Y106770D01*
X275733Y106225D01*
X275886Y105655D01*
X275963Y105070D01*
X275963Y104480D01*
X295513Y104494D02*
X295450Y103936D01*
X295325Y103389D01*
X295139Y102859D01*
X294896Y102353D01*
X294597Y101877D01*
X294247Y101438D01*
X293849Y101041D01*
X293410Y100691D01*
X292935Y100392D01*
X292429Y100148D01*
X291899Y99963D01*
X291351Y99838D01*
X290793Y99775D01*
X290232Y99775D01*
X289674Y99838D01*
X289126Y99963D01*
X288596Y100148D01*
X288090Y100392D01*
X287615Y100691D01*
X287176Y101041D01*
X286778Y101438D01*
X286428Y101877D01*
X286130Y102353D01*
X285886Y102859D01*
X285700Y103389D01*
X285575Y103936D01*
X285513Y104494D01*
X285513Y105056D01*
X285575Y105614D01*
X285700Y106161D01*
X285886Y106691D01*
X286130Y107197D01*
X286428Y107673D01*
X286778Y108112D01*
X287176Y108509D01*
X287615Y108859D01*
X288090Y109158D01*
X288596Y109402D01*
X289126Y109587D01*
X289674Y109712D01*
X290232Y109775D01*
X290793Y109775D01*
X291351Y109712D01*
X291899Y109587D01*
X292429Y109402D01*
X292935Y109158D01*
X293410Y108859D01*
X293849Y108509D01*
X294247Y108112D01*
X294597Y107673D01*
X294896Y107197D01*
X295139Y106691D01*
X295325Y106161D01*
X295450Y105614D01*
X295513Y105056D01*
X295513Y104494D01*
X320238Y104407D02*
X320165Y103673D01*
X320022Y102950D01*
X319808Y102245D01*
X319526Y101564D01*
X319178Y100915D01*
X318769Y100302D01*
X318301Y99732D01*
X317780Y99211D01*
X317211Y98744D01*
X316598Y98334D01*
X315948Y97987D01*
X315267Y97705D01*
X314562Y97491D01*
X313839Y97347D01*
X313106Y97275D01*
X312369Y97275D01*
X311636Y97347D01*
X310913Y97491D01*
X310208Y97705D01*
X309527Y97987D01*
X308877Y98334D01*
X308264Y98744D01*
X307695Y99211D01*
X307174Y99732D01*
X306706Y100302D01*
X306297Y100915D01*
X305949Y101564D01*
X305667Y102245D01*
X305454Y102950D01*
X305310Y103673D01*
X305238Y104407D01*
X305238Y105143D01*
X305310Y105877D01*
X305454Y106600D01*
X305667Y107305D01*
X305949Y107986D01*
X306297Y108635D01*
X306706Y109248D01*
X307174Y109818D01*
X307695Y110339D01*
X308264Y110806D01*
X308877Y111216D01*
X309527Y111563D01*
X310208Y111845D01*
X310913Y112059D01*
X311636Y112203D01*
X312369Y112275D01*
X313106Y112275D01*
X313839Y112203D01*
X314562Y112059D01*
X315267Y111845D01*
X315948Y111563D01*
X316598Y111216D01*
X317211Y110806D01*
X317780Y110339D01*
X318301Y109818D01*
X318769Y109248D01*
X319178Y108635D01*
X319526Y107986D01*
X319808Y107305D01*
X320022Y106600D01*
X320165Y105877D01*
X320238Y105143D01*
X320238Y104407D01*
X348138Y104338D02*
X348061Y103469D01*
X347910Y102609D01*
X347684Y101765D01*
X347385Y100945D01*
X347016Y100153D01*
X346579Y99397D01*
X346079Y98682D01*
X345517Y98013D01*
X344900Y97395D01*
X344231Y96834D01*
X343516Y96333D01*
X342759Y95896D01*
X341968Y95527D01*
X341147Y95229D01*
X340304Y95003D01*
X339444Y94851D01*
X338574Y94775D01*
X337701Y94775D01*
X336831Y94851D01*
X335971Y95003D01*
X335128Y95229D01*
X334307Y95527D01*
X333516Y95896D01*
X332759Y96333D01*
X332044Y96834D01*
X331375Y97395D01*
X330758Y98013D01*
X330196Y98682D01*
X329696Y99397D01*
X329259Y100153D01*
X328890Y100945D01*
X328591Y101765D01*
X328365Y102609D01*
X328214Y103469D01*
X328138Y104338D01*
X328138Y105212D01*
X328214Y106082D01*
X328365Y106941D01*
X328591Y107785D01*
X328890Y108605D01*
X329259Y109397D01*
X329696Y110153D01*
X330196Y110868D01*
X330758Y111537D01*
X331375Y112155D01*
X332044Y112716D01*
X332759Y113217D01*
X333516Y113654D01*
X334307Y114023D01*
X335128Y114321D01*
X335971Y114547D01*
X336831Y114699D01*
X337701Y114775D01*
X338574Y114775D01*
X339444Y114699D01*
X340304Y114547D01*
X341147Y114321D01*
X341968Y114023D01*
X342759Y113654D01*
X343516Y113217D01*
X344231Y112716D01*
X344900Y112155D01*
X345517Y111537D01*
X346079Y110868D01*
X346579Y110153D01*
X347016Y109397D01*
X347385Y108605D01*
X347684Y107785D01*
X347910Y106941D01*
X348061Y106082D01*
X348138Y105212D01*
X348138Y104338D01*
X382388Y104284D02*
X382310Y103305D01*
X382157Y102335D01*
X381927Y101379D01*
X381624Y100445D01*
X381248Y99538D01*
X380802Y98663D01*
X380289Y97825D01*
X379712Y97030D01*
X379074Y96283D01*
X378379Y95589D01*
X377632Y94951D01*
X376838Y94374D01*
X376000Y93860D01*
X375125Y93414D01*
X374217Y93039D01*
X373283Y92735D01*
X372328Y92506D01*
X371358Y92352D01*
X370379Y92275D01*
X369396Y92275D01*
X368417Y92352D01*
X367447Y92506D01*
X366492Y92735D01*
X365558Y93039D01*
X364650Y93414D01*
X363775Y93860D01*
X362938Y94374D01*
X362143Y94951D01*
X361396Y95589D01*
X360701Y96283D01*
X360063Y97030D01*
X359486Y97825D01*
X358973Y98663D01*
X358527Y99538D01*
X358151Y100445D01*
X357848Y101379D01*
X357618Y102335D01*
X357465Y103305D01*
X357388Y104284D01*
X357388Y105266D01*
X357465Y106245D01*
X357618Y107216D01*
X357848Y108171D01*
X358151Y109105D01*
X358527Y110012D01*
X358973Y110887D01*
X359486Y111725D01*
X360063Y112520D01*
X360701Y113267D01*
X361396Y113961D01*
X362143Y114599D01*
X362938Y115176D01*
X363775Y115690D01*
X364650Y116136D01*
X365558Y116511D01*
X366492Y116815D01*
X367447Y117044D01*
X368417Y117198D01*
X369396Y117275D01*
X370379Y117275D01*
X371358Y117198D01*
X372328Y117044D01*
X373283Y116815D01*
X374217Y116511D01*
X375125Y116136D01*
X376000Y115690D01*
X376838Y115176D01*
X377632Y114599D01*
X378379Y113961D01*
X379074Y113267D01*
X379712Y112520D01*
X380289Y111725D01*
X380802Y110887D01*
X381248Y110012D01*
X381624Y109105D01*
X381927Y108171D01*
X382157Y107216D01*
X382310Y106245D01*
X382388Y105266D01*
X382388Y104284D01*
X421400Y104239D02*
X421324Y103171D01*
X421171Y102110D01*
X420943Y101063D01*
X420641Y100035D01*
X420267Y99031D01*
X419822Y98056D01*
X419308Y97116D01*
X418729Y96215D01*
X418087Y95357D01*
X417385Y94547D01*
X416628Y93790D01*
X415818Y93088D01*
X414960Y92446D01*
X414059Y91867D01*
X413119Y91353D01*
X412144Y90908D01*
X411140Y90534D01*
X410112Y90232D01*
X409065Y90004D01*
X408004Y89851D01*
X406936Y89775D01*
X405864Y89775D01*
X404796Y89851D01*
X403735Y90004D01*
X402688Y90232D01*
X401660Y90534D01*
X400656Y90908D01*
X399681Y91353D01*
X398741Y91867D01*
X397840Y92446D01*
X396982Y93088D01*
X396172Y93790D01*
X395415Y94547D01*
X394713Y95357D01*
X394071Y96215D01*
X393492Y97116D01*
X392978Y98056D01*
X392533Y99031D01*
X392159Y100035D01*
X391857Y101063D01*
X391629Y102110D01*
X391476Y103171D01*
X391400Y104239D01*
X391400Y105311D01*
X391476Y106379D01*
X391629Y107440D01*
X391857Y108487D01*
X392159Y109515D01*
X392533Y110519D01*
X392978Y111494D01*
X393492Y112434D01*
X394071Y113335D01*
X394713Y114193D01*
X395415Y115003D01*
X396172Y115760D01*
X396982Y116462D01*
X397840Y117104D01*
X398741Y117683D01*
X399681Y118197D01*
X400656Y118642D01*
X401660Y119016D01*
X402688Y119318D01*
X403735Y119546D01*
X404796Y119699D01*
X405864Y119775D01*
X406936Y119775D01*
X408004Y119699D01*
X409065Y119546D01*
X410112Y119318D01*
X411140Y119016D01*
X412144Y118642D01*
X413119Y118197D01*
X414059Y117683D01*
X414960Y117104D01*
X415818Y116462D01*
X416628Y115760D01*
X417385Y115003D01*
X418087Y114193D01*
X418729Y113335D01*
X419308Y112434D01*
X419822Y111494D01*
X420267Y110519D01*
X420641Y109515D01*
X420943Y108487D01*
X421171Y107440D01*
X421324Y106379D01*
X421400Y105311D01*
X421400Y104239D01*
M02*
