G04 EAGLE Gerber RS-274X export*
G75*
%MOMM*%
%FSLAX34Y34*%
%LPD*%
%INSilkscreen Bottom*%
%IPPOS*%
%AMOC8*
5,1,8,0,0,1.08239X$1,22.5*%
G01*
%ADD10C,1.016000*%
%ADD11C,0.127000*%
%ADD12C,0.152400*%
%ADD13C,0.050800*%


D10*
X0Y142875D02*
X573088Y142875D01*
X1000125Y142875D01*
X573088Y142875D02*
X573088Y460375D01*
X0Y460375D01*
X573088Y460375D02*
X847725Y460375D01*
X1000125Y460375D01*
X847725Y460375D02*
X847725Y777875D01*
X573088Y777875D02*
X573088Y779463D01*
X573088Y777875D02*
X573088Y461963D01*
X174625Y777875D02*
X0Y777875D01*
X174625Y777875D02*
X352425Y777875D01*
X530225Y777875D01*
X573088Y777875D01*
X708025Y777875D01*
X847725Y777875D01*
X1000125Y777875D01*
X708025Y777875D02*
X708025Y1000125D01*
X530225Y1000125D02*
X530225Y777875D01*
X352425Y777875D02*
X352425Y1000125D01*
X174625Y1000125D02*
X174625Y777875D01*
D11*
X98570Y923000D02*
X70630Y923000D01*
X70630Y910300D01*
X98570Y910300D01*
X98570Y923000D01*
X427355Y911225D02*
X455295Y911225D01*
X455295Y923925D01*
X427355Y923925D01*
X427355Y911225D01*
X277495Y962025D02*
X249555Y962025D01*
X249555Y949325D01*
X277495Y949325D01*
X277495Y962025D01*
X641350Y929958D02*
X641350Y902018D01*
X641350Y929958D02*
X628650Y929958D01*
X628650Y902018D01*
X641350Y902018D01*
X596900Y902018D02*
X596900Y929958D01*
X596900Y902018D02*
X609600Y902018D01*
X609600Y929958D01*
X596900Y929958D01*
D12*
X812005Y740171D02*
X816405Y737631D01*
X803207Y745251D02*
X791108Y752236D01*
X781210Y757951D02*
X776810Y760491D01*
X767920Y745094D01*
X803115Y724774D02*
X807515Y722234D01*
X794317Y729854D02*
X781118Y737474D01*
X772320Y742554D02*
X767920Y745094D01*
X807515Y722234D02*
X816405Y737631D01*
X794317Y729854D02*
X794222Y729694D01*
X794124Y729537D01*
X794021Y729382D01*
X793915Y729230D01*
X793805Y729081D01*
X793692Y728934D01*
X793575Y728790D01*
X793455Y728649D01*
X793331Y728510D01*
X793204Y728375D01*
X793073Y728243D01*
X792940Y728114D01*
X792803Y727989D01*
X792663Y727867D01*
X792521Y727748D01*
X792375Y727633D01*
X792227Y727521D01*
X792076Y727413D01*
X791922Y727309D01*
X791766Y727208D01*
X791608Y727112D01*
X791447Y727019D01*
X791284Y726930D01*
X791119Y726845D01*
X790952Y726764D01*
X790783Y726688D01*
X790613Y726615D01*
X790440Y726547D01*
X790266Y726483D01*
X790090Y726423D01*
X789913Y726367D01*
X789735Y726316D01*
X789555Y726269D01*
X789375Y726226D01*
X789193Y726188D01*
X789011Y726154D01*
X788827Y726125D01*
X788644Y726100D01*
X788459Y726080D01*
X788274Y726064D01*
X788089Y726053D01*
X787904Y726046D01*
X787718Y726044D01*
X787532Y726046D01*
X787347Y726053D01*
X787162Y726064D01*
X786977Y726080D01*
X786792Y726100D01*
X786609Y726125D01*
X786425Y726154D01*
X786243Y726188D01*
X786061Y726226D01*
X785881Y726269D01*
X785701Y726316D01*
X785523Y726367D01*
X785346Y726423D01*
X785170Y726483D01*
X784996Y726547D01*
X784823Y726615D01*
X784653Y726688D01*
X784484Y726764D01*
X784317Y726845D01*
X784152Y726930D01*
X783989Y727019D01*
X783828Y727112D01*
X783670Y727208D01*
X783514Y727309D01*
X783360Y727413D01*
X783209Y727521D01*
X783061Y727633D01*
X782915Y727748D01*
X782773Y727867D01*
X782633Y727989D01*
X782496Y728114D01*
X782363Y728243D01*
X782232Y728375D01*
X782105Y728510D01*
X781981Y728649D01*
X781861Y728790D01*
X781744Y728934D01*
X781631Y729081D01*
X781521Y729230D01*
X781415Y729382D01*
X781312Y729537D01*
X781214Y729694D01*
X781119Y729854D01*
X781028Y730016D01*
X780941Y730180D01*
X780858Y730346D01*
X780780Y730514D01*
X780705Y730684D01*
X780634Y730855D01*
X780568Y731029D01*
X780506Y731204D01*
X780448Y731380D01*
X780395Y731558D01*
X780346Y731737D01*
X780301Y731917D01*
X780261Y732098D01*
X780225Y732280D01*
X780193Y732463D01*
X780166Y732646D01*
X780144Y732831D01*
X780126Y733015D01*
X780112Y733200D01*
X780103Y733386D01*
X780099Y733571D01*
X780099Y733757D01*
X780103Y733942D01*
X780112Y734128D01*
X780126Y734313D01*
X780144Y734497D01*
X780166Y734682D01*
X780193Y734865D01*
X780225Y735048D01*
X780261Y735230D01*
X780301Y735411D01*
X780346Y735591D01*
X780395Y735770D01*
X780448Y735948D01*
X780506Y736124D01*
X780568Y736299D01*
X780634Y736473D01*
X780705Y736644D01*
X780780Y736814D01*
X780858Y736982D01*
X780941Y737148D01*
X781028Y737312D01*
X781119Y737474D01*
D13*
X782978Y730534D02*
X787377Y727994D01*
X790847Y728924D02*
X782048Y734004D01*
D11*
X816808Y731279D02*
X826707Y725564D01*
X818395Y734029D02*
X815220Y728530D01*
X809569Y718741D02*
X823278Y719625D01*
X819468Y713026D02*
X813379Y725340D01*
D12*
X809102Y509666D02*
X817992Y494269D01*
X778398Y471409D01*
X769508Y486806D01*
X809102Y509666D01*
X797004Y502681D02*
X796893Y502867D01*
X796778Y503051D01*
X796659Y503231D01*
X796535Y503409D01*
X796407Y503583D01*
X796275Y503755D01*
X796138Y503923D01*
X795998Y504087D01*
X795853Y504249D01*
X795705Y504406D01*
X795553Y504560D01*
X795397Y504711D01*
X795237Y504857D01*
X795074Y505000D01*
X794908Y505138D01*
X794738Y505272D01*
X794565Y505403D01*
X794389Y505529D01*
X794210Y505650D01*
X794028Y505767D01*
X793843Y505880D01*
X793656Y505989D01*
X793466Y506092D01*
X793273Y506191D01*
X793078Y506285D01*
X792881Y506375D01*
X792682Y506460D01*
X792481Y506539D01*
X792278Y506614D01*
X792073Y506684D01*
X791866Y506749D01*
X791658Y506809D01*
X791449Y506864D01*
X791238Y506913D01*
X791026Y506958D01*
X790813Y506997D01*
X790599Y507031D01*
X790385Y507060D01*
X790170Y507084D01*
X789954Y507102D01*
X789738Y507115D01*
X789521Y507123D01*
X789305Y507126D01*
X789089Y507123D01*
X788872Y507115D01*
X788656Y507102D01*
X788440Y507084D01*
X788225Y507060D01*
X788011Y507031D01*
X787797Y506997D01*
X787584Y506958D01*
X787372Y506913D01*
X787161Y506864D01*
X786952Y506809D01*
X786744Y506749D01*
X786537Y506684D01*
X786332Y506614D01*
X786129Y506539D01*
X785928Y506460D01*
X785729Y506375D01*
X785532Y506285D01*
X785337Y506191D01*
X785144Y506092D01*
X784954Y505989D01*
X784767Y505880D01*
X784582Y505767D01*
X784400Y505650D01*
X784221Y505529D01*
X784045Y505403D01*
X783872Y505272D01*
X783702Y505138D01*
X783536Y505000D01*
X783373Y504857D01*
X783213Y504711D01*
X783057Y504560D01*
X782905Y504406D01*
X782757Y504249D01*
X782612Y504087D01*
X782472Y503923D01*
X782335Y503755D01*
X782203Y503583D01*
X782075Y503409D01*
X781951Y503231D01*
X781832Y503051D01*
X781717Y502867D01*
X781606Y502681D01*
X781500Y502492D01*
X781399Y502301D01*
X781302Y502107D01*
X781210Y501911D01*
X781123Y501713D01*
X781041Y501513D01*
X780964Y501310D01*
X780891Y501106D01*
X780824Y500901D01*
X780761Y500693D01*
X780704Y500485D01*
X780652Y500274D01*
X780605Y500063D01*
X780563Y499851D01*
X780526Y499637D01*
X780495Y499423D01*
X780468Y499208D01*
X780447Y498993D01*
X780431Y498777D01*
X780421Y498561D01*
X780416Y498344D01*
X780416Y498128D01*
X780421Y497911D01*
X780431Y497695D01*
X780447Y497479D01*
X780468Y497264D01*
X780495Y497049D01*
X780526Y496835D01*
X780563Y496621D01*
X780605Y496409D01*
X780652Y496198D01*
X780704Y495987D01*
X780761Y495779D01*
X780824Y495571D01*
X780891Y495366D01*
X780964Y495162D01*
X781041Y494959D01*
X781123Y494759D01*
X781210Y494561D01*
X781302Y494365D01*
X781399Y494171D01*
X781500Y493980D01*
X781606Y493791D01*
D11*
X822761Y493833D02*
X832660Y499548D01*
X831072Y502297D01*
X831073Y502298D02*
X831016Y502392D01*
X830955Y502485D01*
X830892Y502576D01*
X830825Y502665D01*
X830755Y502751D01*
X830682Y502834D01*
X830607Y502916D01*
X830529Y502994D01*
X830447Y503069D01*
X830364Y503142D01*
X830278Y503212D01*
X830189Y503279D01*
X830098Y503342D01*
X830005Y503403D01*
X829910Y503460D01*
X829814Y503513D01*
X829715Y503564D01*
X829614Y503611D01*
X829512Y503654D01*
X829409Y503694D01*
X829304Y503730D01*
X829198Y503762D01*
X829091Y503791D01*
X828983Y503816D01*
X828874Y503837D01*
X828765Y503854D01*
X828655Y503868D01*
X828544Y503877D01*
X828434Y503883D01*
X828323Y503885D01*
X828212Y503883D01*
X828102Y503877D01*
X827991Y503868D01*
X827881Y503854D01*
X827772Y503837D01*
X827663Y503816D01*
X827555Y503791D01*
X827448Y503762D01*
X827342Y503730D01*
X827237Y503694D01*
X827134Y503654D01*
X827032Y503611D01*
X826931Y503564D01*
X826832Y503513D01*
X826735Y503460D01*
X826641Y503403D01*
X826548Y503342D01*
X826457Y503279D01*
X826368Y503212D01*
X826282Y503142D01*
X826199Y503069D01*
X826117Y502994D01*
X826039Y502916D01*
X825964Y502834D01*
X825891Y502751D01*
X825821Y502665D01*
X825754Y502576D01*
X825691Y502485D01*
X825630Y502392D01*
X825573Y502297D01*
X825520Y502201D01*
X825469Y502102D01*
X825422Y502001D01*
X825379Y501899D01*
X825339Y501796D01*
X825303Y501691D01*
X825271Y501585D01*
X825242Y501478D01*
X825217Y501370D01*
X825196Y501261D01*
X825179Y501152D01*
X825165Y501042D01*
X825156Y500931D01*
X825150Y500821D01*
X825148Y500710D01*
X825150Y500599D01*
X825156Y500489D01*
X825165Y500378D01*
X825179Y500268D01*
X825196Y500159D01*
X825217Y500050D01*
X825242Y499942D01*
X825271Y499835D01*
X825303Y499729D01*
X825339Y499624D01*
X825379Y499521D01*
X825422Y499419D01*
X825469Y499318D01*
X825520Y499219D01*
X825573Y499122D01*
X827160Y496373D01*
X825255Y499672D02*
X819586Y499332D01*
X817405Y503110D02*
X823494Y515424D01*
X827304Y508825D02*
X813595Y509709D01*
M02*
