G04 EAGLE Gerber RS-274X export*
G75*
%MOMM*%
%FSLAX34Y34*%
%LPD*%
%INSoldermask Bottom*%
%IPPOS*%
%AMOC8*
5,1,8,0,0,1.08239X$1,22.5*%
G01*
%ADD10C,1.203200*%
%ADD11C,3.203200*%
%ADD12C,6.203200*%
%ADD13C,0.803200*%
%ADD14C,0.703200*%
%ADD15C,1.003200*%
%ADD16C,0.903200*%
%ADD17C,1.103200*%
%ADD18C,1.703200*%
%ADD19C,2.203200*%
%ADD20C,2.703200*%
%ADD21C,2.082800*%
%ADD22P,1.869504X8X202.500000*%
%ADD23C,1.625600*%
%ADD24P,2.034460X8X22.500000*%
%ADD25P,2.034460X8X202.500000*%
%ADD26P,2.034460X8X292.500000*%
%ADD27C,0.425956*%
%ADD28C,1.727200*%
%ADD29P,1.649562X8X82.500000*%
%ADD30P,1.649562X8X322.500000*%
%ADD31C,1.803200*%
%ADD32P,2.034460X8X112.500000*%
%ADD33C,1.727200*%
%ADD34C,4.219200*%


D10*
X39600Y961650D03*
X129600Y871650D03*
X129600Y961650D03*
X39600Y871650D03*
X217400Y961650D03*
X217400Y871650D03*
X307400Y961650D03*
X307400Y871650D03*
X395200Y961650D03*
X395200Y871650D03*
X485200Y961650D03*
X485200Y871650D03*
D11*
X25400Y806450D03*
X146050Y806450D03*
X203200Y806450D03*
X323850Y806450D03*
X381000Y806450D03*
X501650Y806450D03*
D12*
X263525Y917575D03*
D13*
X406400Y927100D03*
X419100Y917575D03*
X406400Y908050D03*
X412750Y895350D03*
X425450Y901700D03*
X425450Y885825D03*
X441325Y882650D03*
X441325Y901700D03*
X457200Y901700D03*
X457200Y885825D03*
X469900Y895350D03*
X476250Y908050D03*
X463550Y917575D03*
X476250Y927100D03*
X469900Y939800D03*
X457200Y933450D03*
X441325Y933450D03*
X425450Y933450D03*
X412750Y939800D03*
X425450Y949325D03*
X441325Y952500D03*
X457200Y949325D03*
D10*
X425363Y630350D03*
X514263Y630350D03*
X514263Y719250D03*
X425363Y719250D03*
X514263Y312850D03*
X514263Y401750D03*
X425363Y312850D03*
X425363Y401750D03*
D11*
X558800Y806450D03*
X679450Y806450D03*
D10*
X573000Y961650D03*
X573000Y871650D03*
X663000Y961650D03*
X663000Y871650D03*
D11*
X735013Y977900D03*
X735013Y806450D03*
D14*
X989013Y941388D03*
X990600Y854075D03*
X990600Y862013D03*
X989013Y933450D03*
D15*
X28575Y460375D03*
X88900Y460375D03*
X150813Y460375D03*
X214313Y460375D03*
X271463Y460375D03*
X328613Y460375D03*
X388938Y460375D03*
X449263Y460375D03*
X508000Y460375D03*
X573088Y460375D03*
X630238Y460375D03*
X687388Y460375D03*
X747713Y460375D03*
X801688Y460375D03*
X847725Y460375D03*
X925513Y460375D03*
X989013Y460375D03*
X847725Y519113D03*
X847725Y577850D03*
X847725Y631825D03*
X847725Y682625D03*
X847725Y731838D03*
X847725Y777875D03*
X796925Y777875D03*
X909638Y777875D03*
X963613Y777875D03*
X742950Y777875D03*
X708025Y777875D03*
X708025Y830263D03*
X708025Y882650D03*
X708025Y936625D03*
X708025Y989013D03*
X530225Y987425D03*
X530225Y933450D03*
X530225Y881063D03*
X530225Y830263D03*
X530225Y777875D03*
X573088Y777875D03*
X623888Y777875D03*
X665163Y777875D03*
X479425Y777875D03*
X438150Y777875D03*
X395288Y777875D03*
X352425Y777875D03*
X352425Y819150D03*
X352425Y862013D03*
X352425Y911225D03*
X352425Y950913D03*
X352425Y989013D03*
X314325Y777875D03*
X273050Y777875D03*
X225425Y777875D03*
X174625Y777875D03*
X174625Y822325D03*
X174625Y865188D03*
X174625Y912813D03*
X174625Y960438D03*
X131763Y777875D03*
X88900Y777875D03*
X49213Y777875D03*
X7938Y777875D03*
X573088Y504825D03*
X573088Y546100D03*
X573088Y587375D03*
X573088Y627063D03*
X573088Y668338D03*
X573088Y714375D03*
X573088Y749300D03*
X573088Y412750D03*
X573088Y369888D03*
X573088Y319088D03*
X573088Y276225D03*
X573088Y228600D03*
X573088Y192088D03*
X573088Y142875D03*
D11*
X874713Y750888D03*
X979488Y750888D03*
X874713Y506413D03*
X979488Y506413D03*
D15*
X528638Y142875D03*
X479425Y142875D03*
X428625Y142875D03*
X377825Y142875D03*
X320675Y142875D03*
X263525Y142875D03*
X209550Y142875D03*
X146050Y142875D03*
X87313Y142875D03*
X30163Y142875D03*
X625475Y142875D03*
X681038Y142875D03*
X744538Y142875D03*
X814388Y142875D03*
X873125Y142875D03*
X930275Y142875D03*
X985838Y142875D03*
D14*
X211138Y104775D03*
D13*
X223838Y104775D03*
D16*
X238125Y104775D03*
D15*
X254000Y104775D03*
D17*
X271463Y104775D03*
D10*
X290513Y104775D03*
D18*
X312738Y104775D03*
D19*
X338138Y104775D03*
D20*
X369888Y104775D03*
D11*
X406400Y104775D03*
D21*
X295275Y677863D03*
X295275Y652463D03*
X131763Y676275D03*
X131763Y650875D03*
X295275Y222250D03*
X295275Y247650D03*
X304800Y354013D03*
X304800Y379413D03*
D22*
X28575Y568325D03*
X28575Y593725D03*
X28575Y619125D03*
X28575Y644525D03*
X28575Y669925D03*
X28575Y695325D03*
D23*
X263525Y183325D02*
X263525Y169101D01*
X238125Y169101D02*
X238125Y183325D01*
X268288Y704088D02*
X268288Y718312D01*
X293688Y718312D02*
X293688Y704088D01*
X131763Y704088D02*
X131763Y718312D01*
X157163Y718312D02*
X157163Y704088D01*
X236538Y704088D02*
X236538Y718312D01*
X211138Y718312D02*
X211138Y704088D01*
X77788Y251587D02*
X77788Y237363D01*
X103188Y237363D02*
X103188Y251587D01*
D24*
X381000Y357188D03*
X330200Y357188D03*
X355600Y382588D03*
D25*
X157163Y192088D03*
X207963Y192088D03*
X182563Y166688D03*
X69850Y192088D03*
X120650Y192088D03*
X95250Y166688D03*
X66675Y403225D03*
X117475Y403225D03*
X92075Y377825D03*
D26*
X131763Y555625D03*
X131763Y606425D03*
X157163Y581025D03*
X295275Y557213D03*
X295275Y608013D03*
X320675Y582613D03*
D24*
X381000Y227013D03*
X330200Y227013D03*
X355600Y252413D03*
D21*
X276225Y803275D03*
X250825Y803275D03*
X250825Y981075D03*
X276225Y981075D03*
X98425Y803275D03*
X73025Y803275D03*
X73025Y981075D03*
X98425Y981075D03*
X428625Y981075D03*
X454025Y981075D03*
X454025Y803275D03*
X428625Y803275D03*
D27*
X95551Y919981D02*
X88889Y919981D01*
X95551Y919981D02*
X95551Y913319D01*
X88889Y913319D01*
X88889Y919981D01*
X88889Y917366D02*
X95551Y917366D01*
X80311Y919981D02*
X73649Y919981D01*
X80311Y919981D02*
X80311Y913319D01*
X73649Y913319D01*
X73649Y919981D01*
X73649Y917366D02*
X80311Y917366D01*
X430374Y914244D02*
X437036Y914244D01*
X430374Y914244D02*
X430374Y920906D01*
X437036Y920906D01*
X437036Y914244D01*
X437036Y918291D02*
X430374Y918291D01*
X445614Y914244D02*
X452276Y914244D01*
X445614Y914244D02*
X445614Y920906D01*
X452276Y920906D01*
X452276Y914244D01*
X452276Y918291D02*
X445614Y918291D01*
X274476Y959006D02*
X267814Y959006D01*
X274476Y959006D02*
X274476Y952344D01*
X267814Y952344D01*
X267814Y959006D01*
X267814Y956391D02*
X274476Y956391D01*
X259236Y959006D02*
X252574Y959006D01*
X259236Y959006D02*
X259236Y952344D01*
X252574Y952344D01*
X252574Y959006D01*
X252574Y956391D02*
X259236Y956391D01*
D28*
X40958Y269875D02*
X25718Y269875D01*
X25718Y295275D02*
X40958Y295275D01*
X40958Y320675D02*
X25718Y320675D01*
X25718Y346075D02*
X40958Y346075D01*
X581025Y825818D02*
X581025Y841058D01*
X606425Y841058D02*
X606425Y825818D01*
X631825Y825818D02*
X631825Y841058D01*
X657225Y841058D02*
X657225Y825818D01*
D27*
X638331Y905037D02*
X638331Y911699D01*
X638331Y905037D02*
X631669Y905037D01*
X631669Y911699D01*
X638331Y911699D01*
X638331Y909084D02*
X631669Y909084D01*
X638331Y920277D02*
X638331Y926939D01*
X638331Y920277D02*
X631669Y920277D01*
X631669Y926939D01*
X638331Y926939D01*
X638331Y924324D02*
X631669Y924324D01*
X599919Y926939D02*
X599919Y920277D01*
X599919Y926939D02*
X606581Y926939D01*
X606581Y920277D01*
X599919Y920277D01*
X599919Y924324D02*
X606581Y924324D01*
X599919Y911699D02*
X599919Y905037D01*
X599919Y911699D02*
X606581Y911699D01*
X606581Y905037D01*
X599919Y905037D01*
X599919Y909084D02*
X606581Y909084D01*
D21*
X684213Y900113D03*
X684213Y925513D03*
X554038Y927100D03*
X554038Y901700D03*
D25*
X815975Y854075D03*
X866775Y854075D03*
X841375Y828675D03*
X815975Y933450D03*
X866775Y933450D03*
X841375Y908050D03*
D22*
X757238Y828675D03*
X757238Y854075D03*
X757238Y879475D03*
X757238Y904875D03*
X757238Y930275D03*
X757238Y955675D03*
D29*
X803161Y735013D03*
X781164Y747713D03*
D30*
X782752Y484188D03*
X804749Y496888D03*
D28*
X816293Y654050D02*
X831533Y654050D01*
X831533Y628650D02*
X816293Y628650D01*
X816293Y603250D02*
X831533Y603250D01*
X831533Y577850D02*
X816293Y577850D01*
X604520Y652463D02*
X589280Y652463D01*
X589280Y627063D02*
X604520Y627063D01*
X604520Y601663D02*
X589280Y601663D01*
X589280Y576263D02*
X604520Y576263D01*
D25*
X623888Y509588D03*
X674688Y509588D03*
X649288Y484188D03*
X700088Y509588D03*
X750888Y509588D03*
X725488Y484188D03*
D31*
X25400Y917575D03*
X142875Y917575D03*
D21*
X979488Y336550D03*
X979488Y361950D03*
X979488Y249238D03*
X979488Y223838D03*
D26*
X912813Y198438D03*
X912813Y249238D03*
X938213Y223838D03*
X912813Y307975D03*
X912813Y358775D03*
X938213Y333375D03*
D32*
X628650Y279400D03*
X628650Y228600D03*
X603250Y254000D03*
D26*
X628650Y306388D03*
X628650Y357188D03*
X654050Y331788D03*
D28*
X709613Y193358D02*
X709613Y178118D01*
X735013Y178118D02*
X735013Y193358D01*
X760413Y193358D02*
X760413Y178118D01*
X785813Y178118D02*
X785813Y193358D01*
D33*
X901700Y481013D03*
X927100Y481013D03*
X952500Y481013D03*
D34*
X28575Y746125D03*
X541338Y746125D03*
X28575Y492125D03*
X541338Y492125D03*
X28575Y428625D03*
X541338Y428625D03*
X28575Y174625D03*
X541338Y174625D03*
X604838Y428625D03*
X971550Y428625D03*
X604838Y174625D03*
X971550Y174625D03*
M02*
