G04 EAGLE Gerber RS-274X export*
G75*
%MOMM*%
%FSLAX34Y34*%
%LPD*%
%INSoldermask Top*%
%IPPOS*%
%AMOC8*
5,1,8,0,0,1.08239X$1,22.5*%
G01*
%ADD10C,1.203200*%
%ADD11C,3.203200*%
%ADD12C,6.203200*%
%ADD13C,0.803200*%
%ADD14C,0.703200*%
%ADD15C,1.003200*%
%ADD16C,0.903200*%
%ADD17C,1.103200*%
%ADD18C,1.703200*%
%ADD19C,2.203200*%
%ADD20C,2.703200*%
%ADD21R,1.303200X1.203200*%
%ADD22R,1.203200X1.303200*%
%ADD23R,2.403200X0.803200*%
%ADD24C,2.082800*%
%ADD25R,0.838200X1.473200*%
%ADD26P,1.869504X8X202.500000*%
%ADD27C,1.625600*%
%ADD28R,1.603200X1.203200*%
%ADD29P,2.034460X8X22.500000*%
%ADD30C,0.425956*%
%ADD31P,2.034460X8X202.500000*%
%ADD32P,2.034460X8X292.500000*%
%ADD33C,1.803200*%
%ADD34R,1.473200X0.838200*%
%ADD35C,1.727200*%
%ADD36P,1.649562X8X82.500000*%
%ADD37P,1.649562X8X322.500000*%
%ADD38R,1.203200X1.603200*%
%ADD39R,0.803200X2.403200*%
%ADD40P,2.034460X8X112.500000*%
%ADD41C,1.727200*%
%ADD42R,1.103200X0.903200*%
%ADD43R,1.703200X1.503200*%
%ADD44R,2.006200X1.803200*%
%ADD45R,2.903200X2.003200*%
%ADD46C,0.326303*%
%ADD47C,0.912766*%
%ADD48C,0.323534*%
%ADD49R,2.603200X2.603200*%
%ADD50C,0.500000*%
%ADD51R,1.403200X0.803200*%
%ADD52C,4.219200*%

G36*
X328360Y649935D02*
X328360Y649935D01*
X328426Y649937D01*
X328469Y649955D01*
X328516Y649963D01*
X328573Y649996D01*
X328633Y650021D01*
X328668Y650053D01*
X328709Y650077D01*
X328751Y650128D01*
X328799Y650173D01*
X328821Y650215D01*
X328850Y650251D01*
X328871Y650314D01*
X328902Y650372D01*
X328910Y650427D01*
X328922Y650464D01*
X328921Y650503D01*
X328929Y650558D01*
X328929Y654368D01*
X328918Y654432D01*
X328916Y654498D01*
X328898Y654542D01*
X328890Y654588D01*
X328856Y654645D01*
X328831Y654706D01*
X328800Y654741D01*
X328775Y654782D01*
X328724Y654823D01*
X328680Y654872D01*
X328638Y654893D01*
X328601Y654923D01*
X328539Y654944D01*
X328480Y654974D01*
X328426Y654982D01*
X328389Y654995D01*
X328349Y654994D01*
X328295Y655002D01*
X325755Y655002D01*
X325690Y654990D01*
X325624Y654988D01*
X325581Y654970D01*
X325534Y654962D01*
X325477Y654929D01*
X325417Y654904D01*
X325382Y654872D01*
X325341Y654848D01*
X325300Y654797D01*
X325251Y654752D01*
X325229Y654710D01*
X325200Y654674D01*
X325179Y654612D01*
X325148Y654553D01*
X325140Y654498D01*
X325128Y654461D01*
X325128Y654457D01*
X325129Y654421D01*
X325121Y654368D01*
X325121Y650558D01*
X325132Y650493D01*
X325134Y650427D01*
X325152Y650383D01*
X325160Y650337D01*
X325194Y650280D01*
X325219Y650219D01*
X325250Y650184D01*
X325275Y650143D01*
X325326Y650102D01*
X325370Y650053D01*
X325412Y650032D01*
X325449Y650002D01*
X325511Y649981D01*
X325570Y649951D01*
X325624Y649943D01*
X325661Y649930D01*
X325701Y649931D01*
X325755Y649923D01*
X328295Y649923D01*
X328360Y649935D01*
G37*
G36*
X164847Y648347D02*
X164847Y648347D01*
X164913Y648349D01*
X164957Y648367D01*
X165003Y648375D01*
X165060Y648409D01*
X165121Y648434D01*
X165156Y648465D01*
X165197Y648490D01*
X165238Y648541D01*
X165287Y648585D01*
X165308Y648627D01*
X165338Y648664D01*
X165359Y648726D01*
X165389Y648785D01*
X165397Y648839D01*
X165410Y648876D01*
X165409Y648916D01*
X165417Y648970D01*
X165417Y652780D01*
X165405Y652845D01*
X165403Y652911D01*
X165385Y652954D01*
X165377Y653001D01*
X165344Y653058D01*
X165319Y653118D01*
X165287Y653153D01*
X165263Y653194D01*
X165212Y653236D01*
X165167Y653284D01*
X165125Y653306D01*
X165089Y653335D01*
X165027Y653356D01*
X164968Y653387D01*
X164913Y653395D01*
X164876Y653407D01*
X164837Y653406D01*
X164783Y653414D01*
X162243Y653414D01*
X162178Y653403D01*
X162112Y653401D01*
X162068Y653383D01*
X162022Y653375D01*
X161965Y653341D01*
X161904Y653316D01*
X161869Y653285D01*
X161828Y653260D01*
X161787Y653209D01*
X161738Y653165D01*
X161717Y653123D01*
X161687Y653086D01*
X161666Y653024D01*
X161636Y652965D01*
X161628Y652911D01*
X161615Y652874D01*
X161615Y652870D01*
X161615Y652869D01*
X161616Y652834D01*
X161608Y652780D01*
X161608Y648970D01*
X161620Y648905D01*
X161622Y648839D01*
X161640Y648796D01*
X161648Y648749D01*
X161681Y648692D01*
X161706Y648632D01*
X161738Y648597D01*
X161762Y648556D01*
X161813Y648515D01*
X161858Y648466D01*
X161900Y648444D01*
X161936Y648415D01*
X161999Y648394D01*
X162057Y648363D01*
X162112Y648355D01*
X162149Y648343D01*
X162188Y648344D01*
X162243Y648336D01*
X164783Y648336D01*
X164847Y648347D01*
G37*
G36*
X463932Y166382D02*
X463932Y166382D01*
X463998Y166384D01*
X464042Y166402D01*
X464088Y166410D01*
X464145Y166444D01*
X464206Y166469D01*
X464241Y166500D01*
X464282Y166525D01*
X464323Y166576D01*
X464372Y166620D01*
X464393Y166662D01*
X464423Y166699D01*
X464444Y166761D01*
X464474Y166820D01*
X464482Y166874D01*
X464495Y166911D01*
X464494Y166951D01*
X464502Y167005D01*
X464502Y169545D01*
X464490Y169610D01*
X464488Y169676D01*
X464470Y169719D01*
X464462Y169766D01*
X464429Y169823D01*
X464404Y169883D01*
X464372Y169918D01*
X464348Y169959D01*
X464297Y170001D01*
X464252Y170049D01*
X464210Y170071D01*
X464174Y170100D01*
X464112Y170121D01*
X464053Y170152D01*
X463998Y170160D01*
X463961Y170172D01*
X463922Y170171D01*
X463868Y170179D01*
X460058Y170179D01*
X459993Y170168D01*
X459927Y170166D01*
X459883Y170148D01*
X459837Y170140D01*
X459780Y170106D01*
X459719Y170081D01*
X459684Y170050D01*
X459643Y170025D01*
X459602Y169974D01*
X459553Y169930D01*
X459532Y169888D01*
X459502Y169851D01*
X459481Y169789D01*
X459451Y169730D01*
X459443Y169676D01*
X459430Y169639D01*
X459430Y169636D01*
X459431Y169599D01*
X459423Y169545D01*
X459423Y167005D01*
X459435Y166940D01*
X459437Y166874D01*
X459455Y166831D01*
X459463Y166784D01*
X459496Y166727D01*
X459521Y166667D01*
X459553Y166632D01*
X459577Y166591D01*
X459628Y166550D01*
X459673Y166501D01*
X459715Y166479D01*
X459751Y166450D01*
X459814Y166429D01*
X459872Y166398D01*
X459927Y166390D01*
X459964Y166378D01*
X460003Y166379D01*
X460058Y166371D01*
X463868Y166371D01*
X463932Y166382D01*
G37*
G36*
X465520Y414032D02*
X465520Y414032D01*
X465586Y414034D01*
X465629Y414052D01*
X465676Y414060D01*
X465733Y414094D01*
X465793Y414119D01*
X465828Y414150D01*
X465869Y414175D01*
X465911Y414226D01*
X465959Y414270D01*
X465981Y414312D01*
X466010Y414349D01*
X466031Y414411D01*
X466062Y414470D01*
X466070Y414524D01*
X466082Y414561D01*
X466081Y414601D01*
X466089Y414655D01*
X466089Y417195D01*
X466078Y417260D01*
X466076Y417326D01*
X466058Y417369D01*
X466050Y417416D01*
X466016Y417473D01*
X465991Y417533D01*
X465960Y417568D01*
X465935Y417609D01*
X465884Y417651D01*
X465840Y417699D01*
X465798Y417721D01*
X465761Y417750D01*
X465699Y417771D01*
X465640Y417802D01*
X465586Y417810D01*
X465549Y417822D01*
X465509Y417821D01*
X465455Y417829D01*
X461645Y417829D01*
X461580Y417818D01*
X461514Y417816D01*
X461471Y417798D01*
X461424Y417790D01*
X461367Y417756D01*
X461307Y417731D01*
X461272Y417700D01*
X461231Y417675D01*
X461190Y417624D01*
X461141Y417580D01*
X461119Y417538D01*
X461090Y417501D01*
X461069Y417439D01*
X461038Y417380D01*
X461030Y417326D01*
X461018Y417289D01*
X461018Y417286D01*
X461019Y417249D01*
X461011Y417195D01*
X461011Y414655D01*
X461022Y414590D01*
X461024Y414524D01*
X461042Y414481D01*
X461050Y414434D01*
X461084Y414377D01*
X461109Y414317D01*
X461140Y414282D01*
X461165Y414241D01*
X461216Y414200D01*
X461260Y414151D01*
X461302Y414129D01*
X461339Y414100D01*
X461401Y414079D01*
X461460Y414048D01*
X461514Y414040D01*
X461551Y414028D01*
X461591Y414029D01*
X461645Y414021D01*
X465455Y414021D01*
X465520Y414032D01*
G37*
D10*
X39600Y961650D03*
X129600Y871650D03*
X129600Y961650D03*
X39600Y871650D03*
X217400Y961650D03*
X217400Y871650D03*
X307400Y961650D03*
X307400Y871650D03*
X395200Y961650D03*
X395200Y871650D03*
X485200Y961650D03*
X485200Y871650D03*
D11*
X25400Y806450D03*
X146050Y806450D03*
X203200Y806450D03*
X323850Y806450D03*
X381000Y806450D03*
X501650Y806450D03*
D12*
X263525Y917575D03*
D13*
X406400Y927100D03*
X419100Y917575D03*
X406400Y908050D03*
X412750Y895350D03*
X425450Y901700D03*
X425450Y885825D03*
X441325Y882650D03*
X441325Y901700D03*
X457200Y901700D03*
X457200Y885825D03*
X469900Y895350D03*
X476250Y908050D03*
X463550Y917575D03*
X476250Y927100D03*
X469900Y939800D03*
X457200Y933450D03*
X441325Y933450D03*
X425450Y933450D03*
X412750Y939800D03*
X425450Y949325D03*
X441325Y952500D03*
X457200Y949325D03*
D10*
X425363Y630350D03*
X514263Y630350D03*
X514263Y719250D03*
X425363Y719250D03*
X514263Y312850D03*
X514263Y401750D03*
X425363Y312850D03*
X425363Y401750D03*
D11*
X558800Y806450D03*
X679450Y806450D03*
D10*
X573000Y961650D03*
X573000Y871650D03*
X663000Y961650D03*
X663000Y871650D03*
D11*
X735013Y977900D03*
X735013Y806450D03*
D14*
X989013Y941388D03*
X990600Y854075D03*
X990600Y862013D03*
X989013Y933450D03*
D15*
X28575Y460375D03*
X88900Y460375D03*
X150813Y460375D03*
X214313Y460375D03*
X271463Y460375D03*
X328613Y460375D03*
X388938Y460375D03*
X449263Y460375D03*
X508000Y460375D03*
X573088Y460375D03*
X630238Y460375D03*
X687388Y460375D03*
X747713Y460375D03*
X801688Y460375D03*
X847725Y460375D03*
X925513Y460375D03*
X989013Y460375D03*
X847725Y519113D03*
X847725Y577850D03*
X847725Y631825D03*
X847725Y682625D03*
X847725Y731838D03*
X847725Y777875D03*
X796925Y777875D03*
X909638Y777875D03*
X963613Y777875D03*
X742950Y777875D03*
X708025Y777875D03*
X708025Y830263D03*
X708025Y882650D03*
X708025Y936625D03*
X708025Y989013D03*
X530225Y987425D03*
X530225Y933450D03*
X530225Y881063D03*
X530225Y830263D03*
X530225Y777875D03*
X573088Y777875D03*
X623888Y777875D03*
X665163Y777875D03*
X479425Y777875D03*
X438150Y777875D03*
X395288Y777875D03*
X352425Y777875D03*
X352425Y819150D03*
X352425Y862013D03*
X352425Y911225D03*
X352425Y950913D03*
X352425Y989013D03*
X314325Y777875D03*
X273050Y777875D03*
X225425Y777875D03*
X174625Y777875D03*
X174625Y822325D03*
X174625Y865188D03*
X174625Y912813D03*
X174625Y960438D03*
X131763Y777875D03*
X88900Y777875D03*
X49213Y777875D03*
X7938Y777875D03*
X573088Y504825D03*
X573088Y546100D03*
X573088Y587375D03*
X573088Y627063D03*
X573088Y668338D03*
X573088Y714375D03*
X573088Y749300D03*
X573088Y412750D03*
X573088Y369888D03*
X573088Y319088D03*
X573088Y276225D03*
X573088Y228600D03*
X573088Y192088D03*
X573088Y142875D03*
D11*
X874713Y750888D03*
X979488Y750888D03*
X874713Y506413D03*
X979488Y506413D03*
D15*
X528638Y142875D03*
X479425Y142875D03*
X428625Y142875D03*
X377825Y142875D03*
X320675Y142875D03*
X263525Y142875D03*
X209550Y142875D03*
X146050Y142875D03*
X87313Y142875D03*
X30163Y142875D03*
X625475Y142875D03*
X681038Y142875D03*
X744538Y142875D03*
X814388Y142875D03*
X873125Y142875D03*
X930275Y142875D03*
X985838Y142875D03*
D14*
X211138Y104775D03*
D13*
X223838Y104775D03*
D16*
X238125Y104775D03*
D15*
X254000Y104775D03*
D17*
X271463Y104775D03*
D10*
X290513Y104775D03*
D18*
X312738Y104775D03*
D19*
X338138Y104775D03*
D20*
X369888Y104775D03*
D11*
X406400Y104775D03*
D21*
X294713Y404813D03*
X311713Y404813D03*
D22*
X279400Y511738D03*
X279400Y494738D03*
D21*
X270438Y430213D03*
X253438Y430213D03*
D22*
X173038Y494738D03*
X173038Y511738D03*
D21*
X294713Y274638D03*
X311713Y274638D03*
D23*
X187925Y282575D03*
X135925Y282575D03*
X187925Y269875D03*
X187925Y295275D03*
X187925Y307975D03*
X135925Y269875D03*
X135925Y295275D03*
X135925Y307975D03*
X187925Y333375D03*
X135925Y333375D03*
X187925Y320675D03*
X187925Y346075D03*
X135925Y320675D03*
X135925Y346075D03*
D24*
X295275Y677863D03*
X295275Y652463D03*
X131763Y676275D03*
X131763Y650875D03*
X295275Y222250D03*
X295275Y247650D03*
X304800Y354013D03*
X304800Y379413D03*
D25*
X219774Y422275D03*
X227902Y422275D03*
X251524Y334963D03*
X259652Y334963D03*
X235839Y236538D03*
X227711Y236538D03*
D26*
X28575Y568325D03*
X28575Y593725D03*
X28575Y619125D03*
X28575Y644525D03*
X28575Y669925D03*
X28575Y695325D03*
D27*
X263525Y183325D02*
X263525Y169101D01*
X238125Y169101D02*
X238125Y183325D01*
X268288Y704088D02*
X268288Y718312D01*
X293688Y718312D02*
X293688Y704088D01*
X131763Y704088D02*
X131763Y718312D01*
X157163Y718312D02*
X157163Y704088D01*
X236538Y704088D02*
X236538Y718312D01*
X211138Y718312D02*
X211138Y704088D01*
X77788Y251587D02*
X77788Y237363D01*
X103188Y237363D02*
X103188Y251587D01*
D28*
X388825Y503238D03*
X366825Y493738D03*
X366825Y512738D03*
X276113Y268288D03*
X254113Y258788D03*
X254113Y277788D03*
D21*
X250825Y494738D03*
X250825Y511738D03*
D29*
X381000Y357188D03*
X330200Y357188D03*
X355600Y382588D03*
D21*
X222250Y511738D03*
X222250Y494738D03*
X307975Y511738D03*
X307975Y494738D03*
D30*
X466569Y239551D02*
X466569Y232889D01*
X466569Y239551D02*
X473231Y239551D01*
X473231Y232889D01*
X466569Y232889D01*
X466569Y236936D02*
X473231Y236936D01*
X466569Y224311D02*
X466569Y217649D01*
X466569Y224311D02*
X473231Y224311D01*
X473231Y217649D01*
X466569Y217649D01*
X466569Y221696D02*
X473231Y221696D01*
X473231Y346237D02*
X473231Y352899D01*
X473231Y346237D02*
X466569Y346237D01*
X466569Y352899D01*
X473231Y352899D01*
X473231Y350284D02*
X466569Y350284D01*
X473231Y361477D02*
X473231Y368139D01*
X473231Y361477D02*
X466569Y361477D01*
X466569Y368139D01*
X473231Y368139D01*
X473231Y365524D02*
X466569Y365524D01*
D22*
X353450Y179388D03*
X370450Y179388D03*
X353450Y311150D03*
X370450Y311150D03*
D21*
X230188Y294713D03*
X230188Y311713D03*
X230188Y276788D03*
X230188Y259788D03*
D31*
X157163Y192088D03*
X207963Y192088D03*
X182563Y166688D03*
D21*
X144463Y494738D03*
X144463Y511738D03*
D22*
X215338Y400050D03*
X232338Y400050D03*
X251850Y368300D03*
X268850Y368300D03*
X253438Y400050D03*
X270438Y400050D03*
D31*
X69850Y192088D03*
X120650Y192088D03*
X95250Y166688D03*
D22*
X175650Y430213D03*
X192650Y430213D03*
D31*
X66675Y403225D03*
X117475Y403225D03*
X92075Y377825D03*
D22*
X139138Y247650D03*
X156138Y247650D03*
D21*
X230188Y331225D03*
X230188Y348225D03*
D30*
X474819Y665324D02*
X474819Y671986D01*
X474819Y665324D02*
X468157Y665324D01*
X468157Y671986D01*
X474819Y671986D01*
X474819Y669371D02*
X468157Y669371D01*
X474819Y680564D02*
X474819Y687226D01*
X474819Y680564D02*
X468157Y680564D01*
X468157Y687226D01*
X474819Y687226D01*
X474819Y684611D02*
X468157Y684611D01*
X474819Y548161D02*
X474819Y541499D01*
X468157Y541499D01*
X468157Y548161D01*
X474819Y548161D01*
X474819Y545546D02*
X468157Y545546D01*
X474819Y556739D02*
X474819Y563401D01*
X474819Y556739D02*
X468157Y556739D01*
X468157Y563401D01*
X474819Y563401D01*
X474819Y560786D02*
X468157Y560786D01*
D32*
X131763Y555625D03*
X131763Y606425D03*
X157163Y581025D03*
X295275Y557213D03*
X295275Y608013D03*
X320675Y582613D03*
D29*
X381000Y227013D03*
X330200Y227013D03*
X355600Y252413D03*
D33*
X320675Y531813D03*
X349250Y611188D03*
X185738Y609600D03*
X327025Y677863D03*
X163513Y676275D03*
X401638Y227013D03*
X401638Y369888D03*
D24*
X276225Y803275D03*
X250825Y803275D03*
D30*
X267814Y959006D02*
X274476Y959006D01*
X274476Y952344D01*
X267814Y952344D01*
X267814Y959006D01*
X267814Y956391D02*
X274476Y956391D01*
X259236Y959006D02*
X252574Y959006D01*
X259236Y959006D02*
X259236Y952344D01*
X252574Y952344D01*
X252574Y959006D01*
X252574Y956391D02*
X259236Y956391D01*
D24*
X250825Y981075D03*
X276225Y981075D03*
X98425Y803275D03*
X73025Y803275D03*
D30*
X88889Y919981D02*
X95551Y919981D01*
X95551Y913319D01*
X88889Y913319D01*
X88889Y919981D01*
X88889Y917366D02*
X95551Y917366D01*
X80311Y919981D02*
X73649Y919981D01*
X80311Y919981D02*
X80311Y913319D01*
X73649Y913319D01*
X73649Y919981D01*
X73649Y917366D02*
X80311Y917366D01*
D24*
X73025Y981075D03*
X98425Y981075D03*
D33*
X320675Y917575D03*
X203200Y917575D03*
X25400Y917575D03*
X142875Y917575D03*
D34*
X327025Y647383D03*
X327025Y657543D03*
X163513Y645795D03*
X163513Y655955D03*
D24*
X428625Y981075D03*
X454025Y981075D03*
D30*
X437036Y914244D02*
X430374Y914244D01*
X430374Y920906D01*
X437036Y920906D01*
X437036Y914244D01*
X437036Y918291D02*
X430374Y918291D01*
X445614Y914244D02*
X452276Y914244D01*
X445614Y914244D02*
X445614Y920906D01*
X452276Y920906D01*
X452276Y914244D01*
X452276Y918291D02*
X445614Y918291D01*
D24*
X454025Y803275D03*
X428625Y803275D03*
D33*
X498475Y917575D03*
X381000Y917575D03*
D25*
X467043Y168275D03*
X456883Y168275D03*
X468630Y415925D03*
X458470Y415925D03*
D33*
X469900Y295275D03*
X249238Y296863D03*
D35*
X40958Y269875D02*
X25718Y269875D01*
X25718Y295275D02*
X40958Y295275D01*
X40958Y320675D02*
X25718Y320675D01*
X25718Y346075D02*
X40958Y346075D01*
X581025Y825818D02*
X581025Y841058D01*
X606425Y841058D02*
X606425Y825818D01*
X631825Y825818D02*
X631825Y841058D01*
X657225Y841058D02*
X657225Y825818D01*
D30*
X638331Y905037D02*
X638331Y911699D01*
X638331Y905037D02*
X631669Y905037D01*
X631669Y911699D01*
X638331Y911699D01*
X638331Y909084D02*
X631669Y909084D01*
X638331Y920277D02*
X638331Y926939D01*
X638331Y920277D02*
X631669Y920277D01*
X631669Y926939D01*
X638331Y926939D01*
X638331Y924324D02*
X631669Y924324D01*
X599919Y926939D02*
X599919Y920277D01*
X599919Y926939D02*
X606581Y926939D01*
X606581Y920277D01*
X599919Y920277D01*
X599919Y924324D02*
X606581Y924324D01*
X599919Y911699D02*
X599919Y905037D01*
X599919Y911699D02*
X606581Y911699D01*
X606581Y905037D01*
X599919Y905037D01*
X599919Y909084D02*
X606581Y909084D01*
D33*
X684213Y871538D03*
X684213Y952500D03*
X552450Y954088D03*
X550863Y871538D03*
D24*
X684213Y900113D03*
X684213Y925513D03*
X554038Y927100D03*
X554038Y901700D03*
D33*
X336550Y180975D03*
X336550Y311150D03*
D30*
X951074Y850744D02*
X957736Y850744D01*
X951074Y850744D02*
X951074Y857406D01*
X957736Y857406D01*
X957736Y850744D01*
X957736Y854791D02*
X951074Y854791D01*
X966314Y850744D02*
X972976Y850744D01*
X966314Y850744D02*
X966314Y857406D01*
X972976Y857406D01*
X972976Y850744D01*
X972976Y854791D02*
X966314Y854791D01*
D31*
X815975Y854075D03*
X866775Y854075D03*
X841375Y828675D03*
D22*
X778900Y855663D03*
X795900Y855663D03*
D30*
X951074Y930119D02*
X957736Y930119D01*
X951074Y930119D02*
X951074Y936781D01*
X957736Y936781D01*
X957736Y930119D01*
X957736Y934166D02*
X951074Y934166D01*
X966314Y930119D02*
X972976Y930119D01*
X966314Y930119D02*
X966314Y936781D01*
X972976Y936781D01*
X972976Y930119D01*
X972976Y934166D02*
X966314Y934166D01*
D31*
X815975Y933450D03*
X866775Y933450D03*
X841375Y908050D03*
D22*
X778900Y931863D03*
X795900Y931863D03*
D26*
X757238Y828675D03*
X757238Y854075D03*
X757238Y879475D03*
X757238Y904875D03*
X757238Y930275D03*
X757238Y955675D03*
D33*
X174625Y241300D03*
X185738Y376238D03*
X44450Y396875D03*
D36*
X803161Y735013D03*
X781164Y747713D03*
D37*
X782752Y484188D03*
X804749Y496888D03*
D35*
X816293Y654050D02*
X831533Y654050D01*
X831533Y628650D02*
X816293Y628650D01*
X816293Y603250D02*
X831533Y603250D01*
X831533Y577850D02*
X816293Y577850D01*
D38*
X790575Y566625D03*
X800075Y544625D03*
X781075Y544625D03*
D21*
X765175Y691588D03*
X765175Y708588D03*
D22*
X626500Y601663D03*
X643500Y601663D03*
X626500Y635000D03*
X643500Y635000D03*
D35*
X604520Y652463D02*
X589280Y652463D01*
X589280Y627063D02*
X604520Y627063D01*
X604520Y601663D02*
X589280Y601663D01*
X589280Y576263D02*
X604520Y576263D01*
D23*
X668938Y693738D03*
X616938Y693738D03*
X668938Y681038D03*
X668938Y706438D03*
X668938Y719138D03*
X616938Y681038D03*
X616938Y706438D03*
X616938Y719138D03*
X668938Y744538D03*
X616938Y744538D03*
X668938Y731838D03*
X668938Y757238D03*
X616938Y731838D03*
X616938Y757238D03*
D21*
X701675Y691588D03*
X701675Y708588D03*
D22*
X728663Y691588D03*
X728663Y708588D03*
D31*
X623888Y509588D03*
X674688Y509588D03*
X649288Y484188D03*
D22*
X653025Y555625D03*
X636025Y555625D03*
D31*
X700088Y509588D03*
X750888Y509588D03*
X725488Y484188D03*
D25*
X247841Y209550D03*
X239713Y209550D03*
X231585Y209550D03*
D24*
X979488Y336550D03*
X979488Y361950D03*
X979488Y249238D03*
X979488Y223838D03*
D22*
X867338Y198438D03*
X850338Y198438D03*
X867338Y307975D03*
X850338Y307975D03*
D32*
X912813Y198438D03*
X912813Y249238D03*
X938213Y223838D03*
X912813Y307975D03*
X912813Y358775D03*
X938213Y333375D03*
D28*
X871425Y274638D03*
X849425Y265138D03*
X849425Y284138D03*
D39*
X722313Y364525D03*
X722313Y416525D03*
X709613Y364525D03*
X735013Y364525D03*
X747713Y364525D03*
X709613Y416525D03*
X735013Y416525D03*
X747713Y416525D03*
X773113Y364525D03*
X773113Y416525D03*
X760413Y364525D03*
X785813Y364525D03*
X760413Y416525D03*
X785813Y416525D03*
D22*
X850338Y336550D03*
X867338Y336550D03*
X850338Y228600D03*
X867338Y228600D03*
X807475Y228600D03*
X824475Y228600D03*
X807475Y338138D03*
X824475Y338138D03*
X763025Y228600D03*
X780025Y228600D03*
X691125Y261938D03*
X674125Y261938D03*
X780025Y284163D03*
X763025Y284163D03*
X807475Y284163D03*
X824475Y284163D03*
D40*
X628650Y279400D03*
X628650Y228600D03*
X603250Y254000D03*
D22*
X926075Y277813D03*
X909075Y277813D03*
X691125Y325438D03*
X674125Y325438D03*
X729225Y284163D03*
X712225Y284163D03*
D32*
X628650Y306388D03*
X628650Y357188D03*
X654050Y331788D03*
D22*
X625800Y387350D03*
X608800Y387350D03*
X674125Y293688D03*
X691125Y293688D03*
D35*
X709613Y193358D02*
X709613Y178118D01*
X735013Y178118D02*
X735013Y193358D01*
X760413Y193358D02*
X760413Y178118D01*
X785813Y178118D02*
X785813Y193358D01*
D38*
X927100Y560275D03*
X936600Y538275D03*
X917600Y538275D03*
X927100Y520588D03*
X936600Y498588D03*
X917600Y498588D03*
D41*
X901700Y481013D03*
X927100Y481013D03*
X952500Y481013D03*
D33*
X800000Y210000D03*
X851375Y371325D03*
X695800Y236075D03*
X762475Y262750D03*
X864075Y248150D03*
X679925Y360550D03*
D42*
X95250Y90338D03*
X95250Y103338D03*
D21*
X111125Y88338D03*
X111125Y105338D03*
D43*
X131763Y87338D03*
X131763Y106338D03*
D44*
X152400Y111058D03*
X152400Y82618D03*
D45*
X179388Y74838D03*
X179388Y118838D03*
D38*
X470438Y110050D03*
X479938Y88050D03*
X460938Y88050D03*
D46*
X628253Y108940D02*
X634023Y108940D01*
X628253Y108940D02*
X628253Y110210D01*
X634023Y110210D01*
X634023Y108940D01*
X634023Y103940D02*
X628253Y103940D01*
X628253Y105210D01*
X634023Y105210D01*
X634023Y103940D01*
X634023Y98940D02*
X628253Y98940D01*
X628253Y100210D01*
X634023Y100210D01*
X634023Y98940D01*
X634023Y93940D02*
X628253Y93940D01*
X628253Y95210D01*
X634023Y95210D01*
X634023Y93940D01*
X634023Y88940D02*
X628253Y88940D01*
X628253Y90210D01*
X634023Y90210D01*
X634023Y88940D01*
X634023Y83940D02*
X628253Y83940D01*
X628253Y85210D01*
X634023Y85210D01*
X634023Y83940D01*
X634023Y78940D02*
X628253Y78940D01*
X628253Y80210D01*
X634023Y80210D01*
X634023Y78940D01*
X634023Y73940D02*
X628253Y73940D01*
X628253Y75210D01*
X634023Y75210D01*
X634023Y73940D01*
X638773Y70460D02*
X638773Y64690D01*
X637503Y64690D01*
X637503Y70460D01*
X638773Y70460D01*
X638773Y67790D02*
X637503Y67790D01*
X643773Y70460D02*
X643773Y64690D01*
X642503Y64690D01*
X642503Y70460D01*
X643773Y70460D01*
X643773Y67790D02*
X642503Y67790D01*
X648773Y70460D02*
X648773Y64690D01*
X647503Y64690D01*
X647503Y70460D01*
X648773Y70460D01*
X648773Y67790D02*
X647503Y67790D01*
X653773Y70460D02*
X653773Y64690D01*
X652503Y64690D01*
X652503Y70460D01*
X653773Y70460D01*
X653773Y67790D02*
X652503Y67790D01*
X658773Y70460D02*
X658773Y64690D01*
X657503Y64690D01*
X657503Y70460D01*
X658773Y70460D01*
X658773Y67790D02*
X657503Y67790D01*
X663773Y70460D02*
X663773Y64690D01*
X662503Y64690D01*
X662503Y70460D01*
X663773Y70460D01*
X663773Y67790D02*
X662503Y67790D01*
X668773Y70460D02*
X668773Y64690D01*
X667503Y64690D01*
X667503Y70460D01*
X668773Y70460D01*
X668773Y67790D02*
X667503Y67790D01*
X673773Y70460D02*
X673773Y64690D01*
X672503Y64690D01*
X672503Y70460D01*
X673773Y70460D01*
X673773Y67790D02*
X672503Y67790D01*
X677253Y75210D02*
X683023Y75210D01*
X683023Y73940D01*
X677253Y73940D01*
X677253Y75210D01*
X677253Y80210D02*
X683023Y80210D01*
X683023Y78940D01*
X677253Y78940D01*
X677253Y80210D01*
X677253Y85210D02*
X683023Y85210D01*
X683023Y83940D01*
X677253Y83940D01*
X677253Y85210D01*
X677253Y90210D02*
X683023Y90210D01*
X683023Y88940D01*
X677253Y88940D01*
X677253Y90210D01*
X677253Y95210D02*
X683023Y95210D01*
X683023Y93940D01*
X677253Y93940D01*
X677253Y95210D01*
X677253Y100210D02*
X683023Y100210D01*
X683023Y98940D01*
X677253Y98940D01*
X677253Y100210D01*
X677253Y105210D02*
X683023Y105210D01*
X683023Y103940D01*
X677253Y103940D01*
X677253Y105210D01*
X677253Y110210D02*
X683023Y110210D01*
X683023Y108940D01*
X677253Y108940D01*
X677253Y110210D01*
X672503Y113690D02*
X672503Y119460D01*
X673773Y119460D01*
X673773Y113690D01*
X672503Y113690D01*
X672503Y116790D02*
X673773Y116790D01*
X667503Y119460D02*
X667503Y113690D01*
X667503Y119460D02*
X668773Y119460D01*
X668773Y113690D01*
X667503Y113690D01*
X667503Y116790D02*
X668773Y116790D01*
X662503Y119460D02*
X662503Y113690D01*
X662503Y119460D02*
X663773Y119460D01*
X663773Y113690D01*
X662503Y113690D01*
X662503Y116790D02*
X663773Y116790D01*
X657503Y119460D02*
X657503Y113690D01*
X657503Y119460D02*
X658773Y119460D01*
X658773Y113690D01*
X657503Y113690D01*
X657503Y116790D02*
X658773Y116790D01*
X652503Y119460D02*
X652503Y113690D01*
X652503Y119460D02*
X653773Y119460D01*
X653773Y113690D01*
X652503Y113690D01*
X652503Y116790D02*
X653773Y116790D01*
X647503Y119460D02*
X647503Y113690D01*
X647503Y119460D02*
X648773Y119460D01*
X648773Y113690D01*
X647503Y113690D01*
X647503Y116790D02*
X648773Y116790D01*
X642503Y119460D02*
X642503Y113690D01*
X642503Y119460D02*
X643773Y119460D01*
X643773Y113690D01*
X642503Y113690D01*
X642503Y116790D02*
X643773Y116790D01*
X637503Y119460D02*
X637503Y113690D01*
X637503Y119460D02*
X638773Y119460D01*
X638773Y113690D01*
X637503Y113690D01*
X637503Y116790D02*
X638773Y116790D01*
D47*
X641186Y77623D02*
X670090Y77623D01*
X641186Y77623D02*
X641186Y106527D01*
X670090Y106527D01*
X670090Y77623D01*
X670090Y86295D02*
X641186Y86295D01*
X641186Y94967D02*
X670090Y94967D01*
X670090Y103639D02*
X641186Y103639D01*
D48*
X534362Y104976D02*
X527364Y104976D01*
X527364Y106174D01*
X534362Y106174D01*
X534362Y104976D01*
X534362Y100476D02*
X527364Y100476D01*
X527364Y101674D01*
X534362Y101674D01*
X534362Y100476D01*
X534362Y95976D02*
X527364Y95976D01*
X527364Y97174D01*
X534362Y97174D01*
X534362Y95976D01*
X534362Y91476D02*
X527364Y91476D01*
X527364Y92674D01*
X534362Y92674D01*
X534362Y91476D01*
X534362Y86976D02*
X527364Y86976D01*
X527364Y88174D01*
X534362Y88174D01*
X534362Y86976D01*
X534362Y82476D02*
X527364Y82476D01*
X527364Y83674D01*
X534362Y83674D01*
X534362Y82476D01*
X534362Y77976D02*
X527364Y77976D01*
X527364Y79174D01*
X534362Y79174D01*
X534362Y77976D01*
X537962Y75574D02*
X537962Y68576D01*
X536764Y68576D01*
X536764Y75574D01*
X537962Y75574D01*
X537962Y71649D02*
X536764Y71649D01*
X536764Y74722D02*
X537962Y74722D01*
X542462Y75574D02*
X542462Y68576D01*
X541264Y68576D01*
X541264Y75574D01*
X542462Y75574D01*
X542462Y71649D02*
X541264Y71649D01*
X541264Y74722D02*
X542462Y74722D01*
X546962Y75574D02*
X546962Y68576D01*
X545764Y68576D01*
X545764Y75574D01*
X546962Y75574D01*
X546962Y71649D02*
X545764Y71649D01*
X545764Y74722D02*
X546962Y74722D01*
X551462Y75574D02*
X551462Y68576D01*
X550264Y68576D01*
X550264Y75574D01*
X551462Y75574D01*
X551462Y71649D02*
X550264Y71649D01*
X550264Y74722D02*
X551462Y74722D01*
X555962Y75574D02*
X555962Y68576D01*
X554764Y68576D01*
X554764Y75574D01*
X555962Y75574D01*
X555962Y71649D02*
X554764Y71649D01*
X554764Y74722D02*
X555962Y74722D01*
X560462Y75574D02*
X560462Y68576D01*
X559264Y68576D01*
X559264Y75574D01*
X560462Y75574D01*
X560462Y71649D02*
X559264Y71649D01*
X559264Y74722D02*
X560462Y74722D01*
X564962Y75574D02*
X564962Y68576D01*
X563764Y68576D01*
X563764Y75574D01*
X564962Y75574D01*
X564962Y71649D02*
X563764Y71649D01*
X563764Y74722D02*
X564962Y74722D01*
X567364Y79174D02*
X574362Y79174D01*
X574362Y77976D01*
X567364Y77976D01*
X567364Y79174D01*
X567364Y83674D02*
X574362Y83674D01*
X574362Y82476D01*
X567364Y82476D01*
X567364Y83674D01*
X567364Y88174D02*
X574362Y88174D01*
X574362Y86976D01*
X567364Y86976D01*
X567364Y88174D01*
X567364Y92674D02*
X574362Y92674D01*
X574362Y91476D01*
X567364Y91476D01*
X567364Y92674D01*
X567364Y97174D02*
X574362Y97174D01*
X574362Y95976D01*
X567364Y95976D01*
X567364Y97174D01*
X567364Y101674D02*
X574362Y101674D01*
X574362Y100476D01*
X567364Y100476D01*
X567364Y101674D01*
X567364Y106174D02*
X574362Y106174D01*
X574362Y104976D01*
X567364Y104976D01*
X567364Y106174D01*
X563764Y108576D02*
X563764Y115574D01*
X564962Y115574D01*
X564962Y108576D01*
X563764Y108576D01*
X563764Y111649D02*
X564962Y111649D01*
X564962Y114722D02*
X563764Y114722D01*
X559264Y115574D02*
X559264Y108576D01*
X559264Y115574D02*
X560462Y115574D01*
X560462Y108576D01*
X559264Y108576D01*
X559264Y111649D02*
X560462Y111649D01*
X560462Y114722D02*
X559264Y114722D01*
X554764Y115574D02*
X554764Y108576D01*
X554764Y115574D02*
X555962Y115574D01*
X555962Y108576D01*
X554764Y108576D01*
X554764Y111649D02*
X555962Y111649D01*
X555962Y114722D02*
X554764Y114722D01*
X550264Y115574D02*
X550264Y108576D01*
X550264Y115574D02*
X551462Y115574D01*
X551462Y108576D01*
X550264Y108576D01*
X550264Y111649D02*
X551462Y111649D01*
X551462Y114722D02*
X550264Y114722D01*
X545764Y115574D02*
X545764Y108576D01*
X545764Y115574D02*
X546962Y115574D01*
X546962Y108576D01*
X545764Y108576D01*
X545764Y111649D02*
X546962Y111649D01*
X546962Y114722D02*
X545764Y114722D01*
X541264Y115574D02*
X541264Y108576D01*
X541264Y115574D02*
X542462Y115574D01*
X542462Y108576D01*
X541264Y108576D01*
X541264Y111649D02*
X542462Y111649D01*
X542462Y114722D02*
X541264Y114722D01*
X536764Y115574D02*
X536764Y108576D01*
X536764Y115574D02*
X537962Y115574D01*
X537962Y108576D01*
X536764Y108576D01*
X536764Y111649D02*
X537962Y111649D01*
X537962Y114722D02*
X536764Y114722D01*
D49*
X550863Y92075D03*
D50*
X731313Y113238D03*
X731313Y106738D03*
X731313Y100238D03*
X731313Y93738D03*
X731313Y87238D03*
X731313Y80738D03*
X731313Y74238D03*
X731313Y67738D03*
X737813Y113238D03*
X737813Y106738D03*
X737813Y100238D03*
X737813Y93738D03*
X737813Y87238D03*
X737813Y80738D03*
X737813Y74238D03*
X737813Y67738D03*
X744313Y113238D03*
X744313Y106738D03*
X744313Y100238D03*
X744313Y93738D03*
X744313Y87238D03*
X744313Y80738D03*
X744313Y74238D03*
X744313Y67738D03*
X750813Y113238D03*
X750813Y106738D03*
X750813Y100238D03*
X750813Y93738D03*
X750813Y87238D03*
X750813Y80738D03*
X750813Y74238D03*
X750813Y67738D03*
X757313Y113238D03*
X757313Y106738D03*
X757313Y100238D03*
X757313Y93738D03*
X757313Y87238D03*
X757313Y80738D03*
X757313Y74238D03*
X757313Y67738D03*
X763813Y113238D03*
X763813Y106738D03*
X763813Y100238D03*
X763813Y93738D03*
X763813Y87238D03*
X763813Y80738D03*
X763813Y74238D03*
X763813Y67738D03*
X770313Y113238D03*
X770313Y106738D03*
X770313Y100238D03*
X770313Y93738D03*
X770313Y87238D03*
X770313Y80738D03*
X770313Y74238D03*
X770313Y67738D03*
X776813Y113238D03*
X776813Y106738D03*
X776813Y100238D03*
X776813Y93738D03*
X776813Y87238D03*
X776813Y80738D03*
X776813Y74238D03*
X776813Y67738D03*
D51*
X826075Y109538D03*
X826075Y96838D03*
X826075Y84138D03*
X826075Y71438D03*
X882075Y71438D03*
X882075Y84138D03*
X882075Y96838D03*
X882075Y109538D03*
D52*
X28575Y746125D03*
X541338Y746125D03*
X28575Y492125D03*
X541338Y492125D03*
X28575Y428625D03*
X541338Y428625D03*
X28575Y174625D03*
X541338Y174625D03*
X604838Y428625D03*
X971550Y428625D03*
X604838Y174625D03*
X971550Y174625D03*
M02*
